<?xml version="1.0" standalone="no"?>
<!DOCTYPE svg PUBLIC "-//W3C//DTD SVG 1.1//EN" "http://www.w3.org/Graphics/SVG/1.1/DTD/svg11.dtd" >
<svg xmlns="http://www.w3.org/2000/svg" xmlns:xlink="http://www.w3.org/1999/xlink" version="1.1">
<metadata>
Created by FontForge 20201107 at Tue Jul  8 21:00:48 2025
 By 
Copyright (c) 2019 by Set Sail Studios LTD. All rights reserved.
</metadata>
<defs>
<font id="LaLuxesSerifW05-Regular" horiz-adv-x="1449" >
  <font-face 
    font-family="LaLuxesSerifW05-Regular"
    font-weight="400"
    font-stretch="normal"
    units-per-em="2048"
    panose-1="1 0 0 0 0 0 0 0 0 0"
    ascent="1638"
    descent="-410"
    x-height="1636"
    cap-height="1638"
    bbox="-39 -633 2988 2173"
    underline-thickness="102"
    underline-position="-255"
    unicode-range="U+000D-F6C3"
  />
<missing-glyph horiz-adv-x="741" 
 />
    <glyph glyph-name="L_D.liga" unicode="LD" horiz-adv-x="2134" 
d="M106 2v39q60 0 92 35q31 34 31 112v1266q0 68 -28 108t-76 40h-19v38h369v-38q-59 0 -91 -35t-32 -113v-1415q167 27 311 12q148 -15 277 -43q156 -33 261 -58q127 -30 263 -36q133 -6 282 26q143 31 318 128l13 -21q-164 -111 -310 -158q-149 -48 -280 -52
q-133 -4 -267 20q-124 23 -269 56q-149 34 -283 59q-156 29 -316 30h-246zM1679 1559q164 -83 260 -241q95 -157 95 -372q0 -153 -44 -282q-43 -126 -124 -218q-78 -88 -192 -139q-110 -49 -249 -49h-649v2h-2v33q49 0 76 29q27 28 27 94v1063q0 88 -52 116q-19 7 -32 7h-17
v2h-2v32h551q104 0 188 -20q94 -22 166 -57zM983 287h438q112 0 206 47t160 134t102 209t36 271q0 194 -72 341q-72 148 -200 231q-66 40 -150 64q-81 24 -176 22h-344v-1319z" />
    <glyph glyph-name="L_O.liga" unicode="LO" horiz-adv-x="2250" 
d="M1335 272q-139 18 -248 79q-105 59 -179 153q-71 91 -108 208q-36 116 -36 244q0 140 43 263q43 125 129 219q84 93 213 149q126 55 295 55q20 0 60 -2q31 -2 59 -6q138 -18 247 -79q110 -62 180 -151q72 -92 108 -207t36 -243q0 -140 -43 -265t-129 -220t-213 -150
q-126 -55 -295 -55q-20 0 -60 2q-31 2 -59 6zM1454 1616q-138 0 -246 -53q-104 -51 -178 -145q-71 -90 -107 -211q-36 -120 -36 -253q0 -119 31 -235q29 -110 91 -201q58 -86 149 -146q88 -58 208 -75q12 -1 38 -3q13 -1 40 -1q138 0 246 53q106 52 177 144q70 91 106 211
t36 255q0 119 -31 234q-30 110 -90 199q-59 86 -148 147q-87 59 -208 76q-12 1 -38 3q-13 1 -40 1zM2148 47q-175 -115 -322 -164q-148 -49 -292 -55t-277 19t-277 60q-112 27 -295 63q-156 31 -327 32h-245v39q59 0 91 35t32 112v1266q0 67 -28 109q-27 41 -75 41h-20v36
h368v-36q-60 0 -90 -36q-31 -37 -31 -114v-1415q174 24 322 8q156 -17 287 -46q169 -37 269 -61q132 -32 272 -36q144 -5 293 29q151 34 331 137z" />
    <glyph glyph-name="L_U.liga" unicode="LU" horiz-adv-x="2232" 
d="M889 1479q0 49 -27 86t-59 37h-17v32h7v2h307v-32h-6v-2h-17q-5 0 -14 -3q-27 -12 -43 -39q-20 -33 -21 -71v-737q0 -91 33 -170q34 -83 95 -142q62 -60 152 -97q89 -36 202 -36q125 0 215 37q93 38 154 95q65 60 94 132q30 73 30 148l2 751q-5 56 -33 93q-30 39 -69 39
h-19v32h7v2h266v-32h-6v-2h-17q-7 0 -16 -3q-31 -12 -53 -51q-23 -40 -23 -86v-751q0 -93 -41 -175q-40 -80 -113 -141q-68 -57 -175 -93q-101 -34 -224 -34q-134 0 -239 40q-107 41 -181 110q-72 68 -112 160q-39 90 -39 192v709zM2146 45q-175 -115 -322 -164
q-148 -49 -292 -55t-278 19t-277 60q-106 26 -295 63q-150 29 -328 34h-243v37q59 0 91 36q31 35 31 113v1266q0 68 -28 108t-76 40h-18v38h368v-38q-59 0 -91 -35t-32 -113v-1417q174 24 324 9q143 -14 287 -46q18 -4 269 -61q140 -32 272 -36q144 -5 293 29t331 136z" />
    <glyph glyph-name="L_L.liga" unicode="LL" horiz-adv-x="2064" 
d="M1985 43q-194 -105 -341 -151t-269 -51q-121 -5 -228 18q-115 24 -223 52q-115 30 -254 57q-139 28 -318 32h-237v39q60 0 90 35q31 36 31 112v1266q0 66 -28 108q-26 39 -75 39h-18v39h366v-39q-60 0 -90 -34q-31 -36 -31 -113v-1415q168 27 298 13q133 -14 238 -40
q124 -31 214 -55q109 -30 227 -34q121 -4 276 26q147 29 359 121zM770 344v39q60 0 90 35q31 36 31 112v922q0 66 -28 108q-26 39 -75 39h-18v39h369v-39q-60 0 -91 -34q-32 -35 -32 -113v-1069q89 22 159 17q66 -4 123 -21q64 -18 115 -36q57 -19 132 -24q69 -4 177 15
q104 18 250 78l13 -25q-130 -69 -234 -104q-101 -34 -175 -38q-82 -5 -140 9q-74 18 -126 35q-58 19 -132 37q-69 16 -162 18h-246z" />
    <glyph glyph-name="L_I.liga" unicode="LI" horiz-adv-x="1646" 
d="M1561 260q-11 -46 -25 -115q-11 -46 -18 -88q-5 -31 -13 -59h-1394v39q60 0 90 35q30 34 30 112v1266q0 68 -27 108q-26 39 -75 39h-18v39h368v-39q-60 0 -91 -34q-32 -35 -32 -113v-1421h818q24 0 65 7q42 7 92 33t96 73q48 49 80 130l21 -4l16 -4zM1167 1606
q-48 0 -74 -28t-26 -93v-1022q0 -54 23 -88q22 -33 61 -33h16v-33h-313v33q49 0 75 28q25 26 25 93v1022q0 56 -22 88q-22 33 -62 33h-16v32h313v-32z" />
    <glyph glyph-name="K_O.liga" unicode="KO" horiz-adv-x="3008" 
d="M1561 1597v33h305v-2h10v-31h-16q-35 0 -58 -33q-23 -34 -28 -81l2 -740q0 -91 32 -168q33 -79 94 -140q59 -59 147 -97q86 -37 198 -37q118 0 210 34q93 35 157 91q66 58 100 132t34 157l2 751q-5 57 -33 92q-30 38 -69 39h-10h-8v33h266v-2h8v-31h-18q-38 0 -68 -43
q-31 -45 -31 -98v-751q0 -90 -37 -168q-39 -83 -107 -141q-71 -60 -172 -96q-102 -36 -230 -36h-7h-2q-134 0 -239 40q-107 41 -181 110q-73 68 -112 159q-39 90 -39 193v709q0 45 -25 84q-23 36 -59 38h-8h-8zM2912 31q-285 -160 -540 -208q-257 -48 -501 5
q-239 52 -478 201q-231 144 -475 379q-71 66 -133 131q-64 67 -137 129q-66 57 -143 98q-71 38 -149 43v-625q0 -66 29 -107q28 -40 76 -40h18v-39h-368v39q59 0 91 35q31 34 31 112v1266q0 68 -27 108q-26 39 -75 39h-20v39h368v-39q-60 0 -91 -34q-32 -35 -32 -113v-571
l711 608q53 50 73 82q18 28 -10 28h-12v39h246v-39q-123 0 -291 -147h-2l-713 -614q21 0 61 -6q29 -4 64 -15q12 -3 26 -7q35 -10 98 -43q76 -40 164 -98q93 -61 224 -171q100 -84 190 -167q95 -88 197 -167q110 -86 213 -147q110 -66 236 -108q121 -41 268 -53
q142 -12 311 23q98 17 233 66q126 46 271 129l19 -29z" />
    <glyph glyph-name="K_I.liga" unicode="KI" horiz-adv-x="2328" 
d="M1180 72q-127 125 -224 250q-102 130 -194 236q-90 103 -190 179q-94 71 -212 76v-625q0 -66 28 -108q27 -41 75 -41h18v-37h-368v37q59 0 91 36q32 37 32 113v1266q0 66 -28 108q-27 40 -75 40h-20v38h368v-38q-60 0 -90 -35q-31 -36 -31 -113v-571l709 608q53 50 73 82
q18 29 -9 29h-13v38h246v-38q-117 0 -291 -148h-2l-713 -614h5h8q75 -5 135 -19q66 -16 131 -49q102 -49 191 -131q87 -79 165 -171q95 -111 151 -185q72 -95 148 -175q78 -82 160 -141q83 -59 183 -82q99 -23 220 0q117 22 267 109l61 37q34 20 60 41l18 -27
q-130 -96 -257 -159q-129 -64 -284 -70q-82 -4 -156 14q-76 19 -139 52q-66 35 -127 82q-47 37 -120 106zM2044 1606q-49 0 -75 -28q-25 -26 -25 -93v-1022q0 -56 22 -88q22 -33 62 -33h16v-33h-313v33q48 0 74 28t26 93v1022q0 54 -23 88q-22 33 -61 33h-16v32h313v-32z
" />
    <glyph glyph-name="k_o.liga" unicode="ko" horiz-adv-x="2818" 
d="M1346 946q0 141 43 264q44 126 129 220q84 93 213 149q126 55 294 55q167 0 285 -47q116 -46 194 -118q76 -70 118 -155q43 -87 63 -161t25 -133q4 -51 4 -72v-4q0 -141 -43 -264q-43 -124 -129 -219t-213 -150q-126 -55 -295 -55q-175 0 -295 50q-118 49 -195 125
q-76 75 -117 164q-41 90 -59 166q-19 79 -20 129q0 15 -0.5 28.5t-1 20t-0.5 7.5zM2034 1606q-136 0 -246 -54q-106 -52 -177 -143t-107 -210q-36 -120 -36 -255q0 -100 28 -221q27 -116 93 -214t172 -162t264 -64q139 0 245 53t176 144q72 93 107 211q36 120 36 255
q0 161 -38 275q-37 112 -95 185q-59 74 -125 114q-69 41 -129 59q-64 19 -107 23q-40 4 -57 4h-4zM2718 47q-282 -165 -525 -217q-245 -53 -468 -4q-225 49 -437 199q-212 149 -430 393q-68 76 -115 132q-59 71 -118 126q-62 58 -128 95t-141 42v-625q0 -68 28 -108
q27 -39 75 -39h20v-39h-368v39q59 0 91 35q31 34 31 112v1266q0 68 -28 108t-76 40h-18v38h368v-38q-59 0 -91 -35t-32 -113v-571l711 610q53 51 71 80t-10 29h-10v38h246v-38q-119 0 -293 -148h-2l-711 -614q63 -1 124 -23q63 -22 118 -51q60 -31 111 -71q70 -54 104 -81
q105 -91 201 -193q113 -120 203 -206q104 -99 221 -185q115 -84 258 -131q138 -46 311 -44t383 77q81 29 158 66q74 36 151 78z" />
    <glyph glyph-name="R_I.liga" unicode="RI" horiz-adv-x="2437" 
d="M2361 18q-69 -47 -133 -84q-68 -39 -138 -66q-75 -29 -145 -40q-73 -12 -155 -4q-122 16 -222 70q-98 52 -174 123q-75 70 -140 151q-24 30 -64.5 82t-51.5 67q-50 64 -108 122q-52 52 -110 67q-23 6 -66 9q-41 3 -94 3h-402v-332q0 -68 30 -108q30 -41 77 -41h18v-37
h-377v37h19q49 0 78 41q28 40 28 108v1266q0 67 -28 107t-78 40h-19v39h752q117 0 217 -41q99 -41 168 -114q71 -76 109 -178q39 -105 39 -230q0 -99 -30 -184q-31 -87 -84 -154q-52 -65 -132 -116q-77 -49 -174 -76q92 -24 175 -95q85 -72 160 -158q43 -49 152 -175
q78 -90 156 -146q86 -62 178 -80t184 -3q91 15 185 58q98 45 182 101zM760 549q109 0 202 38q88 36 156 107q66 69 102 167q35 95 35 214q0 120 -28 216q-29 97 -81 168q-53 71 -126 110q-74 39 -162 39h-500v-1059h402zM2109 1606q-48 0 -74 -28t-26 -93v-1022
q0 -54 23 -88q22 -33 61 -33h16v-33h-313v33q49 0 75 28q25 26 25 93v1022q0 56 -22 88q-23 33 -62 33h-16v32h313v-32z" />
    <glyph glyph-name="R_E.liga" unicode="RE" horiz-adv-x="2861" 
d="M1653 340q46 0 73 29t27 94v989q0 56 -23 88q-24 33 -63 33h-14v31h989q0 -48 3 -103q4 -78 5 -102h-18q-9 0 -9 2l-12 24q-35 71 -106 112q-72 42 -158 42h-477v-510h422q74 0 127 24q52 24 67 62l8 14h27v-239h-27l-8 18q-16 43 -69 70q-51 26 -125 26h-422v-708h491
q85 0 164 41q78 41 125 110l19 27q0 2 8 2h18q-9 -38 -19 -97q-7 -43 -20 -97l-4 -13h-999v31zM2083 -193q-138 0 -260 39q-123 39 -227 102q-111 66 -194 137q-88 75 -165 147q-20 19 -139 135q-60 58 -115 94q-66 43 -116 49q-48 6 -83 6h-116h-308v-332q0 -64 29 -107
q29 -42 78 -42h18v-37h-379v37h21q47 0 76 42q28 41 28 107v1266q0 66 -28 106q-29 41 -76 41h-21v39h754q117 0 217 -41q99 -41 168 -114q72 -76 108 -178q38 -106 38 -230q0 -102 -32 -192t-91 -158q-62 -71 -144 -118q-83 -47 -186 -70q51 -12 108 -37q47 -21 101 -54
q87 -54 156 -113q82 -70 143 -126q77 -71 141 -125q75 -64 152 -109q79 -46 173 -75q95 -29 206 -29q168 0 329 62q167 64 324 165l18 -28q-94 -61 -153 -94q-77 -43 -172 -83q-83 -35 -187 -59q-98 -23 -194 -23zM762 547q109 0 202 38q89 37 155 107q65 70 101 167
q35 95 35 214q0 120 -28 216q-29 98 -81 167q-53 70 -125 109t-161 39h-500v-1057h402z" />
    <glyph glyph-name="R_O.liga" unicode="RO" horiz-adv-x="3086" 
d="M2181 270q-139 18 -248 79q-103 58 -178 153q-70 89 -107 208q-36 116 -36 242q0 142 43 265q43 125 129 219q84 93 213 149q126 55 295 55q21 0 59 -2q29 -2 57 -6q139 -18 248 -79q108 -61 179 -151q74 -94 109 -207q36 -115 36 -243q0 -140 -43 -265t-129 -220
t-213 -150q-126 -55 -295 -55q-21 0 -61 2q-29 1 -58 6zM2300 1614q-138 0 -246 -53q-105 -52 -177 -145t-107 -211q-35 -117 -35 -253q0 -122 30 -235t90 -201q59 -87 150 -146q90 -58 209 -75q38 -6 78 -6q138 0 244 53q107 54 177 144q70 91 106 211t36 255
q0 120 -31 235q-30 110 -90 199q-60 88 -148 148q-87 59 -208 76q-12 1 -38 3q-13 1 -40 1zM1817 0q146 -85 289 -113q147 -29 291 -12t288 75q146 59 285 148l18 -28q-155 -103 -299 -163q-143 -59 -271 -80q-134 -22 -251 -10q-128 13 -238 48q-137 41 -250 102
q-119 64 -212 130q-90 63 -180 139q-28 23 -80 67t-77 64q-71 59 -120 89q-48 30 -92 46q-39 14 -77 16q-48 2 -77 2h-399v-334q0 -66 28 -106q29 -41 76 -41h20v-39h-378v39h20q47 0 76 41t29 106v1266q0 68 -29 109t-76 41h-20v36h751q117 0 217 -41q99 -41 168 -114
q71 -75 109 -177q39 -104 39 -229q0 -102 -32 -192t-91 -158q-62 -71 -144 -118q-83 -48 -188 -70q118 -24 230 -89q114 -66 221 -145q92 -68 215 -163q105 -82 211 -142zM764 551q109 0 202 38q88 36 156 107q66 69 102 167q36 97 36 214t-29 216q-29 98 -81 167
q-54 71 -126 109q-74 39 -162 39h-497v-1057h399z" />
    <glyph glyph-name="R_U.liga" unicode="RU" horiz-adv-x="3002" 
d="M2910 1599h-22q-11 0 -17 -2q-31 -12 -53 -51q-22 -38 -22 -86v-751q0 -94 -41 -176q-39 -77 -114 -140q-69 -57 -174 -93q-101 -34 -224 -34q-135 0 -240 40q-106 40 -180 110q-74 69 -113 161q-39 91 -39 193v707q0 49 -25 86q-24 36 -61 36h-16v33v2h313v-32v-3h-22
q-27 0 -51 -31q-22 -29 -27 -79v-739q0 -90 33 -170q34 -83 95 -142q62 -61 151 -97t202 -36q124 0 216 37q96 39 155 95q62 59 92 132q31 76 31 148l2 751q-5 55 -34 93t-69 38h-18v33v2h272v-32v-3zM1774 -4q140 -84 279 -111q141 -27 282 -9q142 18 280 76
q141 59 275 144l18 -28q-108 -71 -225 -130q-112 -56 -234 -90q-112 -31 -241 -36q-121 -4 -252 26q-184 46 -328 132q-143 85 -257 178q-110 90 -204 179q-90 85 -168 132q-45 28 -76 40t-94 17q-60 4 -166 3q-72 -1 -298 -1v-332q0 -66 28 -107q29 -42 78 -42h18v-37h-378
v37h20q47 0 77 42t30 107v1266q0 66 -30 107q-30 40 -77 40h-20v39h753q117 0 217 -41q99 -41 168 -114q72 -76 108 -178q38 -106 38 -230q0 -102 -32 -192t-91 -158q-62 -71 -144 -118q-83 -47 -186 -70q113 -23 224 -91q106 -65 209 -145q68 -53 200 -163q98 -82 199 -142
zM766 549q109 0 202 38q89 37 155 107q65 70 101 167t36 214t-29 216q-29 97 -81 168q-53 71 -125 110t-161 39h-499v-1059h401z" />
    <glyph glyph-name="T_T.liga" unicode="TT" horiz-adv-x="2461" 
d="M2343 1624q2 0 7 -38q1 -11 3 -24.5t4.5 -31.5t3.5 -29q9 -68 11 -88q5 -43 6 -49h-39l-31 59q-47 85 -127 135t-164 50h-336v-1420q0 -67 28 -109q27 -40 75 -40h18v-37h-370v37q60 0 91 36q31 35 31 113v1420h-653v-1420q0 -76 32 -113q31 -36 91 -36v-37h-371v37h19
q48 0 76 40t28 109v1420h-338q-84 0 -164 -50t-127 -135l-30 -59h-37q0 4 5 49q1 6 4.5 38t5.5 50q1 9 10 85q5 38 8 38l2 14h2226z" />
    <glyph glyph-name="T_I.liga" unicode="TI" horiz-adv-x="1904" 
d="M1278 1130h352v-38q-59 0 -91 -35t-32 -113v-758q0 -67 28 -109q27 -40 75 -40h20v-37h-352v37q60 0 90 36q31 37 31 113v758q0 66 -28 108q-27 40 -75 40h-18v38zM1782 1624q2 0 7 -38q9 -76 10 -85q2 -18 5.5 -48.5t4.5 -40.5q2 -22 8 -50h-39l-31 61q-45 81 -127 133
q-81 52 -164 52h-549v-1422q0 -67 28 -109q27 -40 75 -40h18v-37h-371v37q61 0 92 36q31 35 31 113v1422h-338q-81 0 -162 -52q-80 -51 -126 -133l-31 -61h-39q0 3 5 50q1 10 4.5 40.5t5.5 48.5t6 48t5 37q5 38 7 38l2 14h1661z" />
    <glyph glyph-name="O_G.liga" unicode="OG" horiz-adv-x="2729" 
d="M2288 776h354v-39q-60 0 -90 -36q-31 -37 -31 -113v-447q-58 -33 -133 -60q-82 -29 -161 -47q-85 -20 -177 -30q-87 -10 -180 -10q-275 0 -477 131q-94 -63 -212 -97q-117 -34 -261 -34q-203 0 -356 66q-152 65 -255 181q-101 113 -154 264t-53 320q0 168 53 319t154 264
q102 114 255 180q155 67 356 67q144 0 261 -34q118 -34 212 -97q202 131 477 131q90 0 174 -10q87 -10 172 -30q80 -19 159 -47q67 -24 134 -61l10 -231h-41q-13 27 -16 33q-2 6 -7.5 16.5t-7.5 15.5q-47 101 -141 171q-96 72 -203 94q-117 18 -233 18q-125 0 -229 -37
q-108 -39 -191 -104q141 -117 213 -288t72 -370q0 -197 -72 -370q-72 -172 -213 -289q85 -67 191 -105q101 -36 229 -36q146 0 283 26q140 27 255 74v463q0 68 -27 109q-27 40 -75 40h-18v39zM2509 1505l-6 -12q-2 5 1 6q4 2 5 6zM920 25q128 0 230 37q101 37 183 106
q-137 111 -213 277q-76 165 -76 380t76 380q77 167 213 278q-78 65 -183 103t-230 38q-168 0 -295 -64q-126 -64 -213 -175q-86 -110 -129 -253q-43 -142 -43 -307q0 -163 43 -307q43 -146 129 -255t213 -174q127 -64 295 -64zM1391 223q103 112 153 266q51 156 51 336
q0 178 -51 334q-50 154 -153 266q-102 -106 -155 -257q-54 -153 -54 -343q0 -192 54 -345q53 -151 155 -257z" />
    <glyph glyph-name="C_O.liga" unicode="CO" horiz-adv-x="1675" 
d="M1554 1276q-4 11 -14 35l-16 32q-24 50 -62 94q-40 46 -84 79q-43 32 -100 58q-53 24 -111 32q0 2 -34 6q-25 3 -79 7q-59 4 -83 5q-11 0 -21.5 0.5t-16 1t-7.5 0.5q-160 0 -292 -57q-130 -56 -226 -163q-95 -105 -146 -253q-51 -147 -51 -326t51 -328q51 -148 146 -254
q96 -107 226 -163q132 -57 292 -57q40 0 81 3q51 4 80 7q73 7 142 32q72 26 125 59q59 37 101 82q46 50 69 99q13 25 16 34q3 7 8 19t6 15h41l-10 -232q-54 -33 -134 -61q-65 -23 -163 -47q-81 -20 -179 -31q-89 -10 -183 -10q-196 0 -349 59q-160 62 -269 169
q-112 111 -172 263q-60 153 -60 342q0 186 60 339q59 151 172 262q109 107 269 169q156 60 349 60q94 0 183 -10q94 -11 179 -30q84 -19 163 -47q73 -26 134 -61l10 -233h-41zM975 1309q140 2 230 -47q92 -50 146 -122t75 -158q22 -90 22 -155q0 -66 -22 -156
q-21 -85 -75 -159t-146 -122q-91 -47 -230 -46q-141 -2 -232 46q-93 49 -145 122q-55 77 -75 159q-21 85 -21 156q0 69 21 155q21 84 76 158q55 73 145 122t231 47zM975 369q91 0 158 34q66 34 111 97q45 64 67 145q22 82 22 182q0 211 -93 333t-265 122t-265 -122
q-94 -123 -94 -333q0 -207 90 -334q88 -124 269 -124z" />
    <glyph glyph-name="D_O.liga" unicode="DO" horiz-adv-x="2689" 
d="M1782 1649q200 0 355 -67q153 -66 255 -180q104 -116 154 -264q51 -150 51 -319q0 -170 -51 -320q-51 -151 -154 -266q-103 -116 -255 -181q-153 -66 -355 -66q-151 0 -271 37q-123 38 -217 104q-173 -125 -413 -125h-772v37q59 0 91 36q31 35 31 113v1264q0 70 -27 110
t-75 40h-20v38h657q152 0 278 -37q122 -36 232 -108q101 73 224 113q128 41 282 41zM881 33q209 0 360 135q-138 118 -206 286q-68 167 -68 365q0 186 63 351q62 164 193 282q-88 74 -207 116q-113 40 -250 40h-410v-1575h525zM1102 819q0 -176 49 -327q51 -157 147 -265
q90 107 136 255q47 152 47 339q0 178 -51 322q-50 141 -146 248q-92 -112 -137 -258q-45 -147 -45 -314zM1782 16q167 0 294 65q125 64 211 174q84 107 128 255q43 144 43 309q0 164 -43 306q-44 147 -128 254q-86 110 -211 174q-127 65 -294 65q-142 0 -251 -45t-194 -125
q131 -109 199 -267q70 -161 70 -360q0 -209 -67 -376q-66 -166 -187 -273q83 -73 188 -114q107 -42 242 -42z" />
    <glyph glyph-name="O_O.liga" unicode="OO" horiz-adv-x="2832" 
d="M1907 1657q200 0 355 -67q153 -66 255 -180q103 -115 155 -265t52 -320q0 -169 -52 -319t-155 -265q-103 -116 -255 -181q-153 -66 -355 -66q-150 0 -270 37q-126 39 -218 102q-92 -64 -217 -102q-120 -37 -270 -37q-202 0 -355 66q-152 65 -255 181q-104 116 -154 265
q-51 152 -51 319q0 169 51 320q50 149 154 265q102 114 255 180q155 67 355 67q150 0 270 -37q125 -38 217 -102q92 63 218 102q120 37 270 37zM932 25q134 0 242 41q105 40 188 114q-136 118 -203 285t-67 360q0 194 67 361q67 166 203 284q-84 74 -188 113
q-108 41 -242 41q-168 0 -295 -64q-124 -63 -212 -174q-84 -106 -128 -253q-43 -144 -43 -308q0 -163 43 -307q44 -148 128 -255q86 -110 212 -174q127 -64 295 -64zM1419 240q99 114 144 262q47 153 47 323q0 171 -47 324q-45 148 -144 262q-97 -112 -143 -262
q-47 -153 -47 -324q0 -170 47 -323q46 -150 143 -262zM1907 25q168 0 295 64q126 64 212 174q84 107 128 255q43 144 43 307q0 164 -43 308q-44 147 -128 253q-88 111 -212 174q-127 64 -295 64q-132 0 -240 -41q-104 -39 -188 -113q136 -118 201 -284q67 -171 67 -361
q0 -189 -67 -360q-66 -168 -201 -285q83 -74 188 -114q108 -41 240 -41z" />
    <glyph glyph-name="O_C.liga" unicode="OC" horiz-adv-x="2701" 
d="M2527 1343q-44 90 -107 144q-65 56 -145 86q-79 30 -169 42q-81 11 -177 11q-141 0 -255 -43q-117 -44 -208 -123q130 -118 195 -281t65 -356q0 -188 -63 -353q-62 -164 -193 -282q88 -76 206 -119q116 -42 253 -42q81 0 170 12q86 12 169 44q80 31 150 86q68 53 109 140
q2 5 7.5 16t7.5 17q3 6 16 33h41l-10 -232q-63 -34 -135 -60q-81 -28 -162 -47q-85 -19 -179 -30q-89 -10 -184 -10q-154 0 -283 37q-133 38 -235 108q-93 -70 -221 -110q-124 -39 -279 -39q-202 0 -355 66q-152 65 -255 181q-104 116 -154 265q-51 151 -51 319
q0 169 51 320q50 149 154 265q102 114 255 180q155 67 355 67q154 0 277 -39q122 -39 219 -107q106 73 237 110q134 38 285 38q95 0 184 -10q94 -11 179 -30q81 -19 162 -47q67 -24 135 -61l10 -231h-41q-13 27 -16 33q-2 6 -7.5 16.5t-7.5 15.5zM911 23q136 0 247 44
q110 44 192 121q-129 111 -201 273t-72 366q0 202 71 364q70 159 200 271q-81 74 -193 119q-107 43 -244 43q-168 0 -295 -64q-126 -64 -213 -175q-85 -109 -129 -255q-43 -144 -43 -307t43 -307q44 -146 129 -255t213 -174q127 -64 295 -64zM1587 823q0 168 -45 318
q-44 147 -137 260q-91 -106 -141 -251t-50 -323q0 -175 51 -326q48 -143 142 -251q93 113 136 259q44 150 44 314z" />
    <glyph glyph-name="L_A.liga" unicode="LA" horiz-adv-x="2379" 
d="M1126 31q25 0 66 7q40 7 92 32q50 24 96 72q47 49 80 132l21 -4l16 -4l16 -4q-6 -23 -24 -115q-15 -63 -19 -88q-7 -41 -12 -59h-1345v37q60 0 90 36t30 113v1264q0 70 -27 110q-26 39 -75 39h-18v37h366v-37q-61 0 -90 -35q-31 -37 -31 -114v-1419h768zM2132 182
q28 -64 72 -106q40 -39 96 -39v-39h-387v39h24q57 0 78 41q21 40 -8 106q-8 16 -26 59q-39 93 -41 98q-24 61 -40 97q-20 45 -26 58q-108 5 -193 33q-86 29 -176 65q-49 21 -99 39q-48 17 -100 30q-45 11 -101 11q-48 0 -101 -17q0 -2 -1.5 -5.5l-4.5 -10.5t-5 -13
q-7 -18 -21 -50q-5 -10 -12 -28.5t-9 -24.5l-15 -36l-20 -53q-33 -79 -8 -131q24 -51 88 -51h24v-37h-327v37q57 0 96 33t69 102l510 1249h39zM1518 625q101 -41 165 -61q88 -28 177 -34l-414 961l-326 -795q100 24 198 -3q95 -26 200 -68z" />
    <glyph glyph-name=".notdef" horiz-adv-x="741" 
 />
    <glyph glyph-name="glyph1" horiz-adv-x="0" 
 />
    <glyph glyph-name="glyph1" horiz-adv-x="0" 
 />
    <glyph glyph-name="uni000D" unicode="&#xd;" horiz-adv-x="741" 
 />
    <glyph glyph-name="space" unicode=" " horiz-adv-x="741" 
 />
    <glyph glyph-name="exclam" unicode="!" horiz-adv-x="485" 
d="M231 342q-6 83 -12 206q-10 195 -13 255q-5 89 -13 265q-2 41 -6 122t-6 119q-2 40 -4.5 100.5t-3.5 78.5q-3 71 -3 79q0 36 23 54q21 17 51 17t51 -17q22 -18 22 -54q0 -9 -3 -79q-1 -18 -3.5 -78.5t-4.5 -100.5q-5 -112 -12 -241q-3 -45 -7.5 -133.5t-6.5 -131.5
q-12 -207 -14 -255q-6 -123 -12 -206h-6h-10h-7zM244 160q30 0 55 -19t25 -59t-26 -60t-54 -20q-31 0 -57 20q-25 19 -25 60t25 59q27 19 57 19z" />
    <glyph glyph-name="quotedbl" unicode="&#x22;" horiz-adv-x="608" 
d="M328 1559q0 35 23 57t59 22q51 0 73 -40q23 -41 23 -93q0 -78 -40 -143t-108 -98l-8 16q40 19 64 63q24 45 24 103v16q0 5 -2 19q-9 -4 -28 -4q-36 0 -58 23t-22 59zM111 1280q39 18 63 63q25 47 25 103v16q0 5 -2 19q-9 -4 -29 -4q-36 0 -56 23q-22 25 -22 59t23 57
q22 22 57 22q52 0 74 -40t22 -93q0 -78 -40 -143q-40 -66 -105 -98z" />
    <glyph glyph-name="numbersign" unicode="#" horiz-adv-x="1722" 
d="M365 2l157 600h-420v39h430l101 379h-416v37h426l154 577h41l-152 -577h432l154 577h41l-154 -577h445v-37h-455l-100 -379h440v-39h-449l-159 -600h-43l159 600h-432l-159 -600h-41zM676 1020l-101 -379h433l100 379h-432z" />
    <glyph glyph-name="dollar" unicode="$" horiz-adv-x="1290" 
d="M164 297q46 -94 133 -160q89 -68 192 -90v770q-81 32 -151 77q-66 43 -116 94q-49 50 -74 107q-25 56 -25 113q0 175 98 292q99 118 268 151v178h37v-172q22 1 42 3q13 1 42 1h36q12 0 34 -2v170h39v-174q104 -12 205 -42q100 -30 174 -75l10 -242h-41l-61 131
q-32 64 -91 115q-56 49 -120 64l-12 3q-17 4 -24 5q-5 1 -13.5 2.5t-12.5 1.5q-3 0 -6.5 0.5t-5.5 1.5h-2v-746q100 -29 189 -77q84 -46 146 -106q60 -59 93 -127q33 -69 33 -140q0 -94 -33 -171t-93 -132t-146 -87t-189 -36v-166h-39v166q-13 1 -39 2.5t-38 1.5
q-38 2 -77 6v-176h-37v180q-118 15 -220 42q-98 26 -169 67l-8 241h41q2 -6 14 -32zM1098 1536l-8 -16q0 3 8 16zM719 31q84 2 152 28q68 27 118 72q48 44 76 107q27 62 27 137q0 106 -101 205q-98 96 -272 163v-712zM526 938q71 -31 154 -53v741q-12 1 -38 3q-13 1 -38 1
q-39 0 -78 -6v-686zM526 41q26 -3 78 -7q39 -3 76 -3v725q-29 11 -77 24q-27 7 -77 23v-762zM209 1260q0 -84 75 -163q76 -81 205 -143v662q-127 -28 -204 -123q-76 -94 -76 -233z" />
    <glyph glyph-name="percent" unicode="%" horiz-adv-x="1886" 
d="M762 1227q0 -93 -25 -176q-24 -79 -68 -137q-43 -56 -106 -87q-61 -30 -137 -30q-79 0 -140 29q-64 30 -108 85q-45 55 -69 132q-25 80 -25 169q0 90 25 173q24 79 69 135q46 56 108 86q63 30 140 30q78 0 137 -29q63 -31 106 -84q44 -55 68 -129q25 -78 25 -167z
M186 1233q0 -86 19 -165q17 -73 50 -127q31 -53 78 -81q47 -29 101 -29q104 0 167 99t63 262q0 187 -70 301q-69 113 -184 113q-102 0 -163 -103q-61 -104 -61 -270zM1503 1647l-1079 -1641h-51l1079 1641h51zM1108 434q0 92 25 175q23 77 69 135q45 57 108 87q65 31 138 31
q82 0 144 -29q64 -30 111 -84t71 -132q24 -77 24 -168q0 -97 -24 -176q-23 -77 -71 -134q-47 -56 -111 -86t-144 -30q-77 0 -138 29q-62 30 -108 83q-45 52 -69 130q-25 80 -25 169zM1702 414q0 93 -20 171q-20 77 -54 132t-84 85q-48 29 -108 29q-105 0 -166 -103
q-62 -104 -62 -273q0 -181 69 -290q69 -110 181 -110q111 0 177 99q67 101 67 260z" />
    <glyph glyph-name="ampersand" unicode="&#x26;" horiz-adv-x="1574" 
d="M1155 143q-25 -19 -68 -44q-47 -27 -109 -50q-68 -25 -158 -41q-89 -16 -210 -16q-118 0 -212 30q-96 30 -162 82q-69 53 -106 128q-38 76 -38 165q0 72 31 145q30 70 86 134q59 67 134 118q80 55 175 93q-64 102 -104 197q-39 93 -39 173q0 92 25 163t73 125
q46 51 114 81q67 29 148 29q163 0 263 -80t100 -215q0 -82 -34 -153q-36 -75 -96 -131q-62 -57 -150 -100q-90 -44 -193 -61q54 -80 138 -187q82 -105 169 -208q26 -27 125 -130q92 -96 155 -159q70 66 121 155q49 86 49 204q0 120 -65 212q-66 93 -199 136l8 29
q89 -28 147 -70q62 -45 99 -95q41 -55 58 -109q18 -57 18 -105q0 -65 -25 -129q-23 -60 -59 -111q-32 -46 -71 -85q-42 -42 -56 -54q27 -30 56 -57q17 -16 44 -43q17 -17 39 -37q59 -56 119 -100q51 -37 104 -63q49 -24 94 -33q43 -9 87 -9q34 0 71 6v-18q-47 -6 -63 -8
q-30 -3 -62 -3q-97 0 -199 36q-101 36 -220 132zM461 1309q0 -81 42 -176q45 -100 113 -203q91 17 161 55q75 41 124 94q52 57 79 125q28 72 28 150q0 126 -76 202t-203 76q-123 0 -195 -89q-73 -90 -73 -234zM1133 164q-101 92 -178 172q-85 88 -130 145q-85 102 -165 204
q-83 106 -132 185q-149 -67 -239 -182q-88 -113 -88 -248q0 -93 33 -162q35 -74 97 -125q64 -53 149 -81q89 -29 194 -29q138 0 257 31q112 29 199 88z" />
    <glyph glyph-name="quotesingle" unicode="'" horiz-adv-x="397" 
d="M195 1638q51 0 72 -40q22 -42 22 -93q0 -78 -40 -143t-106 -98l-10 16q40 21 65 66q25 44 25 100q0 11 -1 16t-3 19q-5 -4 -13 -4h-13q-36 0 -58 23t-22 59q0 35 22 57t60 22z" />
    <glyph glyph-name="parenleft" unicode="(" horiz-adv-x="684" 
d="M561 1837q-58 -67 -106 -161q-49 -96 -79 -214q-31 -120 -49 -281q-18 -159 -18 -364q0 -204 18 -363q18 -162 49 -282q30 -118 79 -214q48 -94 106 -161l4 -4l-22 -18l-4 4q-101 119 -164 245q-65 130 -100 257t-49 266q-13 130 -13 270t13 270q14 140 49 267t100 257
q62 123 164 244l4 5l22 -19z" />
    <glyph glyph-name="parenright" unicode=")" horiz-adv-x="657" 
d="M168 1858q101 -119 164 -245q61 -123 100 -257q36 -125 50 -266q14 -140 14 -271q0 -130 -14 -270q-14 -141 -50 -266q-39 -134 -100 -257q-63 -126 -164 -245l-2 -4l-23 18l4 4q58 67 106 161q46 90 79 214q32 120 49 282q16 154 16 363q0 210 -16 364q-17 160 -49 281
q-33 124 -79 214q-48 94 -106 161l-4 4l23 19z" />
    <glyph glyph-name="asterisk" unicode="*" horiz-adv-x="1046" 
d="M930 1323q-111 -11 -186 -33q-74 -22 -120 -68q-47 -47 -69 -121q-24 -79 -31 -186q-11 116 -32 186q-22 74 -69 121q-45 45 -120 68q-73 22 -186 33q108 7 186 31q75 23 120 68q47 47 69 121q21 70 32 186q7 -107 31 -186q22 -74 69 -121q46 -46 120 -68q79 -24 186 -31
z" />
    <glyph glyph-name="plus" unicode="+" horiz-adv-x="1167" 
d="M612 1321v-479h473v-49h-473v-478h-57v478h-473v49h473v479h57z" />
    <glyph glyph-name="comma" unicode="," horiz-adv-x="372" 
d="M180 164q52 0 73 -40t21 -93q0 -79 -40 -144q-40 -66 -105 -98l-10 16q38 21 64 66q26 46 26 100q0 12 -1 17q-2 8 -3 18q-5 -4 -14 -4h-13q-34 0 -57 24q-23 25 -23 58q0 34 23 57t59 23z" />
    <glyph glyph-name="hyphen" unicode="-" horiz-adv-x="1019" 
d="M125 795v53h782v-53h-782z" />
    <glyph glyph-name="period" unicode="." horiz-adv-x="444" 
d="M227 160q31 0 57 -20q25 -19 25 -60q0 -42 -25 -61t-57 -19q-31 0 -56 19q-26 20 -26 61q0 40 26 60t56 20z" />
    <glyph glyph-name="slash" unicode="/" horiz-adv-x="903" 
d="M70 -236l714 2081h43l-714 -2081h-43z" />
    <glyph glyph-name="zero" unicode="0" horiz-adv-x="1441" 
d="M725 1640q164 2 281 -65t197 -181q79 -113 118 -262q39 -148 39 -311q0 -161 -39 -310t-118 -262q-80 -115 -198 -181q-120 -68 -280 -66q-160 -2 -279 66t-198 181q-81 115 -119 262q-39 149 -39 310q0 163 39 311q39 149 118 262q80 115 198 181q118 67 280 65z
M205 821q0 -160 33 -304q34 -148 98 -253q67 -109 163 -173q98 -65 226 -66q128 1 226 66q96 64 163 173q64 105 98 253q33 144 33 304q0 159 -33 303q-34 147 -98 252q-67 109 -163 173q-99 66 -226 67q-127 -1 -226 -67q-96 -64 -163 -173q-64 -105 -98 -252
q-33 -144 -33 -303z" />
    <glyph glyph-name="one" unicode="1" horiz-adv-x="630" 
d="M80 1460q31 6 119 43q76 32 202 125v-174v-1270q0 -65 27 -104t72 -39h22v-41h-358v41h2q61 0 88 33q31 39 31 110v1334q-24 -14 -64 -33q-28 -15 -65 -28q-38 -14 -76 -21v24z" />
    <glyph glyph-name="two" unicode="2" horiz-adv-x="1249" 
d="M1155 311q10 0 20 -1q15 -2 15 1l-76 -311h-1003q20 18 58 53q16 15 61 60q10 10 45 44t59 58l182 182q157 149 252 253q97 106 154 195q53 82 75 161q21 74 21 153q0 97 -32 178q-32 80 -84 137t-121 88q-68 31 -140 31q-77 0 -145 -28q-71 -29 -130 -75
q-60 -47 -113 -107q-49 -56 -95 -121l-17 8q118 200 257 291q138 90 280 90q105 0 193 -35q89 -35 151 -97q64 -64 98 -150q35 -88 35 -189q0 -123 -78 -246q-80 -126 -208 -257q-141 -144 -302 -287q-162 -143 -360 -337l45 58l629 -2q19 0 53 6q37 7 75 26q37 19 80 62
q38 38 66 108z" />
    <glyph glyph-name="three" unicode="3" horiz-adv-x="1247" 
d="M637 930q100 0 190 -27q92 -28 158 -79q69 -54 107 -128q38 -75 38 -176q0 -113 -48 -203q-47 -87 -128 -158q-78 -68 -183 -118t-212 -80q-69 -19 -144 -32q-51 -9 -122 -17q-59 -7 -89 -8q-10 0 -20.5 -0.5t-16 -1t-7.5 -0.5v28h2q161 6 321 46q164 41 293 130
q104 72 169 177q63 102 63 231q0 84 -31 155q-29 67 -86 116q-58 50 -130 73q-78 25 -163 25q-34 0 -61 -4q-30 -5 -56 -11q-20 -5 -40 -11l-15 -5v27l18 6q7 3 21 7t24 7q92 34 171 80q82 48 132 97q55 53 84 109q29 55 29 113q0 92 -49 151q-50 61 -128 86q-79 25 -178 15
q-102 -11 -200 -59q-58 -28 -114 -73q-58 -46 -95 -93l-2 -2l-16 14l2 2q53 68 119 122q64 52 135 94q71 41 141 62q72 21 137 21q79 0 143 -19q68 -20 116 -58q50 -40 79 -97q29 -58 29 -133q0 -109 -113 -217q-105 -104 -280 -184h6z" />
    <glyph glyph-name="four" unicode="4" horiz-adv-x="1429" 
d="M1022 373v-187q0 -64 27 -105q27 -40 73 -40h23v-39h-363v39h2q59 0 88 35q26 29 31 98v199h-809v24l2 2q5 6 47 67q15 21 51 70.5t54 75.5q90 127 141 199q71 100 160 224q30 42 84 117t76 105q19 26 48 66.5t51 71.5t41 56q95 129 102 138q43 56 46 58h2h23v-1219h309
v-55h-309zM903 428v1022q-44 -59 -116 -160q-49 -69 -136 -188q-62 -85 -143 -200q-58 -82 -136 -191q-25 -35 -66 -92.5t-51 -71.5q-55 -77 -83 -119h731z" />
    <glyph glyph-name="five" unicode="5" horiz-adv-x="1120" 
d="M258 1513q-7 -117 -19 -231q-13 -123 -24 -219h199q274 0 444 -135q74 -60 114 -136q39 -74 50 -160q11 -83 -6 -164q-16 -80 -58 -151q-38 -64 -93 -116q-51 -49 -119 -91q-65 -41 -136 -69q-70 -28 -143 -49q-181 -47 -387 -53h-4v28h4q188 5 337 47q152 43 262 117
q109 73 169 175q59 100 59 222q0 184 -151 301q-151 115 -398 115h-192v4l4 38q2 15 10 97q2 19 7 64t8 71q10 100 14 151q2 31 10 147q4 61 4 120v2h600q56 0 97 19q37 17 62 42q24 23 34 43l10 19h35l-2 -4q-4 -14 -22 -59l-26 -70l-26 -65q-8 -20 -18 -50h-709z" />
    <glyph glyph-name="six" unicode="6" horiz-adv-x="1329" 
d="M1237 532q6 -126 -34 -224q-41 -100 -116 -168t-182 -104q-106 -36 -233 -36q-123 0 -226 53q-102 52 -175 150q-71 95 -112 231q-40 133 -40 301q0 203 78 377q79 172 221 299q121 106 254 163t248 81q111 23 194 28q66 4 92 7v-25h-2q-216 -7 -393 -77
q-176 -69 -300 -187t-192 -280q-67 -159 -67 -351v-14q12 78 59 136q43 53 114 90q65 34 147 49q86 16 163 16q112 0 206 -38q91 -37 159 -106q64 -66 101 -162q36 -95 36 -209zM260 604l-5 27q-6 31 -7 59q-10 -123 17 -257q26 -128 102 -232q61 -87 141 -126
q81 -40 174 -40q102 0 186 35q83 35 140 99q58 65 86 156q28 90 22 203q0 100 -25 187q-25 85 -77 153q-51 66 -125 105q-73 39 -172 39q-56 0 -105 -7q-54 -8 -103 -24q-53 -18 -94 -43q-44 -27 -77 -68q-34 -43 -46 -89q-11 -43 -11 -84q0 -37 6 -63t6 -30h-33z" />
    <glyph glyph-name="seven" unicode="7" horiz-adv-x="1263" 
d="M543 4v-2h-131l706 1509h-799q-59 0 -91 -15t-47 -35q-16 -21 -20 -40q-4 -18 -9 -30h-33l24 241h1051z" />
    <glyph glyph-name="eight" unicode="8" horiz-adv-x="1298" 
d="M1087 702q125 -119 125 -260q0 -202 -151 -323q-153 -123 -402 -123q-124 0 -226 30q-103 30 -174 85q-73 56 -113 133t-40 172q0 158 127 260q121 98 322 121q-178 51 -283 171q-104 119 -104 273q0 99 38 180q39 82 103 133q68 54 155 82q90 29 191 29q106 0 196 -26
t155 -76q133 -102 133 -269q0 -79 -28 -151q-27 -70 -77 -124t-116 -91q-67 -37 -148 -54q200 -60 317 -172zM666 27q94 0 172 25t138 74q56 46 92 118q34 68 34 159q0 66 -34 125q-36 63 -96 110q-64 50 -151 87t-194 55q-3 0 -9 1t-8 2q-12 2 -18 5q-87 -11 -148 -36
q-67 -27 -118 -72t-80 -107q-29 -63 -29 -139q0 -92 33 -167q34 -77 91 -128q59 -53 141 -83q80 -29 184 -29zM737 883q71 16 126 50q55 35 95 87q39 51 60 117q20 63 20 139q0 83 -28 148q-30 68 -81 114q-56 49 -124 72q-72 24 -158 24q-84 0 -153 -24t-119 -71t-77 -111
q-28 -67 -28 -142q0 -76 31 -141q30 -63 83 -113q51 -48 121 -83q65 -32 146 -48q15 -3 43 -9t43 -9z" />
    <glyph glyph-name="nine" unicode="9" horiz-adv-x="1359" 
d="M698 1638q123 0 226 -53q101 -52 174 -149q69 -92 111 -232q40 -133 40 -301q0 -210 -79 -381q-80 -173 -222 -296q-143 -124 -343 -196q-204 -74 -439 -81h-4v24h4q206 7 386 75q176 66 300 183q127 119 195 278q69 161 69 357v15q-12 -76 -57 -133q-60 -78 -169 -118
q-108 -40 -257 -40q-115 0 -205 37q-96 39 -159 104q-65 67 -102 163q-36 94 -36 212q-8 181 77 306q86 127 236 183q111 43 254 43zM1108 1032q5 -12 6 -26q2 -22 6 -60q11 129 -16 258q-28 134 -100 234q-62 85 -144 125q-84 41 -174 41q-102 0 -185 -36
q-84 -37 -141 -101q-59 -67 -85 -155q-27 -91 -21 -202q0 -96 26 -186q25 -88 75 -154q48 -63 124 -104q73 -39 172 -39q56 0 106 7q60 8 104 23q53 18 94 43q46 28 75 68q34 43 46 88q11 41 11 84q0 37 -5 64t-5 28h31z" />
    <glyph glyph-name="colon" unicode=":" horiz-adv-x="444" 
d="M227 160q31 0 57 -20q25 -19 25 -60q0 -42 -25 -61t-57 -19q-31 0 -56 19q-26 20 -26 61q0 40 26 60t56 20zM227 1102q31 0 57 -20q25 -19 25 -60t-25 -60q-26 -20 -57 -20q-30 0 -56 20t-26 60t26 60t56 20z" />
    <glyph glyph-name="semicolon" unicode=";" horiz-adv-x="376" 
d="M180 164q52 0 73 -40t21 -93q0 -79 -40 -144q-40 -66 -105 -98l-10 16q38 21 64 66q26 46 26 100q0 12 -1 17q-2 8 -3 18q-5 -4 -14 -4h-13q-34 0 -57 24q-23 25 -23 58q0 34 23 57t59 23zM195 1102q30 0 56 -20q25 -19 25 -60t-25 -60q-26 -20 -56 -20q-31 0 -57 20
q-25 19 -25 60t25 60q26 20 57 20z" />
    <glyph glyph-name="less" unicode="&#x3c;" horiz-adv-x="1216" 
d="M80 784l-12 4v56q4 0 6 2t6 2l1075 536v-57l-1040 -510l1040 -512v-57z" />
    <glyph glyph-name="equal" unicode="=" horiz-adv-x="1200" 
d="M143 649v51h910v-51h-910zM143 954v52h910v-52h-910z" />
    <glyph glyph-name="greater" unicode="&#x3e;" horiz-adv-x="1214" 
d="M68 305l1040 512l-1040 510v57l1075 -536q4 0 6 -2t6 -2v-56l-12 -4l-1075 -536v57z" />
    <glyph glyph-name="question" unicode="?" horiz-adv-x="1175" 
d="M524 160q31 0 56 -20q24 -20 24 -60q0 -42 -24 -61q-23 -19 -56 -19q-31 0 -56 19q-26 20 -26 61q0 40 26 60t56 20zM565 1649q122 0 214 -34q96 -36 157 -92q63 -58 96 -137q33 -78 33 -167q0 -90 -30 -156t-76 -118q-48 -54 -103 -96q-57 -43 -114 -93
q-54 -46 -104 -108q-49 -60 -77 -138q-2 -5 -4 -13.5t-6 -22t-7 -24.5q-12 -42 -12 -106h-24v8q0 114 32 199q31 81 80 151q49 69 104 124q54 54 104 115q49 60 80 126q32 69 32 158q0 88 -38 158q-37 68 -99 115t-140 69t-161 22q-86 0 -151 -24q-61 -23 -109 -58
q-47 -35 -72 -65q-28 -35 -37 -47l-27 18q58 86 130 136t135 70q69 22 117 26q47 4 77 4z" />
    <glyph glyph-name="at" unicode="@" horiz-adv-x="2752" 
d="M1726 473q-18 -73 -18 -135q0 -167 104 -262q105 -96 293 -96q107 0 195 61q86 59 150 173q63 112 98 268q35 158 35 349q0 226 -86 413q-85 185 -245 319q-158 133 -381 205q-225 73 -493 73q-271 0 -492 -88q-222 -89 -380 -248q-159 -160 -244 -385q-86 -226 -86 -499
q0 -276 88 -500q88 -225 248 -386q159 -161 384 -249q224 -88 499 -88q204 0 395 41q188 40 343 117q158 78 270 180q115 105 175 233h37q-62 -133 -183 -245q-120 -111 -280 -191q-159 -79 -353 -123q-191 -43 -404 -43q-296 0 -536 90q-242 91 -412 255t-265 396
q-94 230 -94 513q0 282 93 513t262 394q170 164 407 254t528 90q292 0 529 -75q239 -76 407 -211q170 -137 263 -329q94 -194 94 -426q0 -201 -42 -364t-119 -281q-76 -116 -186 -180q-108 -63 -239 -63q-224 0 -350 101q-127 102 -133 275q-67 -146 -189 -232
q-121 -85 -268 -85q-102 0 -183 34q-85 36 -142 94q-59 60 -90 145q-32 87 -32 190q0 161 51 302q49 136 141 232q94 98 219 150q129 53 284 53q136 0 224 -70q90 -71 112 -194l57 238h106zM1710 864q0 140 -88 222q-89 83 -231 83q-128 0 -232 -49q-103 -49 -179 -138
t-116 -215q-41 -128 -41 -280q0 -93 28 -174q26 -76 77 -133q48 -54 119 -85q67 -29 155 -29q73 0 137 29t121 83q53 50 95 128q40 75 63 167z" />
    <glyph glyph-name="A" unicode="A" horiz-adv-x="1716" 
d="M383 0h-328v39q58 0 97 33t69 102l602 1466h39h-2l627 -1456q30 -69 71 -107t97 -38v-39h-387v39h24q41 0 64 21q22 21 22 59q0 13 -3 28q-3 17 -10 34q-12 31 -20 48q-15 33 -32 74q-119 2 -224 36q-108 36 -203 72q-98 37 -189 69q-93 32 -181 32q-70 0 -127 -20
q-62 -150 -71 -171q-1 -3 -38 -97q-15 -38 -17 -50q-3 -17 -3 -35q0 -45 26 -73q26 -27 72 -27h25v-39zM801 1493l-395 -963q51 15 110 15q88 0 183 -31q76 -25 187 -69q85 -34 197 -70q100 -32 215 -37z" />
    <glyph glyph-name="B" unicode="B" 
d="M1380 469q0 -107 -39 -194t-109 -148q-69 -60 -170 -94q-99 -33 -222 -33h-729v39q60 0 90 35q30 34 30 112v1266q0 68 -27 108q-26 39 -75 39h-18v39h665q108 0 197 -24q84 -23 150 -70q63 -45 97 -109q33 -62 33 -143q0 -146 -108 -244q-109 -98 -297 -128
q117 -16 221 -55q99 -37 168 -96q69 -58 106 -134q37 -75 37 -166zM356 928h190q75 0 97 1t49 1h45q182 11 286 107q105 97 105 255q0 144 -95 230t-257 86h-420v-680zM827 31q94 0 172 30q76 29 134 89q56 58 86 138q30 81 30 181q0 99 -43 179q-44 82 -122 138
q-83 60 -190 90q-109 31 -249 31h-289v-876h471z" />
    <glyph glyph-name="C" unicode="C" horiz-adv-x="1708" 
d="M936 -16q-196 0 -349 59q-160 62 -269 169q-112 111 -173 262q-61 152 -61 341q0 187 61 339q61 151 173 262q109 107 269 169q156 60 349 60q86 0 183 -11q103 -12 179 -29q81 -19 162 -47q67 -24 135 -61l11 -231h-41q-1 3 -7.5 14t-9.5 18q-2 5 -7 16t-7 17
q-50 103 -146 174q-98 72 -210 90q0 2 -35 7q-34 4 -79 6q-16 1 -43.5 2.5t-39.5 1.5q-11 0 -21.5 0.5t-16 1t-7.5 0.5q-158 0 -292 -58q-133 -57 -226 -161q-95 -106 -146 -252q-51 -147 -51 -328t51 -328q51 -148 146 -253t226 -162q134 -58 292 -58q27 0 81 2q27 1 81 7
q149 17 266 91q119 75 170 183q2 6 7 17t7 16q3 7 9.5 18t7.5 14h41l-11 -231q-63 -34 -135 -60q-81 -28 -162 -47q-85 -19 -179 -30q-89 -10 -183 -10zM1595 1495q-1 -3 -4 -6q-2 -2 -2 -6z" />
    <glyph glyph-name="D" unicode="D" horiz-adv-x="1683" 
d="M764 1638q192 0 345 -58q155 -59 264 -166q110 -109 170 -258q61 -152 61 -335t-53 -336t-146 -259t-228 -167q-131 -59 -296 -59h-772v39q59 0 91 35q31 34 31 112v1266q0 70 -28 110t-76 40h-18v36h655zM881 33q136 0 245 56q111 57 190 160q78 101 122 249
q43 144 43 323q0 177 -51 322t-146 249q-93 101 -226 159q-132 57 -294 57h-410v-1575h527z" />
    <glyph glyph-name="E" unicode="E" 
d="M1360 250q-5 -25 -17 -85.5t-18 -86.5q-5 -23 -16 -78h-1200v39q59 0 91 35q31 34 31 112v1266q0 68 -28 108q-27 39 -76 39h-18v39h1185q0 -67 4 -126q6 -89 7 -126h-33l-15 35q-42 88 -129 137q-89 50 -192 50h-582v-621h512q90 0 158 28q65 27 82 75l8 18h33v-291h-33
l-8 21q-21 53 -85 86q-63 32 -155 32h-512v-925h600q105 0 200 50t151 136l24 33h31z" />
    <glyph glyph-name="F" unicode="F" horiz-adv-x="1445" 
d="M504 0h-391v39q60 0 90 35q30 34 30 112v1266q0 68 -27 108q-26 39 -75 39h-18v39h1259q0 -60 3 -126q4 -90 5 -126h-32l-15 35q-42 88 -129 137q-89 50 -192 50h-654v-619h490q88 0 156 28q64 26 81 75l9 20h32v-293h-32l-9 23q-18 51 -84 84q-64 32 -153 32h-490v-772
q0 -78 39 -112q40 -35 107 -35v-39z" />
    <glyph glyph-name="G" unicode="G" horiz-adv-x="1744" 
d="M907 -10q-189 0 -338 59q-153 61 -260 169q-108 110 -168 262q-59 150 -59 341q0 189 59 339q60 152 168 262q107 108 260 169q151 60 338 60q81 0 174 -11q96 -11 172 -29q80 -19 159 -47q67 -24 134 -61l10 -231h-40q-23 63 -60 116q-40 58 -86 98q-53 46 -108 74
q-60 30 -123 42q-114 18 -232 18q-155 0 -282 -57t-217 -162q-91 -106 -140 -252t-49 -328q0 -181 49 -327q50 -148 140 -253q92 -107 217 -163q130 -58 282 -58q139 0 283 27q141 26 256 74v606q0 68 -28 110q-27 40 -75 40h-20v38h356v-38q-60 0 -90 -36t-30 -114v-590
q-56 -33 -134 -60q-84 -30 -160 -47q-84 -19 -178 -30q-87 -10 -180 -10z" />
    <glyph glyph-name="H" unicode="H" horiz-adv-x="1722" 
d="M434 0h-368v39q60 0 90 36t30 113v1264q0 70 -27 110t-75 40h-18v38h368v-38q-60 0 -91 -36q-32 -37 -32 -114v-909q49 75 144 122q91 45 208 77q122 34 235 56q127 25 228 55q106 31 185 77q78 45 106 121v401q0 70 -27 110t-75 40h-21v38h369v-38q-60 0 -90 -36
q-31 -37 -31 -114v-1264q0 -67 28 -109q27 -40 75 -40h18v-39h-369v39q60 0 91 36q32 37 32 113v795q-51 -69 -143 -110q-93 -41 -208 -70q-122 -30 -236 -53q-111 -22 -227 -60q-102 -34 -184 -86q-79 -51 -108 -135v-281q0 -67 28 -109q27 -40 75 -40h20v-39z" />
    <glyph glyph-name="I" unicode="I" horiz-adv-x="589" 
d="M479 0h-368v39q59 0 91 35q31 34 31 112v1266q0 68 -27 108q-26 39 -75 39h-20v39h368v-39q-60 0 -90 -34q-31 -36 -31 -113v-1266q0 -65 28 -107q27 -40 75 -40h18v-39z" />
    <glyph glyph-name="J" unicode="J" horiz-adv-x="1005" 
d="M801 621q0 -168 -23 -289t-71 -195t-128 -109q-78 -34 -192 -34q-102 0 -173 39t-87 104q-2 6 -2 13q0 36 51 36q45 0 55 -49q12 -53 65 -85t122 -32q70 0 118 27q49 27 78 86q30 60 45 154t15 227v938q0 51 -14 82t-31 45q-15 13 -38 18q-22 5 -30 5h-8v36h369v-36
q-61 0 -91 -36t-30 -114v-831z" />
    <glyph glyph-name="K" unicode="K" horiz-adv-x="1626" 
d="M360 186q0 -67 28 -109q27 -40 75 -40h20v-37h-368v37q60 0 90 36q31 37 31 113v1266q0 66 -28 108q-26 39 -75 39h-18v39h368v-39q-60 0 -91 -34q-32 -35 -32 -113v-573v-693zM360 879l711 610q78 73 78 100q0 4 -5 7t-22 3v39h246v-39q-120 0 -293 -147h-2l-596 -516
l447 -438q152 -151 237 -229q100 -92 172 -151q71 -58 119 -84q47 -26 80 -26v-24h-51q-59 0 -119 23q-65 25 -141 76q-78 53 -174 135t-218 200z" />
    <glyph glyph-name="L" unicode="L" horiz-adv-x="1427" 
d="M477 1599q-60 0 -90 -34q-31 -36 -31 -113v-1421h619q24 0 65 7q44 8 93 33t97 73t81 130l20 -4l17 -4l16 -4q-11 -46 -25 -115q-11 -46 -18 -88q-7 -41 -12 -59h-1200v37q59 0 91 36q31 35 31 113v1266q0 68 -27 108q-26 39 -75 39h-20v39h368v-39z" />
    <glyph glyph-name="M" unicode="M" horiz-adv-x="1978" 
d="M416 39v-10v-29h-338v39q54 0 88 31q33 30 39 100l47 1282h-2q2 2 2 8q0 65 -26 103q-24 36 -70 36h-21v39h221l633 -1491l604 1491h232v-39q-54 0 -81 -27q-28 -28 -32 -93l57 -1293q4 -77 36 -112t91 -35v-39h-366v39h20q46 0 70 37q25 39 25 102v8q-10 336 -24 677
q-18 443 -26 679l-632 -1554h-31q-101 238 -321 744q-164 376 -320 745l-47 -1282q4 -72 42 -114t101 -42h29z" />
    <glyph glyph-name="N" unicode="N" horiz-adv-x="1751" 
d="M272 186q0 -65 28 -107q27 -40 75 -40h20v-39h-282v39q59 0 91 35t32 112v1266q0 69 -29 110q-28 40 -76 40h-18v36h235l1133 -1456v1270q0 68 -28 110q-27 40 -75 40h-18v36h280v-36q-60 0 -90 -36t-30 -114v-1475h-41l-56 74l-1151 1477v-1342z" />
    <glyph glyph-name="O" unicode="O" horiz-adv-x="1783" 
d="M1712 825q0 -169 -52 -319t-155 -265q-103 -116 -255 -181q-153 -66 -353 -66q-202 0 -355 66q-152 65 -255 181q-103 115 -155 265t-52 319q0 170 52 319t155 264q102 114 255 180q155 67 355 67q198 0 353 -67q153 -66 255 -180q103 -115 155 -264t52 -319zM897 25
q169 0 294 64t211 174q84 107 128 255q43 144 43 307q0 165 -43 307q-44 145 -128 253q-87 112 -211 175q-125 64 -294 64q-168 0 -295 -64q-126 -64 -213 -175q-86 -110 -129 -253q-43 -142 -43 -307q0 -163 43 -307q44 -146 129 -255t213 -174q127 -64 295 -64z" />
    <glyph glyph-name="P" unicode="P" horiz-adv-x="1464" 
d="M1393 1075q0 -126 -46 -227q-47 -103 -129 -176t-199 -114q-114 -40 -255 -40h-402v-332q0 -64 29 -107q29 -42 76 -42h20v-37h-378v37h20q47 0 76 42q28 41 28 107v1266q0 67 -28 107t-76 40h-20v39h753q117 0 216 -41q98 -41 167 -114q71 -76 109 -178q39 -105 39 -230
zM764 549q109 0 202 38q89 37 155 107q65 70 101 167q35 95 35 214q0 120 -28 217q-29 99 -81 168q-53 70 -125 109t-161 39h-500v-1059h402z" />
    <glyph glyph-name="Q" unicode="Q" horiz-adv-x="1779" 
d="M1962 -119q-70 -85 -187 -134q-120 -50 -243 -50q-201 0 -369 81q-169 81 -305 216q-194 6 -341 75q-146 69 -245 181q-98 112 -148 261q-50 150 -50 314q0 169 51 319q50 148 154 264q102 114 255 180q155 67 355 67t355 -67q153 -66 255 -180q104 -116 154 -264
q51 -150 51 -319q0 -167 -51 -317q-50 -147 -152 -263q-101 -114 -251 -182q-150 -67 -349 -69q105 -99 261 -156t384 -57q65 0 135 8q60 7 119 22t92 33q39 21 60 45zM209 825q0 -163 43 -307q44 -146 129 -255t213 -174q127 -64 295 -64q169 0 294 64t211 174
q84 107 128 255q43 144 43 307q0 165 -43 307q-44 145 -128 253q-87 112 -211 175q-125 64 -294 64q-168 0 -295 -64q-126 -64 -213 -175q-86 -110 -129 -253q-43 -142 -43 -307z" />
    <glyph glyph-name="R" unicode="R" horiz-adv-x="1572" 
d="M1483 23v-25h-72q-36 0 -66 6q-29 6 -61 25q-27 16 -67 53q-37 34 -90 93q-74 83 -125 143q-27 32 -175 204q-20 -2 -29 -2h-32h-399v-334q0 -66 28 -106q29 -41 76 -41h21v-39h-379v39h18q49 0 78 41t29 106v1266q0 68 -29 109t-78 41h-18v36h751q117 0 217 -41
q99 -41 168 -114q71 -75 109 -177q39 -104 39 -229q0 -99 -31 -189q-29 -85 -88 -156q-57 -68 -137 -117q-79 -48 -180 -72q174 -207 248 -291q90 -102 146 -156q50 -48 77 -62q22 -11 45 -11h6zM766 551q109 0 202 38q88 36 156 107q66 69 102 167q36 97 36 214t-29 216
q-29 98 -81 167q-54 71 -126 109q-74 39 -162 39h-497v-1057h399z" />
    <glyph glyph-name="S" unicode="S" horiz-adv-x="1421" 
d="M233 1348q0 -61 48 -106q46 -43 125 -81q72 -35 177 -68q90 -29 203 -69q114 -41 204 -83q98 -46 177 -110t125 -148q47 -86 47 -202q0 -91 -45 -180t-123 -158q-79 -70 -182 -111q-105 -42 -223 -42q-98 0 -204 8q-82 6 -187 24q-91 15 -160 37q-68 21 -123 52l-8 239
h41l31 -61q47 -96 134 -161t191 -87q71 -10 142 -15q92 -6 143 -6q97 0 187 35t157 93t107 133q38 72 38 153q0 100 -47 174q-46 73 -126 130q-78 56 -178 100q-71 31 -203 79q-153 55 -202 74q-103 39 -178 80q-81 44 -126 98q-48 57 -48 129q0 98 44 166t117 109t164 59
q97 19 185 19q66 0 149 -10q79 -10 144 -25q72 -17 130 -39q60 -23 106 -47q-10 -16 -10 -21l10 19l8 -242h-41q-16 28 -30 65q-16 42 -29 66q-16 35 -51 75q-31 36 -82 64q-53 30 -127 47q-72 17 -181 17q-77 0 -153 -12q-71 -11 -135 -43q-58 -29 -96 -84
q-36 -53 -36 -133z" />
    <glyph glyph-name="T" unicode="T" horiz-adv-x="1665" 
d="M1559 1624q2 0 7 -38q1 -11 3 -24.5t4.5 -31.5t3.5 -29q9 -67 11 -89q5 -47 5 -48h-39l-30 59q-47 85 -127 135t-162 50h-338v-1422q0 -65 28 -107q27 -40 74 -40h19v-39h-371v39q59 0 91 35t32 112v1422h-338q-82 0 -162 -50t-127 -135l-30 -59h-39q0 4 5 49q2 20 11 88
q1 5 5 37.5t6 47.5q5 38 8 38l2 14h1445z" />
    <glyph glyph-name="U" unicode="U" horiz-adv-x="1810" 
d="M1395 1638h321v-39h-22q-23 0 -43 -14q-21 -15 -37 -38q-16 -24 -27 -54q-10 -29 -10 -63v-904q0 -104 -45 -200q-45 -97 -129 -170q-84 -74 -207 -117q-122 -43 -276 -43q-160 0 -288 48q-127 48 -216 131q-88 82 -135 193q-48 113 -48 232v850q0 60 -31 104
q-32 45 -73 45h-18v39h368v-39h-18q-39 0 -69 -40q-29 -40 -34 -97l2 -889q0 -107 40 -202q41 -97 114 -170q74 -73 180 -117q105 -43 242 -43q141 0 253 41t189 109q79 70 119 159q41 91 41 189l2 903q-5 64 -40 110q-36 47 -83 47h-22v39z" />
    <glyph glyph-name="V" unicode="V" horiz-adv-x="1724" 
d="M1339 1638h328v-39q-58 0 -96 -32q-40 -34 -70 -103l-602 -1464h-37l-626 1454q-31 71 -71 108t-97 37v39h387v-39h-25q-42 0 -63 -20q-23 -21 -23 -57q0 -32 16 -70l562 -1307l522 1274q18 44 18 82q0 48 -25 73t-73 25h-25v39z" />
    <glyph glyph-name="W" unicode="W" horiz-adv-x="2469" 
d="M2081 1638h327v-36q-56 0 -94 -34q-39 -34 -69 -104l-603 -1464h-38l-363 846l-348 -846h-39l-625 1456q-30 68 -71 107q-40 39 -97 39v36h388v-36h-25q-40 0 -64 -22q-22 -21 -22 -58t16 -70l561 -1305l306 744l-242 565q-29 66 -72 107q-41 39 -96 39v36h387v-36h-24
q-40 0 -64 -22q-23 -21 -23 -58q0 -25 17 -70l178 -414l156 381q18 45 18 82q0 48 -26 74q-27 27 -72 27h-27v36h328v-36q-56 0 -94 -34q-40 -36 -70 -104l-195 -471l365 -846l522 1272q19 47 19 82q0 47 -27 74t-72 27h-26v36z" />
    <glyph glyph-name="X" unicode="X" horiz-adv-x="1640" 
d="M1376 184q54 -70 107 -109q52 -38 94 -38v-39h-367v39h23q51 0 51 41q0 27 -31 78l-469 614l-407 -569q-49 -71 -49 -115q0 -49 57 -49h16q5 0 7 -3q2 -4 2 -16v-20h-328v39q122 0 229 147l453 615l-498 651h-2q-56 71 -107 111q-48 38 -94 38v37h365v-37h-20
q-54 0 -54 -40q0 -31 31 -78l459 -602l436 598q25 45 25 71q0 51 -66 51q-5 0 -7 -1t-7 -1q-8 0 -8 21v18h331v-37q-41 0 -71 -11q-33 -12 -69 -42q-34 -28 -80 -84q-40 -48 -107 -136q-90 -118 -150 -201q-45 -62 -205 -275l508 -666h2z" />
    <glyph glyph-name="Y" unicode="Y" horiz-adv-x="1640" 
d="M1264 1638h299v-39q-105 0 -199 -147q-16 -24 -27 -42q-1 -2 -10 -18t-16 -27q-9 -15 -44 -75q-6 -10 -32 -54.5t-45 -77.5q-65 -112 -127 -216q-110 -185 -193 -326v-430q0 -65 29 -106t76 -41h18v-39h-368v39h18q47 0 76 41t29 106v383l-498 883q-47 73 -90 110t-90 37
v39h364v-39h-20q-49 0 -49 -45q0 -41 32 -92l461 -798l449 759q43 73 43 119q0 57 -62 57h-16q-8 0 -8 21v18z" />
    <glyph glyph-name="Z" unicode="Z" horiz-adv-x="1478" 
d="M1366 276l20 -4l17 -4q10 -2 16 -2l-55 -266h-1319l1184 1608h-709q-37 0 -86 -13q-44 -12 -88 -33q-33 -16 -83 -53q-40 -30 -70 -67l-23 -29h-39l66 211l4 14h1194l-1184 -1605h821q92 0 180 57q87 56 138 150z" />
    <glyph glyph-name="bracketleft" unicode="[" horiz-adv-x="520" 
d="M94 -145v1931h346v-31h-252v-1872h252v-28h-346z" />
    <glyph glyph-name="backslash" unicode="\" horiz-adv-x="919" 
d="M791 -236l-715 2081h43l715 -2081h-43z" />
    <glyph glyph-name="bracketright" unicode="]" horiz-adv-x="520" 
d="M94 -145v28h252v1872h-252v31h346v-1931h-346z" />
    <glyph glyph-name="asciicircum" unicode="^" horiz-adv-x="944" 
d="M788 1253q-15 15 -40 35q-14 11 -43 35.5t-43 35.5q-11 9 -46.5 37.5t-55.5 45.5q-69 57 -85 71q-7 -6 -23.5 -19t-32 -26t-30.5 -26q-34 -29 -100 -83q-77 -63 -87 -71q-35 -28 -42 -35l-2 -2l-19 19l4 2q44 53 104.5 127.5t67.5 82.5q29 36 93 109q29 34 41 42
q10 7 20 7h4h2h6q9 0 20 -7q13 -8 42 -43q9 -10 39.5 -46t52.5 -63q9 -11 172 -209l2 -2l-16 -19z" />
    <glyph glyph-name="underscore" unicode="_" horiz-adv-x="1435" 
d="M92 49h1254v-49h-1254v49z" />
    <glyph glyph-name="grave" unicode="`" horiz-adv-x="520" 
d="M436 1735q-150 125 -210 173q-20 16 -110 91q-36 30 -42 42t-6 25q0 18 14 36q15 20 43 20h2q9 0 20 -6t41 -41q49 -56 93 -110q142 -174 174 -212l4 -2l-19 -18z" />
    <glyph glyph-name="a" unicode="a" horiz-adv-x="1716" 
d="M383 0h-328v39q58 0 97 33t69 102l602 1466h39h-2l627 -1456q30 -69 71 -107t97 -38v-39h-387v39h24q41 0 64 21q22 21 22 59q0 13 -3 28q-3 17 -10 34q-12 31 -20 48q-15 33 -32 74q-119 2 -224 36q-108 36 -203 72q-98 37 -189 69q-93 32 -181 32q-70 0 -127 -20
q-62 -150 -71 -171q-1 -3 -38 -97q-15 -38 -17 -50q-3 -17 -3 -35q0 -45 26 -73q26 -27 72 -27h25v-39zM801 1493l-395 -963q51 15 110 15q88 0 183 -31q76 -25 187 -69q85 -34 197 -70q100 -32 215 -37z" />
    <glyph glyph-name="b" unicode="b" 
d="M1380 469q0 -107 -39 -194t-109 -148q-69 -60 -170 -94q-99 -33 -222 -33h-729v39q60 0 90 35q30 34 30 112v1266q0 68 -27 108q-26 39 -75 39h-18v39h665q108 0 197 -24q84 -23 150 -70q63 -45 97 -109q33 -62 33 -143q0 -146 -108 -244q-109 -98 -297 -128
q117 -16 221 -55q99 -37 168 -96q69 -58 106 -134q37 -75 37 -166zM356 928h190q75 0 97 1t49 1h45q182 11 286 107q105 97 105 255q0 144 -95 230t-257 86h-420v-680zM827 31q94 0 172 30q76 29 134 89q56 58 86 138q30 81 30 181q0 99 -43 179q-44 82 -122 138
q-83 60 -190 90q-109 31 -249 31h-289v-876h471z" />
    <glyph glyph-name="c" unicode="c" horiz-adv-x="1708" 
d="M936 -16q-196 0 -349 59q-160 62 -269 169q-112 111 -173 262q-61 152 -61 341q0 187 61 339q61 151 173 262q109 107 269 169q156 60 349 60q86 0 183 -11q103 -12 179 -29q81 -19 162 -47q67 -24 135 -61l11 -231h-41q-1 3 -7.5 14t-9.5 18q-2 5 -7 16t-7 17
q-50 103 -146 174q-98 72 -210 90q0 2 -35 7q-34 4 -79 6q-16 1 -43.5 2.5t-39.5 1.5q-11 0 -21.5 0.5t-16 1t-7.5 0.5q-158 0 -292 -58q-133 -57 -226 -161q-95 -106 -146 -252q-51 -147 -51 -328t51 -328q51 -148 146 -253t226 -162q134 -58 292 -58q27 0 81 2q27 1 81 7
q149 17 266 91q119 75 170 183q2 6 7 17t7 16q3 7 9.5 18t7.5 14h41l-11 -231q-63 -34 -135 -60q-81 -28 -162 -47q-85 -19 -179 -30q-89 -10 -183 -10zM1595 1495q-1 -3 -4 -6q-2 -2 -2 -6z" />
    <glyph glyph-name="d" unicode="d" horiz-adv-x="1683" 
d="M764 1638q192 0 345 -58q155 -59 264 -166q110 -109 170 -258q61 -152 61 -335t-53 -336t-146 -259t-228 -167q-131 -59 -296 -59h-772v39q59 0 91 35q31 34 31 112v1266q0 70 -28 110t-76 40h-18v36h655zM881 33q136 0 245 56q111 57 190 160q78 101 122 249
q43 144 43 323q0 177 -51 322t-146 249q-93 101 -226 159q-132 57 -294 57h-410v-1575h527z" />
    <glyph glyph-name="e" unicode="e" 
d="M1360 250q-5 -25 -17 -85.5t-18 -86.5q-5 -23 -16 -78h-1200v39q59 0 91 35q31 34 31 112v1266q0 68 -28 108q-27 39 -76 39h-18v39h1185q0 -67 4 -126q6 -89 7 -126h-33l-15 35q-42 88 -129 137q-89 50 -192 50h-582v-621h512q90 0 158 28q65 27 82 75l8 18h33v-291h-33
l-8 21q-21 53 -85 86q-63 32 -155 32h-512v-925h600q105 0 200 50t151 136l24 33h31z" />
    <glyph glyph-name="f" unicode="f" horiz-adv-x="1445" 
d="M504 0h-391v39q60 0 90 35q30 34 30 112v1266q0 68 -27 108q-26 39 -75 39h-18v39h1259q0 -60 3 -126q4 -90 5 -126h-32l-15 35q-42 88 -129 137q-89 50 -192 50h-654v-619h490q88 0 156 28q64 26 81 75l9 20h32v-293h-32l-9 23q-18 51 -84 84q-64 32 -153 32h-490v-772
q0 -78 39 -112q40 -35 107 -35v-39z" />
    <glyph glyph-name="g" unicode="g" horiz-adv-x="1744" 
d="M907 -10q-189 0 -338 59q-153 61 -260 169q-108 110 -168 262q-59 150 -59 341q0 189 59 339q60 152 168 262q107 108 260 169q151 60 338 60q81 0 174 -11q96 -11 172 -29q80 -19 159 -47q67 -24 134 -61l10 -231h-40q-23 63 -60 116q-40 58 -86 98q-53 46 -108 74
q-60 30 -123 42q-114 18 -232 18q-155 0 -282 -57t-217 -162q-91 -106 -140 -252t-49 -328q0 -181 49 -327q50 -148 140 -253q92 -107 217 -163q130 -58 282 -58q139 0 283 27q141 26 256 74v606q0 68 -28 110q-27 40 -75 40h-20v38h356v-38q-60 0 -90 -36t-30 -114v-590
q-56 -33 -134 -60q-84 -30 -160 -47q-84 -19 -178 -30q-87 -10 -180 -10z" />
    <glyph glyph-name="h" unicode="h" horiz-adv-x="1722" 
d="M434 0h-368v39q60 0 90 36t30 113v1264q0 70 -27 110t-75 40h-18v38h368v-38q-60 0 -91 -36q-32 -37 -32 -114v-909q49 75 144 122q91 45 208 77q122 34 235 56q127 25 228 55q106 31 185 77q78 45 106 121v401q0 70 -27 110t-75 40h-21v38h369v-38q-60 0 -90 -36
q-31 -37 -31 -114v-1264q0 -67 28 -109q27 -40 75 -40h18v-39h-369v39q60 0 91 36q32 37 32 113v795q-51 -69 -143 -110q-93 -41 -208 -70q-122 -30 -236 -53q-111 -22 -227 -60q-102 -34 -184 -86q-79 -51 -108 -135v-281q0 -67 28 -109q27 -40 75 -40h20v-39z" />
    <glyph glyph-name="i" unicode="i" horiz-adv-x="589" 
d="M479 0h-368v39q59 0 91 35q31 34 31 112v1266q0 68 -27 108q-26 39 -75 39h-20v39h368v-39q-60 0 -90 -34q-31 -36 -31 -113v-1266q0 -65 28 -107q27 -40 75 -40h18v-39z" />
    <glyph glyph-name="j" unicode="j" horiz-adv-x="1005" 
d="M801 621q0 -168 -23 -289t-71 -195t-128 -109q-78 -34 -192 -34q-102 0 -173 39t-87 104q-2 6 -2 13q0 36 51 36q45 0 55 -49q12 -53 65 -85t122 -32q70 0 118 27q49 27 78 86q30 60 45 154t15 227v938q0 51 -14 82t-31 45q-15 13 -38 18q-22 5 -30 5h-8v36h369v-36
q-61 0 -91 -36t-30 -114v-831z" />
    <glyph glyph-name="k" unicode="k" horiz-adv-x="1626" 
d="M360 186q0 -67 28 -109q27 -40 75 -40h20v-37h-368v37q60 0 90 36q31 37 31 113v1266q0 66 -28 108q-26 39 -75 39h-18v39h368v-39q-60 0 -91 -34q-32 -35 -32 -113v-573v-693zM360 879l711 610q78 73 78 100q0 4 -5 7t-22 3v39h246v-39q-120 0 -293 -147h-2l-596 -516
l447 -438q152 -151 237 -229q100 -92 172 -151q71 -58 119 -84q47 -26 80 -26v-24h-51q-59 0 -119 23q-65 25 -141 76q-78 53 -174 135t-218 200z" />
    <glyph glyph-name="l" unicode="l" horiz-adv-x="1427" 
d="M477 1599q-60 0 -90 -34q-31 -36 -31 -113v-1421h619q24 0 65 7q44 8 93 33t97 73t81 130l20 -4l17 -4l16 -4q-11 -46 -25 -115q-11 -46 -18 -88q-7 -41 -12 -59h-1200v37q59 0 91 36q31 35 31 113v1266q0 68 -27 108q-26 39 -75 39h-20v39h368v-39z" />
    <glyph glyph-name="m" unicode="m" horiz-adv-x="1978" 
d="M416 39v-10v-29h-338v39q54 0 88 31q33 30 39 100l47 1282h-2q2 2 2 8q0 65 -26 103q-24 36 -70 36h-21v39h221l633 -1491l604 1491h232v-39q-54 0 -81 -27q-28 -28 -32 -93l57 -1293q4 -77 36 -112t91 -35v-39h-366v39h20q46 0 70 37q25 39 25 102v8q-10 336 -24 677
q-18 443 -26 679l-632 -1554h-31q-101 238 -321 744q-164 376 -320 745l-47 -1282q4 -72 42 -114t101 -42h29z" />
    <glyph glyph-name="n" unicode="n" horiz-adv-x="1751" 
d="M272 186q0 -65 28 -107q27 -40 75 -40h20v-39h-282v39q59 0 91 35t32 112v1266q0 69 -29 110q-28 40 -76 40h-18v36h235l1133 -1456v1270q0 68 -28 110q-27 40 -75 40h-18v36h280v-36q-60 0 -90 -36t-30 -114v-1475h-41l-56 74l-1151 1477v-1342z" />
    <glyph glyph-name="o" unicode="o" horiz-adv-x="1783" 
d="M1712 825q0 -169 -52 -319t-155 -265q-103 -116 -255 -181q-153 -66 -353 -66q-202 0 -355 66q-152 65 -255 181q-103 115 -155 265t-52 319q0 170 52 319t155 264q102 114 255 180q155 67 355 67q198 0 353 -67q153 -66 255 -180q103 -115 155 -264t52 -319zM897 25
q169 0 294 64t211 174q84 107 128 255q43 144 43 307q0 165 -43 307q-44 145 -128 253q-87 112 -211 175q-125 64 -294 64q-168 0 -295 -64q-126 -64 -213 -175q-86 -110 -129 -253q-43 -142 -43 -307q0 -163 43 -307q44 -146 129 -255t213 -174q127 -64 295 -64z" />
    <glyph glyph-name="p" unicode="p" horiz-adv-x="1464" 
d="M1393 1075q0 -126 -46 -227q-47 -103 -129 -176t-199 -114q-114 -40 -255 -40h-402v-332q0 -64 29 -107q29 -42 76 -42h20v-37h-378v37h20q47 0 76 42q28 41 28 107v1266q0 67 -28 107t-76 40h-20v39h753q117 0 216 -41q98 -41 167 -114q71 -76 109 -178q39 -105 39 -230
zM764 549q109 0 202 38q89 37 155 107q65 70 101 167q35 95 35 214q0 120 -28 217q-29 99 -81 168q-53 70 -125 109t-161 39h-500v-1059h402z" />
    <glyph glyph-name="q" unicode="q" horiz-adv-x="1779" 
d="M1962 -119q-70 -85 -187 -134q-120 -50 -243 -50q-201 0 -369 81q-169 81 -305 216q-194 6 -341 75q-146 69 -245 181q-98 112 -148 261q-50 150 -50 314q0 169 51 319q50 148 154 264q102 114 255 180q155 67 355 67t355 -67q153 -66 255 -180q104 -116 154 -264
q51 -150 51 -319q0 -167 -51 -317q-50 -147 -152 -263q-101 -114 -251 -182q-150 -67 -349 -69q105 -99 261 -156t384 -57q65 0 135 8q60 7 119 22t92 33q39 21 60 45zM209 825q0 -163 43 -307q44 -146 129 -255t213 -174q127 -64 295 -64q169 0 294 64t211 174
q84 107 128 255q43 144 43 307q0 165 -43 307q-44 145 -128 253q-87 112 -211 175q-125 64 -294 64q-168 0 -295 -64q-126 -64 -213 -175q-86 -110 -129 -253q-43 -142 -43 -307z" />
    <glyph glyph-name="r" unicode="r" horiz-adv-x="1572" 
d="M1483 23v-25h-72q-36 0 -66 6q-29 6 -61 25q-27 16 -67 53q-37 34 -90 93q-74 83 -125 143q-27 32 -175 204q-20 -2 -29 -2h-32h-399v-334q0 -66 28 -106q29 -41 76 -41h21v-39h-379v39h18q49 0 78 41t29 106v1266q0 68 -29 109t-78 41h-18v36h751q117 0 217 -41
q99 -41 168 -114q71 -75 109 -177q39 -104 39 -229q0 -99 -31 -189q-29 -85 -88 -156q-57 -68 -137 -117q-79 -48 -180 -72q174 -207 248 -291q90 -102 146 -156q50 -48 77 -62q22 -11 45 -11h6zM766 551q109 0 202 38q88 36 156 107q66 69 102 167q36 97 36 214t-29 216
q-29 98 -81 167q-54 71 -126 109q-74 39 -162 39h-497v-1057h399z" />
    <glyph glyph-name="s" unicode="s" horiz-adv-x="1421" 
d="M233 1348q0 -61 48 -106q46 -43 125 -81q72 -35 177 -68q90 -29 203 -69q114 -41 204 -83q98 -46 177 -110t125 -148q47 -86 47 -202q0 -91 -45 -180t-123 -158q-79 -70 -182 -111q-105 -42 -223 -42q-98 0 -204 8q-82 6 -187 24q-91 15 -160 37q-68 21 -123 52l-8 239
h41l31 -61q47 -96 134 -161t191 -87q71 -10 142 -15q92 -6 143 -6q97 0 187 35t157 93t107 133q38 72 38 153q0 100 -47 174q-46 73 -126 130q-78 56 -178 100q-71 31 -203 79q-153 55 -202 74q-103 39 -178 80q-81 44 -126 98q-48 57 -48 129q0 98 44 166t117 109t164 59
q97 19 185 19q66 0 149 -10q79 -10 144 -25q72 -17 130 -39q60 -23 106 -47q-10 -16 -10 -21l10 19l8 -242h-41q-16 28 -30 65q-16 42 -29 66q-16 35 -51 75q-31 36 -82 64q-53 30 -127 47q-72 17 -181 17q-77 0 -153 -12q-71 -11 -135 -43q-58 -29 -96 -84
q-36 -53 -36 -133z" />
    <glyph glyph-name="t" unicode="t" horiz-adv-x="1665" 
d="M1559 1624q2 0 7 -38q1 -11 3 -24.5t4.5 -31.5t3.5 -29q9 -67 11 -89q5 -47 5 -48h-39l-30 59q-47 85 -127 135t-162 50h-338v-1422q0 -65 28 -107q27 -40 74 -40h19v-39h-371v39q59 0 91 35t32 112v1422h-338q-82 0 -162 -50t-127 -135l-30 -59h-39q0 4 5 49q2 20 11 88
q1 5 5 37.5t6 47.5q5 38 8 38l2 14h1445z" />
    <glyph glyph-name="u" unicode="u" horiz-adv-x="1810" 
d="M1395 1638h321v-39h-22q-23 0 -43 -14q-21 -15 -37 -38q-16 -24 -27 -54q-10 -29 -10 -63v-904q0 -104 -45 -200q-45 -97 -129 -170q-84 -74 -207 -117q-122 -43 -276 -43q-160 0 -288 48q-127 48 -216 131q-88 82 -135 193q-48 113 -48 232v850q0 60 -31 104
q-32 45 -73 45h-18v39h368v-39h-18q-39 0 -69 -40q-29 -40 -34 -97l2 -889q0 -107 40 -202q41 -97 114 -170q74 -73 180 -117q105 -43 242 -43q141 0 253 41t189 109q79 70 119 159q41 91 41 189l2 903q-5 64 -40 110q-36 47 -83 47h-22v39z" />
    <glyph glyph-name="v" unicode="v" horiz-adv-x="1724" 
d="M1339 1638h328v-39q-58 0 -96 -32q-40 -34 -70 -103l-602 -1464h-37l-626 1454q-31 71 -71 108t-97 37v39h387v-39h-25q-42 0 -63 -20q-23 -21 -23 -57q0 -32 16 -70l562 -1307l522 1274q18 44 18 82q0 48 -25 73t-73 25h-25v39z" />
    <glyph glyph-name="w" unicode="w" horiz-adv-x="2469" 
d="M2081 1638h327v-36q-56 0 -94 -34q-39 -34 -69 -104l-603 -1464h-38l-363 846l-348 -846h-39l-625 1456q-30 68 -71 107q-40 39 -97 39v36h388v-36h-25q-40 0 -64 -22q-22 -21 -22 -58t16 -70l561 -1305l306 744l-242 565q-29 66 -72 107q-41 39 -96 39v36h387v-36h-24
q-40 0 -64 -22q-23 -21 -23 -58q0 -25 17 -70l178 -414l156 381q18 45 18 82q0 48 -26 74q-27 27 -72 27h-27v36h328v-36q-56 0 -94 -34q-40 -36 -70 -104l-195 -471l365 -846l522 1272q19 47 19 82q0 47 -27 74t-72 27h-26v36z" />
    <glyph glyph-name="x" unicode="x" horiz-adv-x="1640" 
d="M1376 184q54 -70 107 -109q52 -38 94 -38v-39h-367v39h23q51 0 51 41q0 27 -31 78l-469 614l-407 -569q-49 -71 -49 -115q0 -49 57 -49h16q5 0 7 -3q2 -4 2 -16v-20h-328v39q122 0 229 147l453 615l-498 651h-2q-56 71 -107 111q-48 38 -94 38v37h365v-37h-20
q-54 0 -54 -40q0 -31 31 -78l459 -602l436 598q25 45 25 71q0 51 -66 51q-5 0 -7 -1t-7 -1q-8 0 -8 21v18h331v-37q-41 0 -71 -11q-33 -12 -69 -42q-34 -28 -80 -84q-40 -48 -107 -136q-90 -118 -150 -201q-45 -62 -205 -275l508 -666h2z" />
    <glyph glyph-name="y" unicode="y" horiz-adv-x="1640" 
d="M1264 1638h299v-39q-105 0 -199 -147q-16 -24 -27 -42q-1 -2 -10 -18t-16 -27q-9 -15 -44 -75q-6 -10 -32 -54.5t-45 -77.5q-65 -112 -127 -216q-110 -185 -193 -326v-430q0 -65 29 -106t76 -41h18v-39h-368v39h18q47 0 76 41t29 106v383l-498 883q-47 73 -90 110t-90 37
v39h364v-39h-20q-49 0 -49 -45q0 -41 32 -92l461 -798l449 759q43 73 43 119q0 57 -62 57h-16q-8 0 -8 21v18z" />
    <glyph glyph-name="z" unicode="z" horiz-adv-x="1478" 
d="M1366 276l20 -4l17 -4q10 -2 16 -2l-55 -266h-1319l1184 1608h-709q-37 0 -86 -13q-44 -12 -88 -33q-33 -16 -83 -53q-40 -30 -70 -67l-23 -29h-39l66 211l4 14h1194l-1184 -1605h821q92 0 180 57q87 56 138 150z" />
    <glyph glyph-name="braceleft" unicode="{" horiz-adv-x="724" 
d="M215 1452q0 152 92 244t246 92h98v-27h-76q-67 0 -114 -23q-48 -23 -83 -66q-33 -40 -51 -98q-18 -57 -18 -122v-395q0 -98 -44 -159t-111 -77q68 -17 111 -73q44 -58 44 -152l-2 -408q0 -61 19 -121q18 -58 52 -99q33 -40 84 -65q50 -24 113 -24h76v-26h-98
q-154 0 -246 92t-92 243v469q0 53 -17 81q-18 30 -42 45q-25 15 -52 20q-24 4 -43 4h-2v27h2q74 0 114 40t40 119v459z" />
    <glyph glyph-name="bar" unicode="|" horiz-adv-x="278" 
d="M164 1788v-1938h-49v1938h49z" />
    <glyph glyph-name="braceright" unicode="}" horiz-adv-x="714" 
d="M496 993q0 -79 40 -119t113 -40h2v-27h-2q-19 0 -43 -4q-26 -4 -51 -20q-24 -15 -42 -45q-17 -28 -17 -81v-469q0 -150 -93 -243q-92 -92 -245 -92h-99v26h76q65 0 114 24q51 25 84 65q34 41 52 99q18 57 18 121l-2 408q0 94 44 152q43 56 112 73q-68 17 -112 77
q-44 61 -44 159v395q0 68 -17 122q-18 58 -51 98q-35 42 -84 66q-47 23 -114 23h-76v27h99q153 0 245 -92q93 -93 93 -244v-459z" />
    <glyph glyph-name="asciitilde" unicode="~" horiz-adv-x="782" 
d="M653 903h23v-6q-7 -89 -53 -127q-44 -37 -93 -37q-40 0 -81 18q-10 4 -38.5 16.5t-44.5 19.5q-28 13 -82 37q-41 18 -77 18h-2q-1 0 -3.5 -0.5t-7 -1t-7.5 -0.5q-10 -1 -28 -12q-16 -10 -30 -29q-14 -20 -16 -58v-4h-25v4q2 30 11 62q9 31 27 56q19 27 43 41q25 15 60 15
q40 0 81 -16q47 -18 84 -37q34 -17 83 -37q39 -16 80 -16q53 0 73 31q18 28 23 59v4z" />
    <glyph glyph-name="exclamdown" unicode="&#xa1;" horiz-adv-x="485" 
d="M248 1298h6q6 -85 12 -205q2 -48 14 -255q2 -43 6.5 -132t7.5 -134q8 -132 12 -240q2 -40 4.5 -100.5t3.5 -78.5q3 -71 3 -79q0 -37 -22 -55q-21 -17 -51 -17t-51 17q-23 18 -23 55q0 8 3 79q1 18 3.5 78.5t4.5 100.5q2 38 6 118t6 122q8 181 13 266q3 60 13 255
q6 120 12 205h7h10zM244 1481q-32 0 -57 18t-25 60q0 41 25 60t57 19q29 0 54 -19q26 -20 26 -60q0 -41 -25 -60q-24 -18 -55 -18z" />
    <glyph glyph-name="cent" unicode="&#xa2;" horiz-adv-x="1214" 
d="M711 2q-32 -2 -51 -2h-52q-109 0 -198 43q-91 44 -155 123q-65 80 -99 190q-35 113 -35 246q0 145 42 265q41 118 119 208q75 87 186 140q110 53 243 63v168h39v-168q5 0 6 1t6 1q140 0 234 -70q94 -69 104 -190q0 -49 -51 -49q-23 0 -39 16q-18 18 -19 41
q-10 100 -76 160q-65 59 -165 59v-1177q124 1 220 14q90 12 115 35l9 -15q-42 -33 -136 -61q-89 -26 -208 -37v-174h-39v170zM240 647q0 -137 33 -239q35 -107 96 -182t148 -115q88 -41 194 -41v1177q-107 -8 -194 -54t-148 -124q-62 -79 -96 -185q-33 -103 -33 -237z" />
    <glyph glyph-name="sterling" unicode="&#xa3;" horiz-adv-x="1271" 
d="M1190 233q0 -4 -7 -33q-15 -63 -17 -72q-14 -63 -17 -78q-8 -39 -12 -50h-934q0 -2 -5 3l-10 9q-6 4 -14 15q47 40 83 77q46 47 82 101q37 55 63 119t26 133q0 97 -24 176q-27 89 -56 158h-248v36h232q-49 119 -76 195q-35 97 -35 209q0 125 58 206q56 78 138 122
q77 41 169 57q83 14 151 14q18 0 38 -1q29 -1 70 -9q29 -5 85 -24q45 -15 84 -45q40 -30 66 -73q28 -45 34 -110q0 -53 -55 -53q-27 0 -44 16q-18 16 -22 43q-1 14 -10 59q-7 33 -36 74q-25 35 -78 64q-48 26 -134 26q-33 0 -90 -7q-64 -8 -125 -41q-65 -35 -110 -104
q-48 -73 -48 -198q0 -59 12 -112q17 -73 28 -104q27 -73 38 -100q17 -41 39 -104h441v-36h-428q13 -40 26 -105q10 -50 10 -113q0 -147 -67 -274q-66 -126 -219 -266h585q10 0 55 5q41 5 88 25q48 21 97 64q50 44 84 119z" />
    <glyph glyph-name="yen" unicode="&#xa5;" horiz-adv-x="1640" 
d="M311 1444q-83 147 -168 147v39h363v-39h-19q-57 0 -57 -53q0 -28 21 -74l407 -749l408 712q28 55 28 101q0 63 -67 63h-15q-4 0 -6 3q-2 4 -2 16v20h299v-39q-106 0 -190 -147q-15 -26 -93 -160.5t-119 -206.5q-39 -68 -111.5 -193t-100.5 -173h459v-39h-469v-199h469
v-37h-469v-248q0 -66 27 -107q27 -40 75 -40h18v-37h-368v37q60 0 90 35q31 36 31 112h2v248h-463v37h463l2 162l-21 37h-444v39h424l-402 733h-2z" />
    <glyph glyph-name="dieresis" unicode="&#xa8;" horiz-adv-x="589" 
d="M213 1866q0 -38 -23 -56q-22 -18 -51 -18q-28 0 -52 18t-24 56q0 37 24 55t52 18q29 0 51 -18q23 -18 23 -55zM530 1866q0 -39 -23 -56q-24 -18 -52 -18q-29 0 -52 18q-22 18 -22 56q0 37 22 55q23 18 52 18q28 0 52 -18q23 -17 23 -55z" />
    <glyph glyph-name="copyright" unicode="&#xa9;" horiz-adv-x="1464" 
d="M735 1638q140 0 263 -53q122 -53 212 -144q92 -93 142 -213q51 -121 51 -257q0 -139 -52 -259q-53 -122 -143 -212q-92 -92 -212 -144q-123 -53 -261 -53q-140 0 -263 53q-120 52 -212 144q-90 90 -141 212t-51 259q0 140 53 263q53 122 143 212t212 141t259 51zM735 344
q133 0 246 49q116 50 199 135q83 84 133 200q49 113 49 243q0 133 -49 246q-49 114 -135 198q-84 83 -200 133q-113 49 -243 49q-134 0 -247 -49q-111 -48 -198 -135q-84 -84 -133 -200q-48 -114 -48 -242q0 -133 49 -246q50 -116 135 -199q84 -83 200 -133q113 -49 242 -49
zM739 1331q-89 0 -153 -32q-65 -33 -106 -82t-61 -118q-20 -68 -20 -134t20 -132q20 -65 60 -116q41 -51 107 -83q67 -32 157 -32h33q83 5 150 46q67 42 96 106q1 2 8 18q6 14 10 21h31l-6 -134q-47 -25 -92 -41q-43 -15 -90 -25q-38 -8 -81 -13q-42 -5 -63 -5
q-73 0 -150 23q-73 22 -135 70q-61 47 -98 120t-37 177q0 103 37 176q38 75 97 122q60 48 134 70q77 23 152 23q79 0 169 -23q93 -24 155 -59l2 -2l6 -133h-31q-23 46 -29 57q-20 37 -50 64q-32 29 -87 51q-50 20 -135 20z" />
    <glyph glyph-name="guillemotleft" unicode="&#xab;" horiz-adv-x="1863" 
d="M80 784l-12 4v56q4 0 6 2t6 2l1075 536v-57l-1040 -510l1040 -512v-57zM721 784l-12 4v56q4 0 6 2t6 2l1075 536v-57l-1040 -510l1040 -512v-57z" />
    <glyph glyph-name="registered" unicode="&#xae;" horiz-adv-x="1458" 
d="M1069 618l6 3v-23h-37q-28 0 -46 7q-19 7 -45 32q-18 17 -66 72q-8 9 -46 52.5t-65 74.5h-25h-178v-148q0 -27 13 -45q12 -16 30 -16h15v-27h-181v27h13q19 0 31 16q12 17 12 45v576q0 28 -12 45q-12 16 -31 16h-13v27h347q71 0 118 -27q50 -29 76 -65q28 -38 40 -84
q11 -41 11 -82q0 -74 -27 -120q-26 -45 -63 -74q-34 -27 -66 -39q-27 -10 -38 -13q36 -43 110 -128q34 -39 64 -69q22 -23 33 -27q14 -6 18 -6h2zM745 858q99 0 159 65q61 66 61 171q0 59 -16 105q-15 42 -40 74q-23 29 -56 43q-30 13 -62 13h-224v-471h178zM731 1638
q140 0 263 -53q121 -52 212 -145q92 -93 142 -213q51 -122 51 -256q0 -139 -52 -259q-52 -122 -143 -212q-92 -92 -212 -144q-123 -53 -261 -53q-140 0 -263 53q-120 52 -212 144q-90 90 -141 212q-52 124 -52 259q0 136 54 261q53 122 143 212q89 89 212 142q120 52 259 52
zM731 344q133 0 246 49q116 50 199 135q83 84 133 200q49 113 49 243q0 133 -49 246q-49 114 -135 198q-84 83 -200 133q-113 49 -243 49q-134 0 -247 -49q-111 -48 -198 -135q-84 -84 -133 -200t-49 -242q0 -131 50 -246q50 -116 135 -199t199 -133q113 -49 243 -49z" />
    <glyph glyph-name="macron" unicode="&#xaf;" horiz-adv-x="624" 
d="M61 1823v32h504v-32h-504z" />
    <glyph glyph-name="acute" unicode="&#xb4;" horiz-adv-x="518" 
d="M86 1733l-18 18l4 2q116 141 173 212q53 67 91 110q31 35 42 41q12 6 21 6h2q28 0 43 -20t15 -36q0 -13 -6 -25t-42 -42q-66 -55 -111 -91q-60 -48 -210 -173z" />
    <glyph glyph-name="periodcentered" unicode="&#xb7;" horiz-adv-x="448" 
d="M227 903q32 0 57 -19t25 -61q0 -41 -25 -60q-26 -20 -57 -20q-30 0 -56 20t-26 60q0 41 26 61q25 19 56 19z" />
    <glyph glyph-name="cedilla" unicode="&#xb8;" horiz-adv-x="505" 
d="M238 -178q21 0 61 -8q34 -7 73 -33q35 -23 60 -67t25 -109q0 -47 -20 -85q-21 -39 -50 -66q-31 -28 -72 -43t-84 -15q-60 0 -108 26q-50 27 -80 74l31 21q22 -31 45 -47q24 -16 47 -24q22 -7 38 -9q3 0 6.5 -0.5t5.5 -1t4 -0.5h3q76 0 106 50q29 48 29 124q0 63 -15 99
q-14 35 -35 52q-19 16 -38 21q-16 4 -24 4q-20 0 -43 -3q-25 -3 -51 -13l-2 -2l-21 28l123 166l31 -22l-90 -121q14 2 22 3t23 1z" />
    <glyph glyph-name="guillemotright" unicode="&#xbb;" horiz-adv-x="1863" 
d="M709 248v57l1040 512l-1040 510v57l1075 -536q4 0 6 -2t6 -2v-56l-12 -4zM68 248v57l1040 512l-1040 510v57l1075 -536q4 0 6 -2t6 -2v-56l-12 -4z" />
    <glyph glyph-name="questiondown" unicode="&#xbf;" horiz-adv-x="1175" 
d="M524 1489q-31 0 -56 19q-26 20 -26 61q0 40 26 60t56 20q31 0 56 -20q24 -19 24 -60t-24 -61q-23 -19 -56 -19zM565 0q-30 0 -77 4q-48 4 -117 26q-66 21 -135 69q-70 49 -130 137l27 18q9 -12 37 -47q27 -33 72 -66q46 -33 109 -57q67 -25 151 -25q80 0 161 23
q78 22 140 69q63 48 99 114q38 70 38 159t-32 158q-31 66 -80 126q-46 56 -104 114q-55 55 -104 124q-49 68 -80 152q-32 85 -32 198v9h24q0 -64 12 -106q3 -11 7 -24.5t6 -22t4 -13.5q29 -80 77 -139q48 -58 104 -107q57 -49 114 -93q53 -40 103 -97q47 -53 76 -117
q30 -66 30 -156t-33 -168q-33 -77 -96 -136q-61 -56 -157 -92q-92 -34 -214 -34z" />
    <glyph glyph-name="Agrave" unicode="&#xc0;" horiz-adv-x="1716" 
d="M383 0h-328v39q58 0 97 33t69 102l602 1466h39h-2l627 -1456q30 -69 71 -107t97 -38v-39h-387v39h24q41 0 64 21q22 21 22 59q0 13 -3 28q-3 17 -10 34q-12 31 -20 48q-15 33 -32 74q-119 2 -224 36q-108 36 -203 72q-98 37 -189 69q-93 32 -181 32q-70 0 -127 -20
q-62 -150 -71 -171q-1 -3 -38 -97q-15 -38 -17 -50q-3 -17 -3 -35q0 -45 26 -73q26 -27 72 -27h25v-39zM801 1493l-395 -963q51 15 110 15q88 0 183 -31q76 -25 187 -69q85 -34 197 -70q100 -32 215 -37zM1030 1735q-150 125 -210 173q-20 16 -110 91q-36 30 -42 42t-6 25
q0 18 14 36q15 20 43 20h2q9 0 20 -6t41 -41q32 -36 92 -110q22 -27 81.5 -99t93.5 -113l4 -2l-19 -18z" />
    <glyph glyph-name="Aacute" unicode="&#xc1;" horiz-adv-x="1716" 
d="M383 0h-328v39q58 0 97 33t69 102l602 1466h39h-2l627 -1456q30 -69 71 -107t97 -38v-39h-387v39h24q41 0 64 21q22 21 22 59q0 13 -3 28q-3 17 -10 34q-12 31 -20 48q-15 33 -32 74q-119 2 -224 36q-108 36 -203 72q-98 37 -189 69q-93 32 -181 32q-70 0 -127 -20
q-62 -150 -71 -171q-1 -3 -38 -97q-15 -38 -17 -50q-3 -17 -3 -35q0 -45 26 -73q26 -27 72 -27h25v-39zM801 1493l-395 -963q51 15 110 15q88 0 183 -31q76 -25 187 -69q85 -34 197 -70q100 -32 215 -37zM680 1733l-18 18l4 2q116 141 173 212q53 67 91 110q31 35 42 41
q12 6 21 6h2q28 0 43 -20t15 -36q0 -13 -6 -25t-42 -42q-66 -55 -111 -91q-60 -48 -210 -173z" />
    <glyph glyph-name="Acircumflex" unicode="&#xc2;" horiz-adv-x="1716" 
d="M383 0h-328v39q58 0 97 33t69 102l602 1466h39h-2l627 -1456q30 -69 71 -107t97 -38v-39h-387v39h24q41 0 64 21q22 21 22 59q0 13 -3 28q-3 17 -10 34q-12 31 -20 48q-15 33 -32 74q-119 2 -224 36q-108 36 -203 72q-98 37 -189 69q-93 32 -181 32q-70 0 -127 -20
q-62 -150 -71 -171q-1 -3 -38 -97q-15 -38 -17 -50q-3 -17 -3 -35q0 -45 26 -73q26 -27 72 -27h25v-39zM801 1493l-395 -963q51 15 110 15q88 0 183 -31q76 -25 187 -69q85 -34 197 -70q100 -32 215 -37zM1171 1735q-6 6 -41 34q-14 11 -43 35.5t-43 35.5q-66 54 -101 83
q-40 33 -85 72q-50 -42 -86 -72q-34 -29 -100 -83q-77 -63 -87 -71q-40 -32 -42 -34l-2 -2l-19 18l4 2q44 53 104.5 127.5t67.5 82.5q44 54 93 110q31 35 40 42q10 7 21 7h4h2h6q9 0 20 -7q13 -8 42 -43q10 -12 92 -110q9 -11 172 -209l2 -2l-16 -18z" />
    <glyph glyph-name="Atilde" unicode="&#xc3;" horiz-adv-x="1716" 
d="M383 0h-328v39q58 0 97 33t69 102l602 1466h39h-2l627 -1456q30 -69 71 -107t97 -38v-39h-387v39h24q41 0 64 21q22 21 22 59q0 13 -3 28q-3 17 -10 34q-12 31 -20 48q-15 33 -32 74q-119 2 -224 36q-108 36 -203 72q-98 37 -189 69q-93 32 -181 32q-70 0 -127 -20
q-62 -150 -71 -171q-1 -3 -38 -97q-15 -38 -17 -50q-3 -17 -3 -35q0 -45 26 -73q26 -27 72 -27h25v-39zM801 1493l-395 -963q51 15 110 15q88 0 183 -31q76 -25 187 -69q85 -34 197 -70q100 -32 215 -37zM1128 1931h23v-6q-7 -89 -53 -127q-44 -37 -92 -37q-42 0 -82 18
q-77 34 -83 37q-16 7 -45 19.5t-37 16.5q-40 18 -77 18h-2q-1 0 -3.5 -0.5t-6 -1t-7.5 -0.5q-13 -1 -29 -11q-15 -9 -30 -30q-14 -20 -16 -58v-4h-25v4q2 30 11 62q9 31 27 56q19 27 43 41q27 16 61 16q37 0 80 -17q47 -18 84 -37q34 -17 83 -37q39 -16 80 -16q53 0 73 31
q18 28 23 59v4z" />
    <glyph glyph-name="Adieresis" unicode="&#xc4;" horiz-adv-x="1716" 
d="M383 0h-328v39q58 0 97 33t69 102l602 1466h39h-2l627 -1456q30 -69 71 -107t97 -38v-39h-387v39h24q41 0 64 21q22 21 22 59q0 13 -3 28q-3 17 -10 34q-12 31 -20 48q-15 33 -32 74q-119 2 -224 36q-108 36 -203 72q-98 37 -189 69q-93 32 -181 32q-70 0 -127 -20
q-62 -150 -71 -171q-1 -3 -38 -97q-15 -38 -17 -50q-3 -17 -3 -35q0 -45 26 -73q26 -27 72 -27h25v-39zM801 1493l-395 -963q51 15 110 15q88 0 183 -31q76 -25 187 -69q85 -34 197 -70q100 -32 215 -37zM774 1866q0 -38 -22 -56q-23 -18 -52 -18q-28 0 -52 18
q-23 17 -23 56q0 38 23 55q24 18 52 18q30 0 52 -18t22 -55zM1092 1866q0 -38 -24 -56t-52 -18t-51 18t-23 56q0 37 23 55t51 18t52 -18t24 -55z" />
    <glyph glyph-name="Aring" unicode="&#xc5;" horiz-adv-x="1716" 
d="M383 0h-328v39q58 0 97 33t69 102l602 1466h39h-2l627 -1456q30 -69 71 -107t97 -38v-39h-387v39h24q41 0 64 21q22 21 22 59q0 13 -3 28q-3 17 -10 34q-12 31 -20 48q-15 33 -32 74q-119 2 -224 36q-108 36 -203 72q-98 37 -189 69q-93 32 -181 32q-70 0 -127 -20
q-62 -150 -71 -171q-1 -3 -38 -97q-15 -38 -17 -50q-3 -17 -3 -35q0 -45 26 -73q26 -27 72 -27h25v-39zM801 1493l-395 -963q51 15 110 15q88 0 183 -31q76 -25 187 -69q85 -34 197 -70q100 -32 215 -37zM840 1731q-49 0 -89 17q-43 18 -74 48q-32 30 -50 71q-19 43 -19 85
q0 43 19 86q17 39 50 70q31 30 74 48q40 17 89 17q51 0 91 -17q44 -19 73 -48q32 -32 49 -70q18 -40 18 -86q0 -44 -18 -85q-18 -40 -49 -71q-29 -29 -73 -48q-40 -17 -91 -17zM840 2146q-29 0 -56 -15q-26 -15 -46 -42q-17 -23 -30 -63q-12 -36 -12 -74q0 -79 42 -136
t102 -57q59 0 101 57t42 136q0 80 -42 137t-101 57z" />
    <glyph glyph-name="AE" unicode="&#xc6;" horiz-adv-x="2312" 
d="M2204 250q-1 -4 -6.5 -28.5t-8.5 -40.5q-3 -15 -8.5 -41.5t-7.5 -35.5q-4 -25 -19 -90l-4 -14h-1198v37q60 0 90 36q31 37 31 113v154q-63 16 -112 34q-67 25 -107 42q-44 18 -99 37q-37 13 -96 26q-101 22 -182 -8l-153 -256q-47 -84 -37 -130q11 -48 71 -48h21v-37
h-328v37q58 0 111 33q56 35 100 108l803 1335q-11 41 -35 64q-23 22 -59 22h-19v39h1186l10 -249h-32l-17 30q-41 86 -128 137q-89 52 -191 52h-582v-621h512q90 0 157 28q64 27 83 75l6 18h35v-291h-35l-6 21q-22 54 -86 85q-65 31 -154 31h-512v-923h598q104 0 201 50
q94 49 151 136l21 33h35zM866 444q6 -2 43.5 -15.5t58.5 -21.5q56 -21 105 -32v1077v8l-571 -948q91 21 181 -5q89 -25 183 -63z" />
    <glyph glyph-name="Ccedilla" unicode="&#xc7;" horiz-adv-x="1708" 
d="M899 -129q22 0 62 -8q32 -6 72 -33q37 -24 61 -67q24 -42 24 -109q0 -48 -19 -85q-21 -39 -50 -66q-31 -28 -72 -43t-84 -15q-59 0 -109 27q-49 27 -79 73l30 21q22 -31 45 -47q24 -16 47 -24q22 -7 38 -9q4 0 8.5 -0.5t7.5 -1t4 -0.5q75 0 105 50q30 49 30 124
q0 63 -15 99t-35 53q-18 15 -38 20q-16 4 -25 4q-21 0 -43 -3q-25 -3 -51 -13l-2 -2l-20 28l104 142q-185 6 -334 67t-255 170q-105 108 -164 259q-58 149 -58 333q0 187 61 339q61 151 173 262q109 107 269 169q156 60 349 60q86 0 183 -11q103 -12 179 -29q81 -19 162 -47
q67 -24 135 -61l11 -231h-41q-1 3 -7.5 14t-9.5 18q-2 5 -7 16t-7 17q-50 103 -146 174q-98 72 -210 90q0 2 -35 7q-34 4 -79 6q-16 1 -43.5 2.5t-39.5 1.5q-11 0 -21.5 0.5t-16 1t-7.5 0.5q-158 0 -292 -58q-133 -57 -226 -161q-95 -106 -146 -252q-51 -147 -51 -328
t51 -328q51 -146 146 -252q96 -107 226 -163q134 -58 292 -58q27 0 81 2q27 1 81 7q149 17 266 91q119 75 170 183q2 6 7 17t7 16q3 7 9.5 18t7.5 14h41l-11 -231q-57 -31 -134 -59q-70 -25 -161 -46q-79 -18 -178 -31q-84 -11 -182 -11l-86 -117q7 1 23 3q8 1 22 1z
M1595 1495q-1 -3 -4 -6q-2 -2 -2 -6z" />
    <glyph glyph-name="Egrave" unicode="&#xc8;" 
d="M1360 250q-5 -25 -17 -85.5t-18 -86.5q-5 -23 -16 -78h-1200v39q59 0 91 35q31 34 31 112v1266q0 68 -28 108q-27 39 -76 39h-18v39h1185q0 -67 4 -126q6 -89 7 -126h-33l-15 35q-42 88 -129 137q-89 50 -192 50h-582v-621h512q90 0 158 28q65 27 82 75l8 18h33v-291h-33
l-8 21q-21 53 -85 86q-63 32 -155 32h-512v-925h600q105 0 200 50t151 136l24 33h31zM897 1735q-150 125 -210 173q-20 16 -110 91q-36 30 -42 42q-7 14 -7 25q0 16 15 36t43 20h2q10 0 20 -6q11 -6 41 -41q32 -36 92 -110q142 -174 174 -212l5 -2l-19 -18z" />
    <glyph glyph-name="Eacute" unicode="&#xc9;" 
d="M1360 250q-5 -25 -17 -85.5t-18 -86.5q-5 -23 -16 -78h-1200v39q59 0 91 35q31 34 31 112v1266q0 68 -28 108q-27 39 -76 39h-18v39h1185q0 -67 4 -126q6 -89 7 -126h-33l-15 35q-42 88 -129 137q-89 50 -192 50h-582v-621h512q90 0 158 28q65 27 82 75l8 18h33v-291h-33
l-8 21q-21 53 -85 86q-63 32 -155 32h-512v-925h600q105 0 200 50t151 136l24 33h31zM547 1733l-19 18l4 2q150 182 174 212q53 67 91 110q31 35 42 41q12 6 21 6h2q28 0 43 -20t15 -36q0 -11 -7 -25q-6 -12 -42 -42q-90 -75 -110 -91q-60 -48 -210 -173z" />
    <glyph glyph-name="Ecircumflex" unicode="&#xca;" 
d="M1360 250q-5 -25 -17 -85.5t-18 -86.5q-5 -23 -16 -78h-1200v39q59 0 91 35q31 34 31 112v1266q0 68 -28 108q-27 39 -76 39h-18v39h1185q0 -67 4 -126q6 -89 7 -126h-33l-15 35q-42 88 -129 137q-89 50 -192 50h-582v-621h512q90 0 158 28q65 27 82 75l8 18h33v-291h-33
l-8 21q-21 53 -85 86q-63 32 -155 32h-512v-925h600q105 0 200 50t151 136l24 33h31zM1038 1735q-6 6 -41 34q-14 11 -43 35.5t-43 35.5q-66 54 -101 83q-40 33 -85 72q-50 -42 -86 -72q-34 -29 -100 -83q-77 -63 -87 -71q-40 -32 -42 -34l-2 -2l-19 18l4 2
q44 53 104.5 127.5t67.5 82.5q60 74 92 110q29 34 41 42q10 7 21 7h4h2h6q9 0 20 -7q13 -8 42 -43q10 -12 92 -110q9 -11 172 -209l2 -2l-17 -18z" />
    <glyph glyph-name="Edieresis" unicode="&#xcb;" 
d="M1360 250q-5 -25 -17 -85.5t-18 -86.5q-5 -23 -16 -78h-1200v39q59 0 91 35q31 34 31 112v1266q0 68 -28 108q-27 39 -76 39h-18v39h1185q0 -67 4 -126q6 -89 7 -126h-33l-15 35q-42 88 -129 137q-89 50 -192 50h-582v-621h512q90 0 158 28q65 27 82 75l8 18h33v-291h-33
l-8 21q-21 53 -85 86q-63 32 -155 32h-512v-925h600q105 0 200 50t151 136l24 33h31zM641 1866q0 -38 -22 -56q-23 -18 -52 -18q-28 0 -52 18q-23 17 -23 56q0 38 23 55q24 18 52 18q29 0 52 -18q22 -18 22 -55zM958 1866q0 -39 -23 -56q-24 -18 -52 -18q-29 0 -52 18
q-22 18 -22 56q0 37 22 55q23 18 52 18q28 0 52 -18q23 -17 23 -55z" />
    <glyph glyph-name="Igrave" unicode="&#xcc;" horiz-adv-x="589" 
d="M479 0h-368v39q59 0 91 35q31 34 31 112v1266q0 68 -27 108q-26 39 -75 39h-20v39h368v-39q-60 0 -90 -34q-31 -36 -31 -113v-1266q0 -65 28 -107q27 -40 75 -40h18v-39zM467 1735q-150 125 -210 173q-45 36 -111 91q-36 30 -42 42t-6 25q0 16 15 36t43 20h2q10 0 20 -6
q11 -6 41 -41q32 -36 92 -110q142 -174 174 -212l4 -2l-18 -18z" />
    <glyph glyph-name="Iacute" unicode="&#xcd;" horiz-adv-x="589" 
d="M479 0h-368v39q59 0 91 35q31 34 31 112v1266q0 68 -27 108q-26 39 -75 39h-20v39h368v-39q-60 0 -90 -34q-31 -36 -31 -113v-1266q0 -65 28 -107q27 -40 75 -40h18v-39zM117 1733l-19 18l4 2q116 141 173 212q42 53 92 110q31 35 42 41q12 6 21 6h2q28 0 43 -20
q14 -18 14 -36q0 -13 -6 -25t-42 -42q-90 -75 -110 -91q-60 -48 -210 -173z" />
    <glyph glyph-name="Icircumflex" unicode="&#xce;" horiz-adv-x="589" 
d="M479 0h-368v39q59 0 91 35q31 34 31 112v1266q0 68 -27 108q-26 39 -75 39h-20v39h368v-39q-60 0 -90 -34q-31 -36 -31 -113v-1266q0 -65 28 -107q27 -40 75 -40h18v-39zM610 1735q-6 6 -41 34q-14 11 -43 35.5t-43 35.5q-66 54 -101 83q-40 33 -85 72q-50 -42 -86 -72
q-34 -29 -100 -83q-77 -63 -87 -71q-40 -32 -42 -34l-2 -2l-19 18l4 2q44 53 104.5 127.5t67.5 82.5q60 74 92 110q29 34 41 42q10 7 21 7h4h2h6q9 0 20 -7q13 -8 42 -43q10 -12 92 -110q9 -11 172 -209l2 -2l-17 -18z" />
    <glyph glyph-name="Idieresis" unicode="&#xcf;" horiz-adv-x="589" 
d="M479 0h-368v39q59 0 91 35q31 34 31 112v1266q0 68 -27 108q-26 39 -75 39h-20v39h368v-39q-60 0 -90 -34q-31 -36 -31 -113v-1266q0 -65 28 -107q27 -40 75 -40h18v-39zM211 1866q0 -38 -23 -56q-22 -18 -51 -18q-28 0 -52 18t-24 56q0 37 24 55t52 18q29 0 51 -18
q23 -18 23 -55zM528 1866q0 -39 -23 -56q-24 -18 -52 -18q-29 0 -52 18q-22 18 -22 56q0 37 22 55t52 18q28 0 52 -18q23 -17 23 -55z" />
    <glyph glyph-name="Eth" unicode="&#xd0;" horiz-adv-x="1771" 
d="M78 848h241v604q0 70 -28 110t-76 40h-18v36h655q192 0 345 -58q155 -59 264 -166q110 -109 170 -258q61 -152 61 -335t-53 -336t-146 -259t-228 -167q-131 -59 -296 -59h-772v39q59 0 91 35q31 34 31 112v609h-241v53zM969 33q136 0 245 56q111 57 190 160
q78 101 122 249q43 144 43 323q0 177 -51 322t-146 249q-93 101 -226 159q-132 57 -294 57h-410v-760h254v-53h-254v-762h527z" />
    <glyph glyph-name="Ntilde" unicode="&#xd1;" horiz-adv-x="1751" 
d="M272 186q0 -65 28 -107q27 -40 75 -40h20v-39h-282v39q59 0 91 35t32 112v1266q0 69 -29 110q-28 40 -76 40h-18v36h235l1133 -1456v1270q0 68 -28 110q-27 40 -75 40h-18v36h280v-36q-60 0 -90 -36t-30 -114v-1475h-41l-56 74l-1151 1477v-1342zM1147 1931h22v-6
q-7 -89 -53 -127q-44 -37 -92 -37q-42 0 -82 18q-77 34 -83 37q-16 7 -45 19.5t-37 16.5q-40 18 -77 18h-2q-1 0 -3.5 -0.5t-6 -1t-7.5 -0.5q-13 -1 -29 -11q-13 -8 -29 -30t-17 -58v-4h-24v4q2 30 11 62q9 31 27 56q19 27 43 41q27 16 60 16q38 0 81 -17q47 -18 84 -37
q34 -17 83 -37q39 -16 80 -16q52 0 72 31q19 30 24 59v4z" />
    <glyph glyph-name="Ograve" unicode="&#xd2;" horiz-adv-x="1783" 
d="M1712 825q0 -169 -52 -319t-155 -265q-103 -116 -255 -181q-153 -66 -353 -66q-202 0 -355 66q-152 65 -255 181q-103 115 -155 265t-52 319q0 170 52 319t155 264q102 114 255 180q155 67 355 67q198 0 353 -67q153 -66 255 -180q103 -115 155 -264t52 -319zM897 25
q169 0 294 64t211 174q84 107 128 255q43 144 43 307q0 165 -43 307q-44 145 -128 253q-87 112 -211 175q-125 64 -294 64q-168 0 -295 -64q-126 -64 -213 -175q-86 -110 -129 -253q-43 -142 -43 -307q0 -163 43 -307q44 -146 129 -255t213 -174q127 -64 295 -64zM1065 1735
q-150 125 -210 173q-45 36 -111 91q-36 30 -42 42t-6 25q0 16 15 36t43 20h2q10 0 20 -6q11 -6 41 -41q32 -36 92 -110q142 -174 174 -212l4 -2l-18 -18z" />
    <glyph glyph-name="Oacute" unicode="&#xd3;" horiz-adv-x="1783" 
d="M1712 825q0 -169 -52 -319t-155 -265q-103 -116 -255 -181q-153 -66 -353 -66q-202 0 -355 66q-152 65 -255 181q-103 115 -155 265t-52 319q0 170 52 319t155 264q102 114 255 180q155 67 355 67q198 0 353 -67q153 -66 255 -180q103 -115 155 -264t52 -319zM897 25
q169 0 294 64t211 174q84 107 128 255q43 144 43 307q0 165 -43 307q-44 145 -128 253q-87 112 -211 175q-125 64 -294 64q-168 0 -295 -64q-126 -64 -213 -175q-86 -110 -129 -253q-43 -142 -43 -307q0 -163 43 -307q44 -146 129 -255t213 -174q127 -64 295 -64zM715 1733
l-19 18l4 2q116 141 173 212q42 53 92 110q31 35 42 41q12 6 21 6h2q28 0 43 -20q14 -18 14 -36q0 -13 -6 -25t-42 -42q-90 -75 -110 -91q-60 -48 -210 -173z" />
    <glyph glyph-name="Ocircumflex" unicode="&#xd4;" horiz-adv-x="1783" 
d="M1712 825q0 -169 -52 -319t-155 -265q-103 -116 -255 -181q-153 -66 -353 -66q-202 0 -355 66q-152 65 -255 181q-103 115 -155 265t-52 319q0 170 52 319t155 264q102 114 255 180q155 67 355 67q198 0 353 -67q153 -66 255 -180q103 -115 155 -264t52 -319zM897 25
q169 0 294 64t211 174q84 107 128 255q43 144 43 307q0 165 -43 307q-44 145 -128 253q-87 112 -211 175q-125 64 -294 64q-168 0 -295 -64q-126 -64 -213 -175q-86 -110 -129 -253q-43 -142 -43 -307q0 -163 43 -307q44 -146 129 -255t213 -174q127 -64 295 -64zM1206 1735
q-6 6 -41 34q-14 11 -43 35.5t-43 35.5q-66 54 -101 83q-40 33 -85 72q-50 -42 -86 -72q-34 -29 -100 -83q-77 -63 -87 -71q-40 -32 -42 -34l-3 -2l-18 18l4 2q44 53 104.5 127.5t67.5 82.5q60 74 92 110q29 34 41 42q10 7 21 7h4h2h6q9 0 20 -7q13 -8 42 -43
q10 -12 92 -110q9 -11 172 -209l2 -2l-17 -18z" />
    <glyph glyph-name="Otilde" unicode="&#xd5;" horiz-adv-x="1783" 
d="M1712 825q0 -169 -52 -319t-155 -265q-103 -116 -255 -181q-153 -66 -353 -66q-202 0 -355 66q-152 65 -255 181q-103 115 -155 265t-52 319q0 170 52 319t155 264q102 114 255 180q155 67 355 67q198 0 353 -67q153 -66 255 -180q103 -115 155 -264t52 -319zM897 25
q169 0 294 64t211 174q84 107 128 255q43 144 43 307q0 165 -43 307q-44 145 -128 253q-87 112 -211 175q-125 64 -294 64q-168 0 -295 -64q-126 -64 -213 -175q-86 -110 -129 -253q-43 -142 -43 -307q0 -163 43 -307q44 -146 129 -255t213 -174q127 -64 295 -64zM1163 1931
h23v-6q-7 -89 -53 -127q-44 -37 -93 -37q-42 0 -82 18q-54 24 -82 37q-16 7 -45 19.5t-37 16.5q-41 18 -77 18h-2l-18 -2q-12 -1 -28 -11q-15 -9 -30 -30q-14 -20 -16 -58v-4h-25v4q2 30 11 62q9 31 27 56q19 27 43 41q27 16 60 16q38 0 81 -17q47 -18 84 -37q34 -17 83 -37
q39 -16 80 -16q53 0 73 31q18 28 23 59v4z" />
    <glyph glyph-name="Odieresis" unicode="&#xd6;" horiz-adv-x="1783" 
d="M1712 825q0 -169 -52 -319t-155 -265q-103 -116 -255 -181q-153 -66 -353 -66q-202 0 -355 66q-152 65 -255 181q-103 115 -155 265t-52 319q0 170 52 319t155 264q102 114 255 180q155 67 355 67q198 0 353 -67q153 -66 255 -180q103 -115 155 -264t52 -319zM897 25
q169 0 294 64t211 174q84 107 128 255q43 144 43 307q0 165 -43 307q-44 145 -128 253q-87 112 -211 175q-125 64 -294 64q-168 0 -295 -64q-126 -64 -213 -175q-86 -110 -129 -253q-43 -142 -43 -307q0 -163 43 -307q44 -146 129 -255t213 -174q127 -64 295 -64zM807 1866
q0 -38 -23 -56q-22 -18 -51 -18q-28 0 -52 18t-24 56q0 37 24 55t52 18q29 0 51 -18q23 -18 23 -55zM1124 1866q0 -39 -23 -56q-24 -18 -52 -18q-29 0 -52 18q-22 18 -22 56q0 37 22 55t52 18q28 0 52 -18q23 -17 23 -55z" />
    <glyph glyph-name="Oslash" unicode="&#xd8;" horiz-adv-x="1783" 
d="M604 37q-128 43 -227 121q-100 79 -165 181q-66 104 -99 227q-33 124 -33 259q0 170 52 319t155 264q102 114 255 180q155 67 355 67q65 0 132 -8q57 -7 120 -25l78 223h43l-80 -235q128 -43 226 -120q99 -77 164 -180q66 -103 99 -227q33 -123 33 -258q0 -169 -52 -319
t-155 -265q-103 -116 -255 -181q-153 -66 -353 -66q-136 0 -252 31l-90 -261h-43zM217 825q0 -123 26 -239q25 -114 75 -213q49 -97 126 -173q76 -75 177 -120l516 1503q-112 41 -240 41q-168 0 -295 -64q-126 -64 -213 -175q-86 -110 -129 -253q-43 -142 -43 -307zM897 25
q169 0 294 64t211 174q84 107 128 255q43 144 43 307q0 122 -26 238q-25 111 -76 212q-50 97 -124 172q-76 76 -173 120l-517 -1504q110 -38 240 -38z" />
    <glyph glyph-name="Ugrave" unicode="&#xd9;" horiz-adv-x="1810" 
d="M1395 1638h321v-39h-22q-23 0 -43 -14q-21 -15 -37 -38q-16 -24 -27 -54q-10 -29 -10 -63v-904q0 -104 -45 -200q-45 -97 -129 -170q-84 -74 -207 -117q-122 -43 -276 -43q-160 0 -288 48q-127 48 -216 131q-88 82 -135 193q-48 113 -48 232v850q0 60 -31 104
q-32 45 -73 45h-18v39h368v-39h-18q-39 0 -69 -40q-29 -40 -34 -97l2 -889q0 -107 40 -202q41 -97 114 -170q74 -73 180 -117q105 -43 242 -43q141 0 253 41t189 109q79 70 119 159q41 91 41 189l2 903q-5 64 -40 110q-36 47 -83 47h-22v39zM1077 1735q-150 125 -210 173
q-20 16 -110 91q-36 30 -42 42t-6 25q0 18 14 36q15 20 43 20h2q10 0 20 -6q11 -6 41 -41q49 -56 93 -110q142 -174 174 -212l4 -2l-19 -18z" />
    <glyph glyph-name="Uacute" unicode="&#xda;" horiz-adv-x="1810" 
d="M1395 1638h321v-39h-22q-23 0 -43 -14q-21 -15 -37 -38q-16 -24 -27 -54q-10 -29 -10 -63v-904q0 -104 -45 -200q-45 -97 -129 -170q-84 -74 -207 -117q-122 -43 -276 -43q-160 0 -288 48q-127 48 -216 131q-88 82 -135 193q-48 113 -48 232v850q0 60 -31 104
q-32 45 -73 45h-18v39h368v-39h-18q-39 0 -69 -40q-29 -40 -34 -97l2 -889q0 -107 40 -202q41 -97 114 -170q74 -73 180 -117q105 -43 242 -43q141 0 253 41t189 109q79 70 119 159q41 91 41 189l2 903q-5 64 -40 110q-36 47 -83 47h-22v39zM727 1733l-18 18l4 2
q116 141 173 212q53 67 91 110q31 35 42 41q12 6 21 6h2q28 0 43 -20t15 -36q0 -13 -6 -25t-42 -42q-66 -55 -111 -91q-60 -48 -210 -173z" />
    <glyph glyph-name="Ucircumflex" unicode="&#xdb;" horiz-adv-x="1810" 
d="M1395 1638h321v-39h-22q-23 0 -43 -14q-21 -15 -37 -38q-16 -24 -27 -54q-10 -29 -10 -63v-904q0 -104 -45 -200q-45 -97 -129 -170q-84 -74 -207 -117q-122 -43 -276 -43q-160 0 -288 48q-127 48 -216 131q-88 82 -135 193q-48 113 -48 232v850q0 60 -31 104
q-32 45 -73 45h-18v39h368v-39h-18q-39 0 -69 -40q-29 -40 -34 -97l2 -889q0 -107 40 -202q41 -97 114 -170q74 -73 180 -117q105 -43 242 -43q141 0 253 41t189 109q79 70 119 159q41 91 41 189l2 903q-5 64 -40 110q-36 47 -83 47h-22v39zM1219 1735q-6 6 -41 34
q-14 11 -43 35.5t-43 35.5q-11 9 -46.5 37.5t-55.5 45.5q-40 33 -85 72q-50 -42 -86 -72q-34 -29 -100 -83q-77 -63 -87 -71q-40 -32 -42 -34l-2 -2l-19 18l4 2q44 53 104.5 127.5t67.5 82.5q44 54 93 110q29 34 41 42q10 7 20 7h4h2h6q9 0 20 -7q13 -8 42 -43
q10 -12 92 -110q9 -11 172 -209l2 -2l-16 -18z" />
    <glyph glyph-name="Udieresis" unicode="&#xdc;" horiz-adv-x="1810" 
d="M1395 1638h321v-39h-22q-23 0 -43 -14q-21 -15 -37 -38q-16 -24 -27 -54q-10 -29 -10 -63v-904q0 -104 -45 -200q-45 -97 -129 -170q-84 -74 -207 -117q-122 -43 -276 -43q-160 0 -288 48q-127 48 -216 131q-88 82 -135 193q-48 113 -48 232v850q0 60 -31 104
q-32 45 -73 45h-18v39h368v-39h-18q-39 0 -69 -40q-29 -40 -34 -97l2 -889q0 -107 40 -202q41 -97 114 -170q74 -73 180 -117q105 -43 242 -43q141 0 253 41t189 109q79 70 119 159q41 91 41 189l2 903q-5 64 -40 110q-36 47 -83 47h-22v39zM821 1866q0 -38 -22 -56
q-23 -18 -51 -18q-29 0 -53 18q-23 17 -23 56q0 38 23 55q24 18 53 18q28 0 51 -18q22 -18 22 -55zM1139 1866q0 -38 -24 -56t-52 -18q-29 0 -51 18q-23 18 -23 56q0 37 23 55q22 18 51 18q28 0 52 -18t24 -55z" />
    <glyph glyph-name="Yacute" unicode="&#xdd;" horiz-adv-x="1640" 
d="M1264 1638h299v-39q-105 0 -199 -147q-16 -24 -27 -42q-1 -2 -10 -18t-16 -27q-9 -15 -44 -75q-6 -10 -32 -54.5t-45 -77.5q-65 -112 -127 -216q-110 -185 -193 -326v-430q0 -65 29 -106t76 -41h18v-39h-368v39h18q47 0 76 41t29 106v383l-498 883q-47 73 -90 110t-90 37
v39h364v-39h-20q-49 0 -49 -45q0 -41 32 -92l461 -798l449 759q43 73 43 119q0 57 -62 57h-16q-8 0 -8 21v18zM643 1733l-18 18l4 2q116 141 173 212q54 67 91 110q31 35 42 41q12 6 21 6h2q28 0 43 -20t15 -36q0 -13 -6 -25t-42 -42q-66 -55 -111 -91q-60 -48 -210 -173z
" />
    <glyph glyph-name="germandbls" unicode="&#xdf;" horiz-adv-x="1376" 
d="M649 926q0 -67 50 -117q48 -48 126 -91q83 -45 163 -80q82 -35 163 -83q77 -46 126 -100q50 -56 50 -133q0 -95 -38 -159q-37 -63 -94 -100q-54 -35 -124 -51q-63 -14 -125 -14q-49 0 -100 4q-69 5 -118 14q-63 11 -118 27q-54 16 -100 41l-6 162h33q39 -80 93 -125
q56 -47 111 -67q58 -22 112 -26q60 -5 95 -5q124 0 198 71q75 72 75 189q0 73 -82 148q-83 76 -219 122q-81 29 -152 70q-66 38 -117 83q-47 42 -76 91q-26 45 -26 94q0 60 28 100t69 68q45 30 90 53q48 24 90 57q44 34 70 78q28 47 28 117q0 74 -30 121q-32 49 -75 75
q-44 26 -97 37q-55 11 -95 11q-59 -1 -119 -25q-57 -23 -102 -66q-44 -43 -72 -112q-27 -67 -27 -160v-1073q0 -86 35 -112q34 -25 78 -25v-35h-21h-311h-20v35q55 0 85 33q29 32 29 104v748v155v87q0 39 1 53t1 55q0 87 36 156t96 117q61 49 141 73q78 24 166 22
q14 0 35 -1q42 -2 79 -8q63 -10 101 -21q54 -15 99 -43t76 -74q29 -43 29 -111q0 -77 -28 -123q-28 -45 -73 -78q-46 -33 -95 -55q-53 -23 -95 -48q-45 -27 -73 -60q-29 -35 -29 -90z" />
    <glyph glyph-name="agrave" unicode="&#xe0;" horiz-adv-x="1716" 
d="M383 0h-328v39q58 0 97 33t69 102l602 1466h39h-2l627 -1456q30 -69 71 -107t97 -38v-39h-387v39h24q41 0 64 21q22 21 22 59q0 13 -3 28q-3 17 -10 34q-12 31 -20 48q-15 33 -32 74q-119 2 -224 36q-108 36 -203 72q-98 37 -189 69q-93 32 -181 32q-70 0 -127 -20
q-62 -150 -71 -171q-1 -3 -38 -97q-15 -38 -17 -50q-3 -17 -3 -35q0 -45 26 -73q26 -27 72 -27h25v-39zM801 1493l-395 -963q51 15 110 15q88 0 183 -31q76 -25 187 -69q85 -34 197 -70q100 -32 215 -37zM1030 1735q-150 125 -210 173q-20 16 -110 91q-36 30 -42 42t-6 25
q0 18 14 36q15 20 43 20h2q9 0 20 -6t41 -41q32 -36 92 -110q22 -27 81.5 -99t93.5 -113l4 -2l-19 -18z" />
    <glyph glyph-name="aacute" unicode="&#xe1;" horiz-adv-x="1716" 
d="M383 0h-328v39q58 0 97 33t69 102l602 1466h39h-2l627 -1456q30 -69 71 -107t97 -38v-39h-387v39h24q41 0 64 21q22 21 22 59q0 13 -3 28q-3 17 -10 34q-12 31 -20 48q-15 33 -32 74q-119 2 -224 36q-108 36 -203 72q-98 37 -189 69q-93 32 -181 32q-70 0 -127 -20
q-62 -150 -71 -171q-1 -3 -38 -97q-15 -38 -17 -50q-3 -17 -3 -35q0 -45 26 -73q26 -27 72 -27h25v-39zM801 1493l-395 -963q51 15 110 15q88 0 183 -31q76 -25 187 -69q85 -34 197 -70q100 -32 215 -37zM680 1733l-18 18l4 2q116 141 173 212q53 67 91 110q31 35 42 41
q12 6 21 6h2q28 0 43 -20t15 -36q0 -13 -6 -25t-42 -42q-66 -55 -111 -91q-60 -48 -210 -173z" />
    <glyph glyph-name="acircumflex" unicode="&#xe2;" horiz-adv-x="1716" 
d="M383 0h-328v39q58 0 97 33t69 102l602 1466h39h-2l627 -1456q30 -69 71 -107t97 -38v-39h-387v39h24q41 0 64 21q22 21 22 59q0 13 -3 28q-3 17 -10 34q-12 31 -20 48q-15 33 -32 74q-119 2 -224 36q-108 36 -203 72q-98 37 -189 69q-93 32 -181 32q-70 0 -127 -20
q-62 -150 -71 -171q-1 -3 -38 -97q-15 -38 -17 -50q-3 -17 -3 -35q0 -45 26 -73q26 -27 72 -27h25v-39zM801 1493l-395 -963q51 15 110 15q88 0 183 -31q76 -25 187 -69q85 -34 197 -70q100 -32 215 -37zM1171 1735q-6 6 -41 34q-14 11 -43 35.5t-43 35.5q-66 54 -101 83
q-40 33 -85 72q-50 -42 -86 -72q-34 -29 -100 -83q-77 -63 -87 -71q-40 -32 -42 -34l-2 -2l-19 18l4 2q44 53 104.5 127.5t67.5 82.5q44 54 93 110q31 35 40 42q10 7 21 7h4h2h6q9 0 20 -7q13 -8 42 -43q10 -12 92 -110q9 -11 172 -209l2 -2l-16 -18z" />
    <glyph glyph-name="atilde" unicode="&#xe3;" horiz-adv-x="1716" 
d="M383 0h-328v39q58 0 97 33t69 102l602 1466h39h-2l627 -1456q30 -69 71 -107t97 -38v-39h-387v39h24q41 0 64 21q22 21 22 59q0 13 -3 28q-3 17 -10 34q-12 31 -20 48q-15 33 -32 74q-119 2 -224 36q-108 36 -203 72q-98 37 -189 69q-93 32 -181 32q-70 0 -127 -20
q-62 -150 -71 -171q-1 -3 -38 -97q-15 -38 -17 -50q-3 -17 -3 -35q0 -45 26 -73q26 -27 72 -27h25v-39zM801 1493l-395 -963q51 15 110 15q88 0 183 -31q76 -25 187 -69q85 -34 197 -70q100 -32 215 -37zM1128 1931h23v-6q-7 -89 -53 -127q-44 -37 -92 -37q-42 0 -82 18
q-77 34 -83 37q-16 7 -45 19.5t-37 16.5q-40 18 -77 18h-2q-1 0 -3.5 -0.5t-6 -1t-7.5 -0.5q-13 -1 -29 -11q-15 -9 -30 -30q-14 -20 -16 -58v-4h-25v4q2 30 11 62q9 31 27 56q19 27 43 41q27 16 61 16q37 0 80 -17q47 -18 84 -37q34 -17 83 -37q39 -16 80 -16q53 0 73 31
q18 28 23 59v4z" />
    <glyph glyph-name="adieresis" unicode="&#xe4;" horiz-adv-x="1716" 
d="M383 0h-328v39q58 0 97 33t69 102l602 1466h39h-2l627 -1456q30 -69 71 -107t97 -38v-39h-387v39h24q41 0 64 21q22 21 22 59q0 13 -3 28q-3 17 -10 34q-12 31 -20 48q-15 33 -32 74q-119 2 -224 36q-108 36 -203 72q-98 37 -189 69q-93 32 -181 32q-70 0 -127 -20
q-62 -150 -71 -171q-1 -3 -38 -97q-15 -38 -17 -50q-3 -17 -3 -35q0 -45 26 -73q26 -27 72 -27h25v-39zM801 1493l-395 -963q51 15 110 15q88 0 183 -31q76 -25 187 -69q85 -34 197 -70q100 -32 215 -37zM774 1866q0 -38 -22 -56q-23 -18 -52 -18q-28 0 -52 18
q-23 17 -23 56q0 38 23 55q24 18 52 18q30 0 52 -18t22 -55zM1092 1866q0 -38 -24 -56t-52 -18t-51 18t-23 56q0 37 23 55t51 18t52 -18t24 -55z" />
    <glyph glyph-name="aring" unicode="&#xe5;" horiz-adv-x="1716" 
d="M383 0h-328v39q58 0 97 33t69 102l602 1466h39h-2l627 -1456q30 -69 71 -107t97 -38v-39h-387v39h24q41 0 64 21q22 21 22 59q0 13 -3 28q-3 17 -10 34q-12 31 -20 48q-15 33 -32 74q-119 2 -224 36q-108 36 -203 72q-98 37 -189 69q-93 32 -181 32q-70 0 -127 -20
q-62 -150 -71 -171q-1 -3 -38 -97q-15 -38 -17 -50q-3 -17 -3 -35q0 -45 26 -73q26 -27 72 -27h25v-39zM801 1493l-395 -963q51 15 110 15q88 0 183 -31q76 -25 187 -69q85 -34 197 -70q100 -32 215 -37zM840 1731q-49 0 -89 17q-43 18 -74 48q-32 30 -50 71q-19 43 -19 85
q0 43 19 86q17 39 50 70q31 30 74 48q40 17 89 17q51 0 91 -17q44 -19 73 -48q32 -32 49 -70q18 -40 18 -86q0 -44 -18 -85q-18 -40 -49 -71q-29 -29 -73 -48q-40 -17 -91 -17zM840 2146q-29 0 -56 -15q-26 -15 -46 -42q-17 -23 -30 -63q-12 -36 -12 -74q0 -79 42 -136
t102 -57q59 0 101 57t42 136q0 80 -42 137t-101 57z" />
    <glyph glyph-name="ae" unicode="&#xe6;" horiz-adv-x="2312" 
d="M2204 250q-1 -4 -6.5 -28.5t-8.5 -40.5q-3 -15 -8.5 -41.5t-7.5 -35.5q-4 -25 -19 -90l-4 -14h-1198v37q60 0 90 36q31 37 31 113v154q-63 16 -112 34q-67 25 -107 42q-44 18 -99 37q-37 13 -96 26q-101 22 -182 -8l-153 -256q-47 -84 -37 -130q11 -48 71 -48h21v-37
h-328v37q58 0 111 33q56 35 100 108l803 1335q-11 41 -35 64q-23 22 -59 22h-19v39h1186l10 -249h-32l-17 30q-41 86 -128 137q-89 52 -191 52h-582v-621h512q90 0 157 28q64 27 83 75l6 18h35v-291h-35l-6 21q-22 54 -86 85q-65 31 -154 31h-512v-923h598q104 0 201 50
q94 49 151 136l21 33h35zM866 444q6 -2 43.5 -15.5t58.5 -21.5q56 -21 105 -32v1077v8l-571 -948q91 21 181 -5q89 -25 183 -63z" />
    <glyph glyph-name="ccedilla" unicode="&#xe7;" horiz-adv-x="1708" 
d="M899 -129q22 0 62 -8q32 -6 72 -33q37 -24 61 -67q24 -42 24 -109q0 -48 -19 -85q-21 -39 -50 -66q-31 -28 -72 -43t-84 -15q-59 0 -109 27q-49 27 -79 73l30 21q22 -31 45 -47q24 -16 47 -24q22 -7 38 -9q4 0 8.5 -0.5t7.5 -1t4 -0.5q75 0 105 50q30 49 30 124
q0 63 -15 99t-35 53q-18 15 -38 20q-16 4 -25 4q-21 0 -43 -3q-25 -3 -51 -13l-2 -2l-20 28l104 142q-185 6 -334 67t-255 170q-105 108 -164 259q-58 149 -58 333q0 187 61 339q61 151 173 262q109 107 269 169q156 60 349 60q86 0 183 -11q103 -12 179 -29q81 -19 162 -47
q67 -24 135 -61l11 -231h-41q-1 3 -7.5 14t-9.5 18q-2 5 -7 16t-7 17q-50 103 -146 174q-98 72 -210 90q0 2 -35 7q-34 4 -79 6q-16 1 -43.5 2.5t-39.5 1.5q-11 0 -21.5 0.5t-16 1t-7.5 0.5q-158 0 -292 -58q-133 -57 -226 -161q-95 -106 -146 -252q-51 -147 -51 -328
t51 -328q51 -146 146 -252q96 -107 226 -163q134 -58 292 -58q27 0 81 2q27 1 81 7q149 17 266 91q119 75 170 183q2 6 7 17t7 16q3 7 9.5 18t7.5 14h41l-11 -231q-57 -31 -134 -59q-70 -25 -161 -46q-79 -18 -178 -31q-84 -11 -182 -11l-86 -117q7 1 23 3q8 1 22 1z
M1595 1495q-1 -3 -4 -6q-2 -2 -2 -6z" />
    <glyph glyph-name="egrave" unicode="&#xe8;" 
d="M1360 250q-5 -25 -17 -85.5t-18 -86.5q-5 -23 -16 -78h-1200v39q59 0 91 35q31 34 31 112v1266q0 68 -28 108q-27 39 -76 39h-18v39h1185q0 -67 4 -126q6 -89 7 -126h-33l-15 35q-42 88 -129 137q-89 50 -192 50h-582v-621h512q90 0 158 28q65 27 82 75l8 18h33v-291h-33
l-8 21q-21 53 -85 86q-63 32 -155 32h-512v-925h600q105 0 200 50t151 136l24 33h31zM897 1735q-150 125 -210 173q-20 16 -110 91q-36 30 -42 42q-7 14 -7 25q0 16 15 36t43 20h2q10 0 20 -6q11 -6 41 -41q32 -36 92 -110q142 -174 174 -212l5 -2l-19 -18z" />
    <glyph glyph-name="eacute" unicode="&#xe9;" 
d="M1360 250q-5 -25 -17 -85.5t-18 -86.5q-5 -23 -16 -78h-1200v39q59 0 91 35q31 34 31 112v1266q0 68 -28 108q-27 39 -76 39h-18v39h1185q0 -67 4 -126q6 -89 7 -126h-33l-15 35q-42 88 -129 137q-89 50 -192 50h-582v-621h512q90 0 158 28q65 27 82 75l8 18h33v-291h-33
l-8 21q-21 53 -85 86q-63 32 -155 32h-512v-925h600q105 0 200 50t151 136l24 33h31zM547 1733l-19 18l4 2q150 182 174 212q53 67 91 110q31 35 42 41q12 6 21 6h2q28 0 43 -20t15 -36q0 -11 -7 -25q-6 -12 -42 -42q-90 -75 -110 -91q-60 -48 -210 -173z" />
    <glyph glyph-name="ecircumflex" unicode="&#xea;" 
d="M1360 250q-5 -25 -17 -85.5t-18 -86.5q-5 -23 -16 -78h-1200v39q59 0 91 35q31 34 31 112v1266q0 68 -28 108q-27 39 -76 39h-18v39h1185q0 -67 4 -126q6 -89 7 -126h-33l-15 35q-42 88 -129 137q-89 50 -192 50h-582v-621h512q90 0 158 28q65 27 82 75l8 18h33v-291h-33
l-8 21q-21 53 -85 86q-63 32 -155 32h-512v-925h600q105 0 200 50t151 136l24 33h31zM1038 1735q-6 6 -41 34q-14 11 -43 35.5t-43 35.5q-66 54 -101 83q-40 33 -85 72q-50 -42 -86 -72q-34 -29 -100 -83q-77 -63 -87 -71q-40 -32 -42 -34l-2 -2l-19 18l4 2
q44 53 104.5 127.5t67.5 82.5q60 74 92 110q29 34 41 42q10 7 21 7h4h2h6q9 0 20 -7q13 -8 42 -43q10 -12 92 -110q9 -11 172 -209l2 -2l-17 -18z" />
    <glyph glyph-name="edieresis" unicode="&#xeb;" 
d="M1360 250q-5 -25 -17 -85.5t-18 -86.5q-5 -23 -16 -78h-1200v39q59 0 91 35q31 34 31 112v1266q0 68 -28 108q-27 39 -76 39h-18v39h1185q0 -67 4 -126q6 -89 7 -126h-33l-15 35q-42 88 -129 137q-89 50 -192 50h-582v-621h512q90 0 158 28q65 27 82 75l8 18h33v-291h-33
l-8 21q-21 53 -85 86q-63 32 -155 32h-512v-925h600q105 0 200 50t151 136l24 33h31zM641 1866q0 -38 -22 -56q-23 -18 -52 -18q-28 0 -52 18q-23 17 -23 56q0 38 23 55q24 18 52 18q29 0 52 -18q22 -18 22 -55zM958 1866q0 -39 -23 -56q-24 -18 -52 -18q-29 0 -52 18
q-22 18 -22 56q0 37 22 55q23 18 52 18q28 0 52 -18q23 -17 23 -55z" />
    <glyph glyph-name="igrave" unicode="&#xec;" horiz-adv-x="589" 
d="M479 0h-368v39q59 0 91 35q31 34 31 112v1266q0 68 -27 108q-26 39 -75 39h-20v39h368v-39q-60 0 -90 -34q-31 -36 -31 -113v-1266q0 -65 28 -107q27 -40 75 -40h18v-39zM467 1735q-150 125 -210 173q-45 36 -111 91q-36 30 -42 42t-6 25q0 16 15 36t43 20h2q10 0 20 -6
q11 -6 41 -41q32 -36 92 -110q142 -174 174 -212l4 -2l-18 -18z" />
    <glyph glyph-name="iacute" unicode="&#xed;" horiz-adv-x="589" 
d="M479 0h-368v39q59 0 91 35q31 34 31 112v1266q0 68 -27 108q-26 39 -75 39h-20v39h368v-39q-60 0 -90 -34q-31 -36 -31 -113v-1266q0 -65 28 -107q27 -40 75 -40h18v-39zM117 1733l-19 18l4 2q116 141 173 212q42 53 92 110q31 35 42 41q12 6 21 6h2q28 0 43 -20
q14 -18 14 -36q0 -13 -6 -25t-42 -42q-90 -75 -110 -91q-60 -48 -210 -173z" />
    <glyph glyph-name="icircumflex" unicode="&#xee;" horiz-adv-x="589" 
d="M479 0h-368v39q59 0 91 35q31 34 31 112v1266q0 68 -27 108q-26 39 -75 39h-20v39h368v-39q-60 0 -90 -34q-31 -36 -31 -113v-1266q0 -65 28 -107q27 -40 75 -40h18v-39zM610 1735q-6 6 -41 34q-14 11 -43 35.5t-43 35.5q-66 54 -101 83q-40 33 -85 72q-50 -42 -86 -72
q-34 -29 -100 -83q-77 -63 -87 -71q-40 -32 -42 -34l-2 -2l-19 18l4 2q44 53 104.5 127.5t67.5 82.5q60 74 92 110q29 34 41 42q10 7 21 7h4h2h6q9 0 20 -7q13 -8 42 -43q10 -12 92 -110q9 -11 172 -209l2 -2l-17 -18z" />
    <glyph glyph-name="idieresis" unicode="&#xef;" horiz-adv-x="589" 
d="M479 0h-368v39q59 0 91 35q31 34 31 112v1266q0 68 -27 108q-26 39 -75 39h-20v39h368v-39q-60 0 -90 -34q-31 -36 -31 -113v-1266q0 -65 28 -107q27 -40 75 -40h18v-39zM211 1866q0 -38 -23 -56q-22 -18 -51 -18q-28 0 -52 18t-24 56q0 37 24 55t52 18q29 0 51 -18
q23 -18 23 -55zM528 1866q0 -39 -23 -56q-24 -18 -52 -18q-29 0 -52 18q-22 18 -22 56q0 37 22 55t52 18q28 0 52 -18q23 -17 23 -55z" />
    <glyph glyph-name="eth" unicode="&#xf0;" horiz-adv-x="1771" 
d="M78 848h241v604q0 70 -28 110t-76 40h-18v36h655q192 0 345 -58q155 -59 264 -166q110 -109 170 -258q61 -152 61 -335t-53 -336t-146 -259t-228 -167q-131 -59 -296 -59h-772v39q59 0 91 35q31 34 31 112v609h-241v53zM969 33q136 0 245 56q111 57 190 160
q78 101 122 249q43 144 43 323q0 177 -51 322t-146 249q-93 101 -226 159q-132 57 -294 57h-410v-760h254v-53h-254v-762h527z" />
    <glyph glyph-name="ntilde" unicode="&#xf1;" horiz-adv-x="1751" 
d="M272 186q0 -65 28 -107q27 -40 75 -40h20v-39h-282v39q59 0 91 35t32 112v1266q0 69 -29 110q-28 40 -76 40h-18v36h235l1133 -1456v1270q0 68 -28 110q-27 40 -75 40h-18v36h280v-36q-60 0 -90 -36t-30 -114v-1475h-41l-56 74l-1151 1477v-1342zM1147 1931h22v-6
q-7 -89 -53 -127q-44 -37 -92 -37q-42 0 -82 18q-77 34 -83 37q-16 7 -45 19.5t-37 16.5q-40 18 -77 18h-2q-1 0 -3.5 -0.5t-6 -1t-7.5 -0.5q-13 -1 -29 -11q-13 -8 -29 -30t-17 -58v-4h-24v4q2 30 11 62q9 31 27 56q19 27 43 41q27 16 60 16q38 0 81 -17q47 -18 84 -37
q34 -17 83 -37q39 -16 80 -16q52 0 72 31q19 30 24 59v4z" />
    <glyph glyph-name="ograve" unicode="&#xf2;" horiz-adv-x="1783" 
d="M1712 825q0 -169 -52 -319t-155 -265q-103 -116 -255 -181q-153 -66 -353 -66q-202 0 -355 66q-152 65 -255 181q-103 115 -155 265t-52 319q0 170 52 319t155 264q102 114 255 180q155 67 355 67q198 0 353 -67q153 -66 255 -180q103 -115 155 -264t52 -319zM897 25
q169 0 294 64t211 174q84 107 128 255q43 144 43 307q0 165 -43 307q-44 145 -128 253q-87 112 -211 175q-125 64 -294 64q-168 0 -295 -64q-126 -64 -213 -175q-86 -110 -129 -253q-43 -142 -43 -307q0 -163 43 -307q44 -146 129 -255t213 -174q127 -64 295 -64zM1065 1735
q-150 125 -210 173q-45 36 -111 91q-36 30 -42 42t-6 25q0 16 15 36t43 20h2q10 0 20 -6q11 -6 41 -41q32 -36 92 -110q142 -174 174 -212l4 -2l-18 -18z" />
    <glyph glyph-name="oacute" unicode="&#xf3;" horiz-adv-x="1783" 
d="M1712 825q0 -169 -52 -319t-155 -265q-103 -116 -255 -181q-153 -66 -353 -66q-202 0 -355 66q-152 65 -255 181q-103 115 -155 265t-52 319q0 170 52 319t155 264q102 114 255 180q155 67 355 67q198 0 353 -67q153 -66 255 -180q103 -115 155 -264t52 -319zM897 25
q169 0 294 64t211 174q84 107 128 255q43 144 43 307q0 165 -43 307q-44 145 -128 253q-87 112 -211 175q-125 64 -294 64q-168 0 -295 -64q-126 -64 -213 -175q-86 -110 -129 -253q-43 -142 -43 -307q0 -163 43 -307q44 -146 129 -255t213 -174q127 -64 295 -64zM715 1733
l-19 18l4 2q116 141 173 212q42 53 92 110q31 35 42 41q12 6 21 6h2q28 0 43 -20q14 -18 14 -36q0 -13 -6 -25t-42 -42q-90 -75 -110 -91q-60 -48 -210 -173z" />
    <glyph glyph-name="ocircumflex" unicode="&#xf4;" horiz-adv-x="1783" 
d="M1712 825q0 -169 -52 -319t-155 -265q-103 -116 -255 -181q-153 -66 -353 -66q-202 0 -355 66q-152 65 -255 181q-103 115 -155 265t-52 319q0 170 52 319t155 264q102 114 255 180q155 67 355 67q198 0 353 -67q153 -66 255 -180q103 -115 155 -264t52 -319zM897 25
q169 0 294 64t211 174q84 107 128 255q43 144 43 307q0 165 -43 307q-44 145 -128 253q-87 112 -211 175q-125 64 -294 64q-168 0 -295 -64q-126 -64 -213 -175q-86 -110 -129 -253q-43 -142 -43 -307q0 -163 43 -307q44 -146 129 -255t213 -174q127 -64 295 -64zM1206 1735
q-6 6 -41 34q-14 11 -43 35.5t-43 35.5q-66 54 -101 83q-40 33 -85 72q-50 -42 -86 -72q-34 -29 -100 -83q-77 -63 -87 -71q-40 -32 -42 -34l-3 -2l-18 18l4 2q44 53 104.5 127.5t67.5 82.5q60 74 92 110q29 34 41 42q10 7 21 7h4h2h6q9 0 20 -7q13 -8 42 -43
q10 -12 92 -110q9 -11 172 -209l2 -2l-17 -18z" />
    <glyph glyph-name="otilde" unicode="&#xf5;" horiz-adv-x="1783" 
d="M1712 825q0 -169 -52 -319t-155 -265q-103 -116 -255 -181q-153 -66 -353 -66q-202 0 -355 66q-152 65 -255 181q-103 115 -155 265t-52 319q0 170 52 319t155 264q102 114 255 180q155 67 355 67q198 0 353 -67q153 -66 255 -180q103 -115 155 -264t52 -319zM897 25
q169 0 294 64t211 174q84 107 128 255q43 144 43 307q0 165 -43 307q-44 145 -128 253q-87 112 -211 175q-125 64 -294 64q-168 0 -295 -64q-126 -64 -213 -175q-86 -110 -129 -253q-43 -142 -43 -307q0 -163 43 -307q44 -146 129 -255t213 -174q127 -64 295 -64zM1163 1931
h23v-6q-7 -89 -53 -127q-44 -37 -93 -37q-42 0 -82 18q-54 24 -82 37q-16 7 -45 19.5t-37 16.5q-41 18 -77 18h-2l-18 -2q-12 -1 -28 -11q-15 -9 -30 -30q-14 -20 -16 -58v-4h-25v4q2 30 11 62q9 31 27 56q19 27 43 41q27 16 60 16q38 0 81 -17q47 -18 84 -37q34 -17 83 -37
q39 -16 80 -16q53 0 73 31q18 28 23 59v4z" />
    <glyph glyph-name="odieresis" unicode="&#xf6;" horiz-adv-x="1783" 
d="M1712 825q0 -169 -52 -319t-155 -265q-103 -116 -255 -181q-153 -66 -353 -66q-202 0 -355 66q-152 65 -255 181q-103 115 -155 265t-52 319q0 170 52 319t155 264q102 114 255 180q155 67 355 67q198 0 353 -67q153 -66 255 -180q103 -115 155 -264t52 -319zM897 25
q169 0 294 64t211 174q84 107 128 255q43 144 43 307q0 165 -43 307q-44 145 -128 253q-87 112 -211 175q-125 64 -294 64q-168 0 -295 -64q-126 -64 -213 -175q-86 -110 -129 -253q-43 -142 -43 -307q0 -163 43 -307q44 -146 129 -255t213 -174q127 -64 295 -64zM807 1866
q0 -38 -23 -56q-22 -18 -51 -18q-28 0 -52 18t-24 56q0 37 24 55t52 18q29 0 51 -18q23 -18 23 -55zM1124 1866q0 -39 -23 -56q-24 -18 -52 -18q-29 0 -52 18q-22 18 -22 56q0 37 22 55t52 18q28 0 52 -18q23 -17 23 -55z" />
    <glyph glyph-name="oslash" unicode="&#xf8;" horiz-adv-x="1783" 
d="M604 37q-128 43 -227 121q-100 79 -165 181q-66 104 -99 227q-33 124 -33 259q0 170 52 319t155 264q102 114 255 180q155 67 355 67q65 0 132 -8q57 -7 120 -25l78 223h43l-80 -235q128 -43 226 -120q99 -77 164 -180q66 -103 99 -227q33 -123 33 -258q0 -169 -52 -319
t-155 -265q-103 -116 -255 -181q-153 -66 -353 -66q-136 0 -252 31l-90 -261h-43zM217 825q0 -123 26 -239q25 -114 75 -213q49 -97 126 -173q76 -75 177 -120l516 1503q-112 41 -240 41q-168 0 -295 -64q-126 -64 -213 -175q-86 -110 -129 -253q-43 -142 -43 -307zM897 25
q169 0 294 64t211 174q84 107 128 255q43 144 43 307q0 122 -26 238q-25 111 -76 212q-50 97 -124 172q-76 76 -173 120l-517 -1504q110 -38 240 -38z" />
    <glyph glyph-name="ugrave" unicode="&#xf9;" horiz-adv-x="1810" 
d="M1395 1638h321v-39h-22q-23 0 -43 -14q-21 -15 -37 -38q-16 -24 -27 -54q-10 -29 -10 -63v-904q0 -104 -45 -200q-45 -97 -129 -170q-84 -74 -207 -117q-122 -43 -276 -43q-160 0 -288 48q-127 48 -216 131q-88 82 -135 193q-48 113 -48 232v850q0 60 -31 104
q-32 45 -73 45h-18v39h368v-39h-18q-39 0 -69 -40q-29 -40 -34 -97l2 -889q0 -107 40 -202q41 -97 114 -170q74 -73 180 -117q105 -43 242 -43q141 0 253 41t189 109q79 70 119 159q41 91 41 189l2 903q-5 64 -40 110q-36 47 -83 47h-22v39zM1077 1735q-150 125 -210 173
q-20 16 -110 91q-36 30 -42 42t-6 25q0 18 14 36q15 20 43 20h2q10 0 20 -6q11 -6 41 -41q49 -56 93 -110q142 -174 174 -212l4 -2l-19 -18z" />
    <glyph glyph-name="uacute" unicode="&#xfa;" horiz-adv-x="1810" 
d="M1395 1638h321v-39h-22q-23 0 -43 -14q-21 -15 -37 -38q-16 -24 -27 -54q-10 -29 -10 -63v-904q0 -104 -45 -200q-45 -97 -129 -170q-84 -74 -207 -117q-122 -43 -276 -43q-160 0 -288 48q-127 48 -216 131q-88 82 -135 193q-48 113 -48 232v850q0 60 -31 104
q-32 45 -73 45h-18v39h368v-39h-18q-39 0 -69 -40q-29 -40 -34 -97l2 -889q0 -107 40 -202q41 -97 114 -170q74 -73 180 -117q105 -43 242 -43q141 0 253 41t189 109q79 70 119 159q41 91 41 189l2 903q-5 64 -40 110q-36 47 -83 47h-22v39zM727 1733l-18 18l4 2
q116 141 173 212q53 67 91 110q31 35 42 41q12 6 21 6h2q28 0 43 -20t15 -36q0 -13 -6 -25t-42 -42q-66 -55 -111 -91q-60 -48 -210 -173z" />
    <glyph glyph-name="ucircumflex" unicode="&#xfb;" horiz-adv-x="1810" 
d="M1395 1638h321v-39h-22q-23 0 -43 -14q-21 -15 -37 -38q-16 -24 -27 -54q-10 -29 -10 -63v-904q0 -104 -45 -200q-45 -97 -129 -170q-84 -74 -207 -117q-122 -43 -276 -43q-160 0 -288 48q-127 48 -216 131q-88 82 -135 193q-48 113 -48 232v850q0 60 -31 104
q-32 45 -73 45h-18v39h368v-39h-18q-39 0 -69 -40q-29 -40 -34 -97l2 -889q0 -107 40 -202q41 -97 114 -170q74 -73 180 -117q105 -43 242 -43q141 0 253 41t189 109q79 70 119 159q41 91 41 189l2 903q-5 64 -40 110q-36 47 -83 47h-22v39zM1219 1735q-6 6 -41 34
q-14 11 -43 35.5t-43 35.5q-11 9 -46.5 37.5t-55.5 45.5q-40 33 -85 72q-50 -42 -86 -72q-34 -29 -100 -83q-77 -63 -87 -71q-40 -32 -42 -34l-2 -2l-19 18l4 2q44 53 104.5 127.5t67.5 82.5q44 54 93 110q29 34 41 42q10 7 20 7h4h2h6q9 0 20 -7q13 -8 42 -43
q10 -12 92 -110q9 -11 172 -209l2 -2l-16 -18z" />
    <glyph glyph-name="udieresis" unicode="&#xfc;" horiz-adv-x="1810" 
d="M1395 1638h321v-39h-22q-23 0 -43 -14q-21 -15 -37 -38q-16 -24 -27 -54q-10 -29 -10 -63v-904q0 -104 -45 -200q-45 -97 -129 -170q-84 -74 -207 -117q-122 -43 -276 -43q-160 0 -288 48q-127 48 -216 131q-88 82 -135 193q-48 113 -48 232v850q0 60 -31 104
q-32 45 -73 45h-18v39h368v-39h-18q-39 0 -69 -40q-29 -40 -34 -97l2 -889q0 -107 40 -202q41 -97 114 -170q74 -73 180 -117q105 -43 242 -43q141 0 253 41t189 109q79 70 119 159q41 91 41 189l2 903q-5 64 -40 110q-36 47 -83 47h-22v39zM821 1866q0 -38 -22 -56
q-23 -18 -51 -18q-29 0 -53 18q-23 17 -23 56q0 38 23 55q24 18 53 18q28 0 51 -18q22 -18 22 -55zM1139 1866q0 -38 -24 -56t-52 -18q-29 0 -51 18q-23 18 -23 56q0 37 23 55q22 18 51 18q28 0 52 -18t24 -55z" />
    <glyph glyph-name="yacute" unicode="&#xfd;" horiz-adv-x="1640" 
d="M1264 1638h299v-39q-105 0 -199 -147q-16 -24 -27 -42q-1 -2 -10 -18t-16 -27q-9 -15 -44 -75q-6 -10 -32 -54.5t-45 -77.5q-65 -112 -127 -216q-110 -185 -193 -326v-430q0 -65 29 -106t76 -41h18v-39h-368v39h18q47 0 76 41t29 106v383l-498 883q-47 73 -90 110t-90 37
v39h364v-39h-20q-49 0 -49 -45q0 -41 32 -92l461 -798l449 759q43 73 43 119q0 57 -62 57h-16q-8 0 -8 21v18zM643 1733l-18 18l4 2q116 141 173 212q54 67 91 110q31 35 42 41q12 6 21 6h2q28 0 43 -20t15 -36q0 -13 -6 -25t-42 -42q-66 -55 -111 -91q-60 -48 -210 -173z
" />
    <glyph glyph-name="ydieresis" unicode="&#xff;" horiz-adv-x="1640" 
d="M1264 1638h299v-39q-105 0 -199 -147q-16 -24 -27 -42q-1 -2 -10 -18t-16 -27q-9 -15 -44 -75q-6 -10 -32 -54.5t-45 -77.5q-65 -112 -127 -216q-110 -185 -193 -326v-430q0 -65 29 -106t76 -41h18v-39h-368v39h18q47 0 76 41t29 106v383l-498 883q-47 73 -90 110t-90 37
v39h364v-39h-20q-49 0 -49 -45q0 -41 32 -92l461 -798l449 759q43 73 43 119q0 57 -62 57h-16q-8 0 -8 21v18zM735 1866q0 -38 -22 -56q-23 -18 -51 -18q-29 0 -53 18q-23 17 -23 56q0 38 23 55q24 18 53 18q28 0 51 -18q22 -18 22 -55zM1053 1866q0 -38 -24 -56t-52 -18
q-29 0 -51 18q-23 18 -23 56q0 37 23 55q22 18 51 18q28 0 52 -18t24 -55z" />
    <glyph glyph-name="Amacron" unicode="&#x100;" horiz-adv-x="1716" 
d="M383 0h-328v39q58 0 97 33t69 102l602 1466h39h-2l627 -1456q30 -69 71 -107t97 -38v-39h-387v39h24q41 0 64 21q22 21 22 59q0 13 -3 28q-3 17 -10 34q-12 31 -20 48q-15 33 -32 74q-119 2 -224 36q-108 36 -203 72q-98 37 -189 69q-93 32 -181 32q-70 0 -127 -20
q-62 -150 -71 -171q-1 -3 -38 -97q-15 -38 -17 -50q-3 -17 -3 -35q0 -45 26 -73q26 -27 72 -27h25v-39zM801 1493l-395 -963q51 15 110 15q88 0 183 -31q76 -25 187 -69q85 -34 197 -70q100 -32 215 -37zM606 1823v32h504v-32h-504z" />
    <glyph glyph-name="amacron" unicode="&#x101;" horiz-adv-x="1716" 
d="M383 0h-328v39q58 0 97 33t69 102l602 1466h39h-2l627 -1456q30 -69 71 -107t97 -38v-39h-387v39h24q41 0 64 21q22 21 22 59q0 13 -3 28q-3 17 -10 34q-12 31 -20 48q-15 33 -32 74q-119 2 -224 36q-108 36 -203 72q-98 37 -189 69q-93 32 -181 32q-70 0 -127 -20
q-62 -150 -71 -171q-1 -3 -38 -97q-15 -38 -17 -50q-3 -17 -3 -35q0 -45 26 -73q26 -27 72 -27h25v-39zM801 1493l-395 -963q51 15 110 15q88 0 183 -31q76 -25 187 -69q85 -34 197 -70q100 -32 215 -37zM606 1823v32h504v-32h-504z" />
    <glyph glyph-name="Abreve" unicode="&#x102;" horiz-adv-x="1716" 
d="M383 0h-328v39q58 0 97 33t69 102l602 1466h39h-2l627 -1456q30 -69 71 -107t97 -38v-39h-387v39h24q41 0 64 21q22 21 22 59q0 13 -3 28q-3 17 -10 34q-12 31 -20 48q-15 33 -32 74q-119 2 -224 36q-108 36 -203 72q-98 37 -189 69q-93 32 -181 32q-70 0 -127 -20
q-62 -150 -71 -171q-1 -3 -38 -97q-15 -38 -17 -50q-3 -17 -3 -35q0 -45 26 -73q26 -27 72 -27h25v-39zM801 1493l-395 -963q51 15 110 15q88 0 183 -31q76 -25 187 -69q85 -34 197 -70q100 -32 215 -37zM1122 1954q-16 -96 -90 -156q-72 -59 -180 -59t-180 59
q-74 60 -90 156l18 2q10 -65 80 -103q66 -36 172 -36q108 0 174 36q70 38 80 103z" />
    <glyph glyph-name="abreve" unicode="&#x103;" horiz-adv-x="1716" 
d="M383 0h-328v39q58 0 97 33t69 102l602 1466h39h-2l627 -1456q30 -69 71 -107t97 -38v-39h-387v39h24q41 0 64 21q22 21 22 59q0 13 -3 28q-3 17 -10 34q-12 31 -20 48q-15 33 -32 74q-119 2 -224 36q-108 36 -203 72q-98 37 -189 69q-93 32 -181 32q-70 0 -127 -20
q-62 -150 -71 -171q-1 -3 -38 -97q-15 -38 -17 -50q-3 -17 -3 -35q0 -45 26 -73q26 -27 72 -27h25v-39zM801 1493l-395 -963q51 15 110 15q88 0 183 -31q76 -25 187 -69q85 -34 197 -70q100 -32 215 -37zM1122 1954q-16 -96 -90 -156q-72 -59 -180 -59t-180 59
q-74 60 -90 156l18 2q10 -65 80 -103q66 -36 172 -36q108 0 174 36q70 38 80 103z" />
    <glyph glyph-name="Aogonek" unicode="&#x104;" horiz-adv-x="1716" 
d="M383 0h-328v39q58 0 97 33t69 102l602 1466h39h-2l627 -1456q30 -69 71 -107t97 -38v-39h-387v39h24q41 0 64 21q22 21 22 59q0 13 -3 28q-3 17 -10 34q-12 31 -20 48q-15 33 -32 74q-119 2 -224 36q-108 36 -203 72q-98 37 -189 69q-93 32 -181 32q-70 0 -127 -20
q-62 -150 -71 -171q-1 -3 -38 -97q-15 -38 -17 -50q-3 -17 -3 -35q0 -45 26 -73q26 -27 72 -27h25v-39zM801 1493l-395 -963q51 15 110 15q88 0 183 -31q76 -25 187 -69q85 -34 197 -70q100 -32 215 -37zM1454 -520q-77 0 -129 41q-51 41 -51 112q0 80 63 152q60 68 187 166
h53q-67 -52 -106 -102t-56 -88q-17 -39 -22 -67q-4 -24 -4 -40l1 -3q0 -3 0.5 -8.5t0.5 -11.5q1 -21 12 -45q11 -26 31 -44q20 -19 59 -19q23 0 50 8t45 19q20 12 33 21l13 9l21 -24q-31 -27 -65 -43q-33 -16 -59 -23q-27 -7 -47 -9q-13 -1 -26 -1h-4z" />
    <glyph glyph-name="aogonek" unicode="&#x105;" horiz-adv-x="1716" 
d="M383 0h-328v39q58 0 97 33t69 102l602 1466h39h-2l627 -1456q30 -69 71 -107t97 -38v-39h-387v39h24q41 0 64 21q22 21 22 59q0 13 -3 28q-3 17 -10 34q-12 31 -20 48q-15 33 -32 74q-119 2 -224 36q-108 36 -203 72q-98 37 -189 69q-93 32 -181 32q-70 0 -127 -20
q-62 -150 -71 -171q-1 -3 -38 -97q-15 -38 -17 -50q-3 -17 -3 -35q0 -45 26 -73q26 -27 72 -27h25v-39zM801 1493l-395 -963q51 15 110 15q88 0 183 -31q76 -25 187 -69q85 -34 197 -70q100 -32 215 -37zM1454 -520q-77 0 -129 41q-51 41 -51 112q0 80 63 152q60 68 187 166
h53q-67 -52 -106 -102t-56 -88q-17 -39 -22 -67q-4 -24 -4 -40l1 -3q0 -3 0.5 -8.5t0.5 -11.5q1 -21 12 -45q11 -26 31 -44q20 -19 59 -19q23 0 50 8t45 19q20 12 33 21l13 9l21 -24q-31 -27 -65 -43q-33 -16 -59 -23q-27 -7 -47 -9q-13 -1 -26 -1h-4z" />
    <glyph glyph-name="Cacute" unicode="&#x106;" horiz-adv-x="1708" 
d="M936 -16q-196 0 -349 59q-160 62 -269 169q-112 111 -173 262q-61 152 -61 341q0 187 61 339q61 151 173 262q109 107 269 169q156 60 349 60q86 0 183 -11q103 -12 179 -29q81 -19 162 -47q67 -24 135 -61l11 -231h-41q-1 3 -7.5 14t-9.5 18q-2 5 -7 16t-7 17
q-50 103 -146 174q-98 72 -210 90q0 2 -35 7q-34 4 -79 6q-16 1 -43.5 2.5t-39.5 1.5q-11 0 -21.5 0.5t-16 1t-7.5 0.5q-158 0 -292 -58q-133 -57 -226 -161q-95 -106 -146 -252q-51 -147 -51 -328t51 -328q51 -148 146 -253t226 -162q134 -58 292 -58q27 0 81 2q27 1 81 7
q149 17 266 91q119 75 170 183q2 6 7 17t7 16q3 7 9.5 18t7.5 14h41l-11 -231q-63 -34 -135 -60q-81 -28 -162 -47q-85 -19 -179 -30q-89 -10 -183 -10zM1595 1495q-1 -3 -4 -6q-2 -2 -2 -6zM766 1733l-18 18l4 2q116 141 173 212q54 67 91 110q31 35 42 41q12 6 21 6h2
q28 0 43 -20t15 -36q0 -13 -6 -25t-42 -42q-66 -55 -111 -91q-60 -48 -210 -173z" />
    <glyph glyph-name="cacute" unicode="&#x107;" horiz-adv-x="1708" 
d="M936 -16q-196 0 -349 59q-160 62 -269 169q-112 111 -173 262q-61 152 -61 341q0 187 61 339q61 151 173 262q109 107 269 169q156 60 349 60q86 0 183 -11q103 -12 179 -29q81 -19 162 -47q67 -24 135 -61l11 -231h-41q-1 3 -7.5 14t-9.5 18q-2 5 -7 16t-7 17
q-50 103 -146 174q-98 72 -210 90q0 2 -35 7q-34 4 -79 6q-16 1 -43.5 2.5t-39.5 1.5q-11 0 -21.5 0.5t-16 1t-7.5 0.5q-158 0 -292 -58q-133 -57 -226 -161q-95 -106 -146 -252q-51 -147 -51 -328t51 -328q51 -148 146 -253t226 -162q134 -58 292 -58q27 0 81 2q27 1 81 7
q149 17 266 91q119 75 170 183q2 6 7 17t7 16q3 7 9.5 18t7.5 14h41l-11 -231q-63 -34 -135 -60q-81 -28 -162 -47q-85 -19 -179 -30q-89 -10 -183 -10zM1595 1495q-1 -3 -4 -6q-2 -2 -2 -6zM766 1733l-18 18l4 2q116 141 173 212q54 67 91 110q31 35 42 41q12 6 21 6h2
q28 0 43 -20t15 -36q0 -13 -6 -25t-42 -42q-66 -55 -111 -91q-60 -48 -210 -173z" />
    <glyph glyph-name="Ccircumflex" unicode="&#x108;" horiz-adv-x="1708" 
d="M936 -16q-196 0 -349 59q-160 62 -269 169q-112 111 -173 262q-61 152 -61 341q0 187 61 339q61 151 173 262q109 107 269 169q156 60 349 60q86 0 183 -11q103 -12 179 -29q81 -19 162 -47q67 -24 135 -61l11 -231h-41q-1 3 -7.5 14t-9.5 18q-2 5 -7 16t-7 17
q-50 103 -146 174q-98 72 -210 90q0 2 -35 7q-34 4 -79 6q-16 1 -43.5 2.5t-39.5 1.5q-11 0 -21.5 0.5t-16 1t-7.5 0.5q-158 0 -292 -58q-133 -57 -226 -161q-95 -106 -146 -252q-51 -147 -51 -328t51 -328q51 -148 146 -253t226 -162q134 -58 292 -58q27 0 81 2q27 1 81 7
q149 17 266 91q119 75 170 183q2 6 7 17t7 16q3 7 9.5 18t7.5 14h41l-11 -231q-63 -34 -135 -60q-81 -28 -162 -47q-85 -19 -179 -30q-89 -10 -183 -10zM1595 1495q-1 -3 -4 -6q-2 -2 -2 -6zM1264 1735q-6 6 -41 34q-14 11 -43 35.5t-43 35.5q-11 9 -46.5 37.5t-55.5 45.5
q-40 33 -85 72q-50 -42 -86 -72q-34 -29 -100 -83q-77 -63 -87 -71q-40 -32 -42 -34l-2 -2l-19 18l4 2q37 45 94.5 115t78.5 95q60 74 92 110q29 34 41 42q10 7 20 7h4h2h6q9 0 20 -7q13 -8 42 -43q10 -12 92 -110q9 -11 172 -209l2 -2l-16 -18z" />
    <glyph glyph-name="ccircumflex" unicode="&#x109;" horiz-adv-x="1708" 
d="M936 -16q-196 0 -349 59q-160 62 -269 169q-112 111 -173 262q-61 152 -61 341q0 187 61 339q61 151 173 262q109 107 269 169q156 60 349 60q86 0 183 -11q103 -12 179 -29q81 -19 162 -47q67 -24 135 -61l11 -231h-41q-1 3 -7.5 14t-9.5 18q-2 5 -7 16t-7 17
q-50 103 -146 174q-98 72 -210 90q0 2 -35 7q-34 4 -79 6q-16 1 -43.5 2.5t-39.5 1.5q-11 0 -21.5 0.5t-16 1t-7.5 0.5q-158 0 -292 -58q-133 -57 -226 -161q-95 -106 -146 -252q-51 -147 -51 -328t51 -328q51 -148 146 -253t226 -162q134 -58 292 -58q27 0 81 2q27 1 81 7
q149 17 266 91q119 75 170 183q2 6 7 17t7 16q3 7 9.5 18t7.5 14h41l-11 -231q-63 -34 -135 -60q-81 -28 -162 -47q-85 -19 -179 -30q-89 -10 -183 -10zM1595 1495q-1 -3 -4 -6q-2 -2 -2 -6zM1264 1735q-6 6 -41 34q-14 11 -43 35.5t-43 35.5q-11 9 -46.5 37.5t-55.5 45.5
q-40 33 -85 72q-50 -42 -86 -72q-34 -29 -100 -83q-77 -63 -87 -71q-40 -32 -42 -34l-2 -2l-19 18l4 2q37 45 94.5 115t78.5 95q60 74 92 110q29 34 41 42q10 7 20 7h4h2h6q9 0 20 -7q13 -8 42 -43q10 -12 92 -110q9 -11 172 -209l2 -2l-16 -18z" />
    <glyph glyph-name="Cdotaccent" unicode="&#x10a;" horiz-adv-x="1708" 
d="M936 -16q-196 0 -349 59q-160 62 -269 169q-112 111 -173 262q-61 152 -61 341q0 187 61 339q61 151 173 262q109 107 269 169q156 60 349 60q86 0 183 -11q103 -12 179 -29q81 -19 162 -47q67 -24 135 -61l11 -231h-41q-1 3 -7.5 14t-9.5 18q-2 5 -7 16t-7 17
q-50 103 -146 174q-98 72 -210 90q0 2 -35 7q-34 4 -79 6q-16 1 -43.5 2.5t-39.5 1.5q-11 0 -21.5 0.5t-16 1t-7.5 0.5q-158 0 -292 -58q-133 -57 -226 -161q-95 -106 -146 -252q-51 -147 -51 -328t51 -328q51 -148 146 -253t226 -162q134 -58 292 -58q27 0 81 2q27 1 81 7
q149 17 266 91q119 75 170 183q2 6 7 17t7 16q3 7 9.5 18t7.5 14h41l-11 -231q-63 -34 -135 -60q-81 -28 -162 -47q-85 -19 -179 -30q-89 -10 -183 -10zM1595 1495q-1 -3 -4 -6q-2 -2 -2 -6zM950 1939q32 0 57 -19t25 -60q0 -42 -25 -61t-57 -19q-31 0 -56 19q-26 20 -26 61
q0 40 26 60q25 19 56 19z" />
    <glyph glyph-name="cdotaccent" unicode="&#x10b;" horiz-adv-x="1708" 
d="M936 -16q-196 0 -349 59q-160 62 -269 169q-112 111 -173 262q-61 152 -61 341q0 187 61 339q61 151 173 262q109 107 269 169q156 60 349 60q86 0 183 -11q103 -12 179 -29q81 -19 162 -47q67 -24 135 -61l11 -231h-41q-1 3 -7.5 14t-9.5 18q-2 5 -7 16t-7 17
q-50 103 -146 174q-98 72 -210 90q0 2 -35 7q-34 4 -79 6q-16 1 -43.5 2.5t-39.5 1.5q-11 0 -21.5 0.5t-16 1t-7.5 0.5q-158 0 -292 -58q-133 -57 -226 -161q-95 -106 -146 -252q-51 -147 -51 -328t51 -328q51 -148 146 -253t226 -162q134 -58 292 -58q27 0 81 2q27 1 81 7
q149 17 266 91q119 75 170 183q2 6 7 17t7 16q3 7 9.5 18t7.5 14h41l-11 -231q-63 -34 -135 -60q-81 -28 -162 -47q-85 -19 -179 -30q-89 -10 -183 -10zM1595 1495q-1 -3 -4 -6q-2 -2 -2 -6zM950 1939q32 0 57 -19t25 -60q0 -42 -25 -61t-57 -19q-31 0 -56 19q-26 20 -26 61
q0 40 26 60q25 19 56 19z" />
    <glyph glyph-name="Ccaron" unicode="&#x10c;" horiz-adv-x="1708" 
d="M936 -16q-196 0 -349 59q-160 62 -269 169q-112 111 -173 262q-61 152 -61 341q0 187 61 339q61 151 173 262q109 107 269 169q156 60 349 60q86 0 183 -11q103 -12 179 -29q81 -19 162 -47q67 -24 135 -61l11 -231h-41q-1 3 -7.5 14t-9.5 18q-2 5 -7 16t-7 17
q-50 103 -146 174q-98 72 -210 90q0 2 -35 7q-34 4 -79 6q-16 1 -43.5 2.5t-39.5 1.5q-11 0 -21.5 0.5t-16 1t-7.5 0.5q-158 0 -292 -58q-133 -57 -226 -161q-95 -106 -146 -252q-51 -147 -51 -328t51 -328q51 -148 146 -253t226 -162q134 -58 292 -58q27 0 81 2q27 1 81 7
q149 17 266 91q119 75 170 183q2 6 7 17t7 16q3 7 9.5 18t7.5 14h41l-11 -231q-63 -34 -135 -60q-81 -28 -162 -47q-85 -19 -179 -30q-89 -10 -183 -10zM1595 1495q-1 -3 -4 -6q-2 -2 -2 -6zM1272 2122l16 -19l-2 -2q-163 -198 -172 -209q-22 -27 -52.5 -63t-39.5 -46
q-29 -35 -42 -43q-11 -7 -19 -7h-7h-2h-4q-10 0 -20 7q-12 8 -41 42q-46 53 -92 109q-7 8 -67.5 82.5t-104.5 127.5l-5 2l19 19l2 -2q7 -7 42 -35q10 -8 87 -71q66 -54 100 -83q15 -13 30.5 -26t32 -26t23.5 -19q16 14 85 71q20 17 55.5 45.5t46.5 37.5q14 11 43 35.5
t43 35.5q30 24 41 35z" />
    <glyph glyph-name="ccaron" unicode="&#x10d;" horiz-adv-x="1708" 
d="M936 -16q-196 0 -349 59q-160 62 -269 169q-112 111 -173 262q-61 152 -61 341q0 187 61 339q61 151 173 262q109 107 269 169q156 60 349 60q86 0 183 -11q103 -12 179 -29q81 -19 162 -47q67 -24 135 -61l11 -231h-41q-1 3 -7.5 14t-9.5 18q-2 5 -7 16t-7 17
q-50 103 -146 174q-98 72 -210 90q0 2 -35 7q-34 4 -79 6q-16 1 -43.5 2.5t-39.5 1.5q-11 0 -21.5 0.5t-16 1t-7.5 0.5q-158 0 -292 -58q-133 -57 -226 -161q-95 -106 -146 -252q-51 -147 -51 -328t51 -328q51 -148 146 -253t226 -162q134 -58 292 -58q27 0 81 2q27 1 81 7
q149 17 266 91q119 75 170 183q2 6 7 17t7 16q3 7 9.5 18t7.5 14h41l-11 -231q-63 -34 -135 -60q-81 -28 -162 -47q-85 -19 -179 -30q-89 -10 -183 -10zM1595 1495q-1 -3 -4 -6q-2 -2 -2 -6zM1272 2122l16 -19l-2 -2q-163 -198 -172 -209q-22 -27 -52.5 -63t-39.5 -46
q-29 -35 -42 -43q-11 -7 -19 -7h-7h-2h-4q-10 0 -20 7q-12 8 -41 42q-46 53 -92 109q-7 8 -67.5 82.5t-104.5 127.5l-5 2l19 19l2 -2q7 -7 42 -35q10 -8 87 -71q66 -54 100 -83q15 -13 30.5 -26t32 -26t23.5 -19q16 14 85 71q20 17 55.5 45.5t46.5 37.5q14 11 43 35.5
t43 35.5q30 24 41 35z" />
    <glyph glyph-name="Dcaron" unicode="&#x10e;" horiz-adv-x="1683" 
d="M764 1638q192 0 345 -58q155 -59 264 -166q110 -109 170 -258q61 -152 61 -335t-53 -336t-146 -259t-228 -167q-131 -59 -296 -59h-772v39q59 0 91 35q31 34 31 112v1266q0 70 -28 110t-76 40h-18v36h655zM881 33q136 0 245 56q111 57 190 160q78 101 122 249
q43 144 43 323q0 177 -51 322t-146 249q-93 101 -226 159q-132 57 -294 57h-410v-1575h527zM1159 2122l17 -19l-2 -2q-106 -129 -173 -209q-22 -27 -52.5 -63t-39.5 -46q-29 -35 -42 -43q-11 -7 -19 -7h-6h-2h-4q-11 0 -21 7q-12 8 -41 42q-46 53 -92 109q-7 8 -67.5 82.5
t-104.5 127.5l-4 2l18 19l2 -2q7 -7 42 -35q10 -8 87 -71q91 -74 101 -83q15 -13 30.5 -26t32 -26t23.5 -19q16 14 85 71q35 29 101 83q14 11 43 35.5t43 35.5q30 24 41 35z" />
    <glyph glyph-name="dcaron" unicode="&#x10f;" horiz-adv-x="1683" 
d="M764 1638q192 0 345 -58q155 -59 264 -166q110 -109 170 -258q61 -152 61 -335t-53 -336t-146 -259t-228 -167q-131 -59 -296 -59h-772v39q59 0 91 35q31 34 31 112v1266q0 70 -28 110t-76 40h-18v36h655zM881 33q136 0 245 56q111 57 190 160q78 101 122 249
q43 144 43 323q0 177 -51 322t-146 249q-93 101 -226 159q-132 57 -294 57h-410v-1575h527zM1159 2122l17 -19l-2 -2q-106 -129 -173 -209q-22 -27 -52.5 -63t-39.5 -46q-29 -35 -42 -43q-11 -7 -19 -7h-6h-2h-4q-11 0 -21 7q-12 8 -41 42q-46 53 -92 109q-7 8 -67.5 82.5
t-104.5 127.5l-4 2l18 19l2 -2q7 -7 42 -35q10 -8 87 -71q91 -74 101 -83q15 -13 30.5 -26t32 -26t23.5 -19q16 14 85 71q35 29 101 83q14 11 43 35.5t43 35.5q30 24 41 35z" />
    <glyph glyph-name="Dcroat" unicode="&#x110;" horiz-adv-x="1800" 
d="M78 848h241v604q0 70 -28 110t-76 40h-18v36h655q192 0 345 -58q155 -59 264 -166q110 -109 170 -258q61 -152 61 -335t-53 -336t-146 -259t-228 -167q-131 -59 -296 -59h-772v39q59 0 91 35q31 34 31 112v609h-241v53zM969 33q136 0 245 56q111 57 190 160
q78 101 122 249q43 144 43 323q0 177 -51 322t-146 249q-93 101 -226 159q-132 57 -294 57h-410v-760h254v-53h-254v-762h527z" />
    <glyph glyph-name="dcroat" unicode="&#x111;" horiz-adv-x="1800" 
d="M78 848h241v604q0 70 -28 110t-76 40h-18v36h655q192 0 345 -58q155 -59 264 -166q110 -109 170 -258q61 -152 61 -335t-53 -336t-146 -259t-228 -167q-131 -59 -296 -59h-772v39q59 0 91 35q31 34 31 112v609h-241v53zM969 33q136 0 245 56q111 57 190 160
q78 101 122 249q43 144 43 323q0 177 -51 322t-146 249q-93 101 -226 159q-132 57 -294 57h-410v-760h254v-53h-254v-762h527z" />
    <glyph glyph-name="Emacron" unicode="&#x112;" 
d="M1360 250q-5 -25 -17 -85.5t-18 -86.5q-5 -23 -16 -78h-1200v39q59 0 91 35q31 34 31 112v1266q0 68 -28 108q-27 39 -76 39h-18v39h1185q0 -67 4 -126q6 -89 7 -126h-33l-15 35q-42 88 -129 137q-89 50 -192 50h-582v-621h512q90 0 158 28q65 27 82 75l8 18h33v-291h-33
l-8 21q-21 53 -85 86q-63 32 -155 32h-512v-925h600q105 0 200 50t151 136l24 33h31zM473 1823v32h504v-32h-504z" />
    <glyph glyph-name="emacron" unicode="&#x113;" 
d="M1360 250q-5 -25 -17 -85.5t-18 -86.5q-5 -23 -16 -78h-1200v39q59 0 91 35q31 34 31 112v1266q0 68 -28 108q-27 39 -76 39h-18v39h1185q0 -67 4 -126q6 -89 7 -126h-33l-15 35q-42 88 -129 137q-89 50 -192 50h-582v-621h512q90 0 158 28q65 27 82 75l8 18h33v-291h-33
l-8 21q-21 53 -85 86q-63 32 -155 32h-512v-925h600q105 0 200 50t151 136l24 33h31zM473 1823v32h504v-32h-504z" />
    <glyph glyph-name="Ebreve" unicode="&#x114;" 
d="M1360 250q-5 -25 -17 -85.5t-18 -86.5q-5 -23 -16 -78h-1200v39q59 0 91 35q31 34 31 112v1266q0 68 -28 108q-27 39 -76 39h-18v39h1185q0 -67 4 -126q6 -89 7 -126h-33l-15 35q-42 88 -129 137q-89 50 -192 50h-582v-621h512q90 0 158 28q65 27 82 75l8 18h33v-291h-33
l-8 21q-21 53 -85 86q-63 32 -155 32h-512v-925h600q105 0 200 50t151 136l24 33h31zM995 1954q-17 -96 -90 -156q-72 -59 -180 -59t-180 59q-73 60 -90 156l18 2q10 -65 80 -103q66 -36 172 -36q108 0 174 36q70 38 80 103z" />
    <glyph glyph-name="ebreve" unicode="&#x115;" 
d="M1360 250q-5 -25 -17 -85.5t-18 -86.5q-5 -23 -16 -78h-1200v39q59 0 91 35q31 34 31 112v1266q0 68 -28 108q-27 39 -76 39h-18v39h1185q0 -67 4 -126q6 -89 7 -126h-33l-15 35q-42 88 -129 137q-89 50 -192 50h-582v-621h512q90 0 158 28q65 27 82 75l8 18h33v-291h-33
l-8 21q-21 53 -85 86q-63 32 -155 32h-512v-925h600q105 0 200 50t151 136l24 33h31zM995 1954q-17 -96 -90 -156q-72 -59 -180 -59t-180 59q-73 60 -90 156l18 2q10 -65 80 -103q66 -36 172 -36q108 0 174 36q70 38 80 103z" />
    <glyph glyph-name="Edotaccent" unicode="&#x116;" 
d="M1360 250q-5 -25 -17 -85.5t-18 -86.5q-5 -23 -16 -78h-1200v39q59 0 91 35q31 34 31 112v1266q0 68 -28 108q-27 39 -76 39h-18v39h1185q0 -67 4 -126q6 -89 7 -126h-33l-15 35q-42 88 -129 137q-89 50 -192 50h-582v-621h512q90 0 158 28q65 27 82 75l8 18h33v-291h-33
l-8 21q-21 53 -85 86q-63 32 -155 32h-512v-925h600q105 0 200 50t151 136l24 33h31zM725 1939q31 0 56 -19q26 -20 26 -60q0 -41 -26 -61q-25 -19 -56 -19t-56 19q-26 20 -26 61q0 40 26 60q25 19 56 19z" />
    <glyph glyph-name="edotaccent" unicode="&#x117;" 
d="M1360 250q-5 -25 -17 -85.5t-18 -86.5q-5 -23 -16 -78h-1200v39q59 0 91 35q31 34 31 112v1266q0 68 -28 108q-27 39 -76 39h-18v39h1185q0 -67 4 -126q6 -89 7 -126h-33l-15 35q-42 88 -129 137q-89 50 -192 50h-582v-621h512q90 0 158 28q65 27 82 75l8 18h33v-291h-33
l-8 21q-21 53 -85 86q-63 32 -155 32h-512v-925h600q105 0 200 50t151 136l24 33h31zM725 1939q31 0 56 -19q26 -20 26 -60q0 -41 -26 -61q-25 -19 -56 -19t-56 19q-26 20 -26 61q0 40 26 60q25 19 56 19z" />
    <glyph glyph-name="Eogonek" unicode="&#x118;" 
d="M1186 -471q-77 0 -129 41q-51 40 -51 113q0 79 63 151q62 70 186 166h-1146v39q59 0 91 35q31 34 31 112v1266q0 68 -28 108q-27 39 -76 39h-18v39h1185q0 -67 4 -126q6 -89 7 -126h-33l-15 35q-42 88 -129 137q-89 50 -192 50h-582v-621h512q90 0 158 28q65 27 82 75
l8 18h33v-291h-33l-8 21q-21 53 -85 86q-63 32 -155 32h-512v-925h600q105 0 200 50t151 136l24 33h31q-5 -25 -17 -85.5t-18 -86.5q-5 -23 -16 -78q-69 -54 -106 -101q-39 -50 -56 -88q-19 -42 -23 -68q-4 -24 -4 -40v-1q0 -1 0.5 -3t0.5 -4.5t0.5 -6t0.5 -7.5
q1 -19 13 -46t30 -44q20 -19 60 -19q23 0 50 8q24 7 45 20q5 3 16.5 10t16.5 10l13 9l20 -24q-32 -28 -64 -43q-33 -16 -59 -23t-48 -9q-13 -1 -25 -1h-4z" />
    <glyph glyph-name="eogonek" unicode="&#x119;" 
d="M1186 -471q-77 0 -129 41q-51 40 -51 113q0 79 63 151q62 70 186 166h-1146v39q59 0 91 35q31 34 31 112v1266q0 68 -28 108q-27 39 -76 39h-18v39h1185q0 -67 4 -126q6 -89 7 -126h-33l-15 35q-42 88 -129 137q-89 50 -192 50h-582v-621h512q90 0 158 28q65 27 82 75
l8 18h33v-291h-33l-8 21q-21 53 -85 86q-63 32 -155 32h-512v-925h600q105 0 200 50t151 136l24 33h31q-5 -25 -17 -85.5t-18 -86.5q-5 -23 -16 -78q-69 -54 -106 -101q-39 -50 -56 -88q-19 -42 -23 -68q-4 -24 -4 -40v-1q0 -1 0.5 -3t0.5 -4.5t0.5 -6t0.5 -7.5
q1 -19 13 -46t30 -44q20 -19 60 -19q23 0 50 8q24 7 45 20q5 3 16.5 10t16.5 10l13 9l20 -24q-32 -28 -64 -43q-33 -16 -59 -23t-48 -9q-13 -1 -25 -1h-4z" />
    <glyph glyph-name="Ecaron" unicode="&#x11a;" 
d="M1360 250q-5 -25 -17 -85.5t-18 -86.5q-5 -23 -16 -78h-1200v39q59 0 91 35q31 34 31 112v1266q0 68 -28 108q-27 39 -76 39h-18v39h1185q0 -67 4 -126q6 -89 7 -126h-33l-15 35q-42 88 -129 137q-89 50 -192 50h-582v-621h512q90 0 158 28q65 27 82 75l8 18h33v-291h-33
l-8 21q-21 53 -85 86q-63 32 -155 32h-512v-925h600q105 0 200 50t151 136l24 33h31zM1042 2122l17 -19l-2 -2q-163 -198 -172 -209q-22 -27 -52.5 -63t-39.5 -46q-29 -35 -42 -43q-11 -7 -20 -7h-6h-2h-4q-11 0 -21 7q-12 8 -41 42q-46 53 -92 109q-7 8 -67.5 82.5
t-104.5 127.5l-4 2l19 19l2 -2q7 -7 42 -35q10 -8 87 -71q66 -54 100 -83q15 -13 30.5 -26t32 -26t23.5 -19q16 14 85 71q35 29 101 83q14 11 43 35.5t43 35.5q30 24 41 35z" />
    <glyph glyph-name="ecaron" unicode="&#x11b;" 
d="M1360 250q-5 -25 -17 -85.5t-18 -86.5q-5 -23 -16 -78h-1200v39q59 0 91 35q31 34 31 112v1266q0 68 -28 108q-27 39 -76 39h-18v39h1185q0 -67 4 -126q6 -89 7 -126h-33l-15 35q-42 88 -129 137q-89 50 -192 50h-582v-621h512q90 0 158 28q65 27 82 75l8 18h33v-291h-33
l-8 21q-21 53 -85 86q-63 32 -155 32h-512v-925h600q105 0 200 50t151 136l24 33h31zM1042 2122l17 -19l-2 -2q-163 -198 -172 -209q-22 -27 -52.5 -63t-39.5 -46q-29 -35 -42 -43q-11 -7 -20 -7h-6h-2h-4q-11 0 -21 7q-12 8 -41 42q-46 53 -92 109q-7 8 -67.5 82.5
t-104.5 127.5l-4 2l19 19l2 -2q7 -7 42 -35q10 -8 87 -71q66 -54 100 -83q15 -13 30.5 -26t32 -26t23.5 -19q16 14 85 71q35 29 101 83q14 11 43 35.5t43 35.5q30 24 41 35z" />
    <glyph glyph-name="Gcircumflex" unicode="&#x11c;" horiz-adv-x="1744" 
d="M907 -10q-189 0 -338 59q-153 61 -260 169q-108 110 -168 262q-59 150 -59 341q0 189 59 339q60 152 168 262q107 108 260 169q151 60 338 60q81 0 174 -11q96 -11 172 -29q80 -19 159 -47q67 -24 134 -61l10 -231h-40q-23 63 -60 116q-40 58 -86 98q-53 46 -108 74
q-60 30 -123 42q-114 18 -232 18q-155 0 -282 -57t-217 -162q-91 -106 -140 -252t-49 -328q0 -181 49 -327q50 -148 140 -253q92 -107 217 -163q130 -58 282 -58q139 0 283 27q141 26 256 74v606q0 68 -28 110q-27 40 -75 40h-20v38h356v-38q-60 0 -90 -36t-30 -114v-590
q-56 -33 -134 -60q-84 -30 -160 -47q-84 -19 -178 -30q-87 -10 -180 -10zM1225 1735q-6 6 -41 34q-14 11 -43 35.5t-43 35.5q-11 9 -46.5 37.5t-55.5 45.5q-40 33 -85 72q-50 -42 -86 -72q-34 -29 -100 -83q-77 -63 -87 -71q-40 -32 -42 -34l-2 -2l-19 18l5 2
q44 53 104.5 127.5t67.5 82.5q60 74 92 110q29 34 41 42q10 7 20 7h4h2h7q8 0 19 -7q13 -8 42 -43q10 -12 92 -110q9 -11 172 -209l2 -2l-16 -18z" />
    <glyph glyph-name="gcircumflex" unicode="&#x11d;" horiz-adv-x="1744" 
d="M907 -10q-189 0 -338 59q-153 61 -260 169q-108 110 -168 262q-59 150 -59 341q0 189 59 339q60 152 168 262q107 108 260 169q151 60 338 60q81 0 174 -11q96 -11 172 -29q80 -19 159 -47q67 -24 134 -61l10 -231h-40q-23 63 -60 116q-40 58 -86 98q-53 46 -108 74
q-60 30 -123 42q-114 18 -232 18q-155 0 -282 -57t-217 -162q-91 -106 -140 -252t-49 -328q0 -181 49 -327q50 -148 140 -253q92 -107 217 -163q130 -58 282 -58q139 0 283 27q141 26 256 74v606q0 68 -28 110q-27 40 -75 40h-20v38h356v-38q-60 0 -90 -36t-30 -114v-590
q-56 -33 -134 -60q-84 -30 -160 -47q-84 -19 -178 -30q-87 -10 -180 -10zM1225 1735q-6 6 -41 34q-14 11 -43 35.5t-43 35.5q-11 9 -46.5 37.5t-55.5 45.5q-40 33 -85 72q-50 -42 -86 -72q-34 -29 -100 -83q-77 -63 -87 -71q-40 -32 -42 -34l-2 -2l-19 18l5 2
q44 53 104.5 127.5t67.5 82.5q60 74 92 110q29 34 41 42q10 7 20 7h4h2h7q8 0 19 -7q13 -8 42 -43q10 -12 92 -110q9 -11 172 -209l2 -2l-16 -18z" />
    <glyph glyph-name="Gbreve" unicode="&#x11e;" horiz-adv-x="1744" 
d="M907 -10q-189 0 -338 59q-153 61 -260 169q-108 110 -168 262q-59 150 -59 341q0 189 59 339q60 152 168 262q107 108 260 169q151 60 338 60q81 0 174 -11q96 -11 172 -29q80 -19 159 -47q67 -24 134 -61l10 -231h-40q-23 63 -60 116q-40 58 -86 98q-53 46 -108 74
q-60 30 -123 42q-114 18 -232 18q-155 0 -282 -57t-217 -162q-91 -106 -140 -252t-49 -328q0 -181 49 -327q50 -148 140 -253q92 -107 217 -163q130 -58 282 -58q139 0 283 27q141 26 256 74v606q0 68 -28 110q-27 40 -75 40h-20v38h356v-38q-60 0 -90 -36t-30 -114v-590
q-56 -33 -134 -60q-84 -30 -160 -47q-84 -19 -178 -30q-87 -10 -180 -10zM1174 1954q-16 -95 -91 -156q-72 -59 -180 -59t-180 59q-73 60 -90 156l18 2q10 -65 80 -103q66 -36 172 -36q108 0 174 36q70 38 80 103z" />
    <glyph glyph-name="gbreve" unicode="&#x11f;" horiz-adv-x="1744" 
d="M907 -10q-189 0 -338 59q-153 61 -260 169q-108 110 -168 262q-59 150 -59 341q0 189 59 339q60 152 168 262q107 108 260 169q151 60 338 60q81 0 174 -11q96 -11 172 -29q80 -19 159 -47q67 -24 134 -61l10 -231h-40q-23 63 -60 116q-40 58 -86 98q-53 46 -108 74
q-60 30 -123 42q-114 18 -232 18q-155 0 -282 -57t-217 -162q-91 -106 -140 -252t-49 -328q0 -181 49 -327q50 -148 140 -253q92 -107 217 -163q130 -58 282 -58q139 0 283 27q141 26 256 74v606q0 68 -28 110q-27 40 -75 40h-20v38h356v-38q-60 0 -90 -36t-30 -114v-590
q-56 -33 -134 -60q-84 -30 -160 -47q-84 -19 -178 -30q-87 -10 -180 -10zM1174 1954q-16 -95 -91 -156q-72 -59 -180 -59t-180 59q-73 60 -90 156l18 2q10 -65 80 -103q66 -36 172 -36q108 0 174 36q70 38 80 103z" />
    <glyph glyph-name="uni0122" unicode="&#x122;" horiz-adv-x="1744" 
d="M907 -10q-189 0 -338 59q-153 61 -260 169q-108 110 -168 262q-59 150 -59 341q0 189 59 339q60 152 168 262q107 108 260 169q151 60 338 60q81 0 174 -11q96 -11 172 -29q80 -19 159 -47q67 -24 134 -61l10 -231h-40q-23 63 -60 116q-40 58 -86 98q-53 46 -108 74
q-60 30 -123 42q-114 18 -232 18q-155 0 -282 -57t-217 -162q-91 -106 -140 -252t-49 -328q0 -181 49 -327q50 -148 140 -253q92 -107 217 -163q130 -58 282 -58q139 0 283 27q141 26 256 74v606q0 68 -28 110q-27 40 -75 40h-20v38h356v-38q-60 0 -90 -36t-30 -114v-590
q-56 -33 -134 -60q-84 -30 -160 -47q-84 -19 -178 -30q-87 -10 -180 -10zM913 -74q52 0 73 -40q22 -42 22 -93q0 -78 -40 -143q-41 -66 -106 -99l-10 17q39 21 64 65q26 46 26 101q0 11 -1 16t-3 19q-7 -5 -13 -5h-14q-35 0 -57 24q-23 25 -23 58q0 35 23 58q22 22 59 22z
" />
    <glyph glyph-name="uni0123" unicode="&#x123;" horiz-adv-x="1744" 
d="M907 -10q-189 0 -338 59q-153 61 -260 169q-108 110 -168 262q-59 150 -59 341q0 189 59 339q60 152 168 262q107 108 260 169q151 60 338 60q81 0 174 -11q96 -11 172 -29q80 -19 159 -47q67 -24 134 -61l10 -231h-40q-23 63 -60 116q-40 58 -86 98q-53 46 -108 74
q-60 30 -123 42q-114 18 -232 18q-155 0 -282 -57t-217 -162q-91 -106 -140 -252t-49 -328q0 -181 49 -327q50 -148 140 -253q92 -107 217 -163q130 -58 282 -58q139 0 283 27q141 26 256 74v606q0 68 -28 110q-27 40 -75 40h-20v38h356v-38q-60 0 -90 -36t-30 -114v-590
q-56 -33 -134 -60q-84 -30 -160 -47q-84 -19 -178 -30q-87 -10 -180 -10zM913 -74q52 0 73 -40q22 -42 22 -93q0 -78 -40 -143q-41 -66 -106 -99l-10 17q39 21 64 65q26 46 26 101q0 11 -1 16t-3 19q-7 -5 -13 -5h-14q-35 0 -57 24q-23 25 -23 58q0 35 23 58q22 22 59 22z
" />
    <glyph glyph-name="Itilde" unicode="&#x128;" horiz-adv-x="589" 
d="M479 0h-368v39q59 0 91 35q31 34 31 112v1266q0 68 -27 108q-26 39 -75 39h-20v39h368v-39q-60 0 -90 -34q-31 -36 -31 -113v-1266q0 -65 28 -107q27 -40 75 -40h18v-39zM567 1931h23v-6q-7 -89 -53 -127q-44 -37 -93 -37q-42 0 -82 18q-54 24 -82 37q-16 7 -45 19.5
t-37 16.5q-40 18 -77 18h-2l-18 -2q-12 -1 -28 -11q-15 -9 -30 -30q-14 -20 -16 -58v-4h-25v4q2 30 11 62q9 31 27 56q19 27 43 41q27 16 60 16q38 0 81 -17q47 -18 84 -37q34 -17 83 -37q39 -16 80 -16q53 0 73 31q18 28 23 59v4z" />
    <glyph glyph-name="itilde" unicode="&#x129;" horiz-adv-x="589" 
d="M479 0h-368v39q59 0 91 35q31 34 31 112v1266q0 68 -27 108q-26 39 -75 39h-20v39h368v-39q-60 0 -90 -34q-31 -36 -31 -113v-1266q0 -65 28 -107q27 -40 75 -40h18v-39zM567 1931h23v-6q-7 -89 -53 -127q-44 -37 -93 -37q-42 0 -82 18q-54 24 -82 37q-16 7 -45 19.5
t-37 16.5q-40 18 -77 18h-2l-18 -2q-12 -1 -28 -11q-15 -9 -30 -30q-14 -20 -16 -58v-4h-25v4q2 30 11 62q9 31 27 56q19 27 43 41q27 16 60 16q38 0 81 -17q47 -18 84 -37q34 -17 83 -37q39 -16 80 -16q53 0 73 31q18 28 23 59v4z" />
    <glyph glyph-name="Imacron" unicode="&#x12a;" horiz-adv-x="589" 
d="M479 0h-368v39q59 0 91 35q31 34 31 112v1266q0 68 -27 108q-26 39 -75 39h-20v39h368v-39q-60 0 -90 -34q-31 -36 -31 -113v-1266q0 -65 28 -107q27 -40 75 -40h18v-39zM43 1823v32h504v-32h-504z" />
    <glyph glyph-name="imacron" unicode="&#x12b;" horiz-adv-x="589" 
d="M479 0h-368v39q59 0 91 35q31 34 31 112v1266q0 68 -27 108q-26 39 -75 39h-20v39h368v-39q-60 0 -90 -34q-31 -36 -31 -113v-1266q0 -65 28 -107q27 -40 75 -40h18v-39zM43 1823v32h504v-32h-504z" />
    <glyph glyph-name="Ibreve" unicode="&#x12c;" horiz-adv-x="589" 
d="M479 0h-368v39q59 0 91 35q31 34 31 112v1266q0 68 -27 108q-26 39 -75 39h-20v39h368v-39q-60 0 -90 -34q-31 -36 -31 -113v-1266q0 -65 28 -107q27 -40 75 -40h18v-39zM565 1954q-17 -96 -90 -156q-72 -59 -180 -59t-180 59q-73 60 -90 156l18 2q10 -65 80 -103
q66 -36 172 -36q108 0 174 36q70 38 80 103z" />
    <glyph glyph-name="ibreve" unicode="&#x12d;" horiz-adv-x="589" 
d="M479 0h-368v39q59 0 91 35q31 34 31 112v1266q0 68 -27 108q-26 39 -75 39h-20v39h368v-39q-60 0 -90 -34q-31 -36 -31 -113v-1266q0 -65 28 -107q27 -40 75 -40h18v-39zM565 1954q-17 -96 -90 -156q-72 -59 -180 -59t-180 59q-73 60 -90 156l18 2q10 -65 80 -103
q66 -36 172 -36q108 0 174 36q70 38 80 103z" />
    <glyph glyph-name="Iogonek" unicode="&#x12e;" horiz-adv-x="589" 
d="M279 -469q-77 0 -129 41t-52 113q0 79 63 151q67 77 183 164h-233v39q59 0 91 35q31 34 31 112v1266q0 68 -27 108q-26 39 -75 39h-20v39h368v-39q-60 0 -90 -34q-31 -36 -31 -113v-1266q0 -65 28 -107q27 -40 75 -40h18v-39h-82q-63 -49 -104 -100q-34 -42 -54 -87
q-17 -38 -22 -68q-4 -24 -4 -40v-1q0 -1 0.5 -3t0.5 -4.5t0.5 -6t0.5 -7.5q1 -21 12 -45q12 -27 31 -45q20 -19 59 -19q24 0 51 8q24 7 45 20q26 16 32 20l14 9l20 -24q-32 -28 -64 -43t-60 -23q-27 -7 -47 -9q-13 -1 -25 -1h-4z" />
    <glyph glyph-name="iogonek" unicode="&#x12f;" horiz-adv-x="589" 
d="M279 -469q-77 0 -129 41t-52 113q0 79 63 151q67 77 183 164h-233v39q59 0 91 35q31 34 31 112v1266q0 68 -27 108q-26 39 -75 39h-20v39h368v-39q-60 0 -90 -34q-31 -36 -31 -113v-1266q0 -65 28 -107q27 -40 75 -40h18v-39h-82q-63 -49 -104 -100q-34 -42 -54 -87
q-17 -38 -22 -68q-4 -24 -4 -40v-1q0 -1 0.5 -3t0.5 -4.5t0.5 -6t0.5 -7.5q1 -21 12 -45q12 -27 31 -45q20 -19 59 -19q24 0 51 8q24 7 45 20q26 16 32 20l14 9l20 -24q-32 -28 -64 -43t-60 -23q-27 -7 -47 -9q-13 -1 -25 -1h-4z" />
    <glyph glyph-name="Idotaccent" unicode="&#x130;" horiz-adv-x="589" 
d="M479 0h-368v39q59 0 91 35q31 34 31 112v1266q0 68 -27 108q-26 39 -75 39h-20v39h368v-39q-60 0 -90 -34q-31 -36 -31 -113v-1266q0 -65 28 -107q27 -40 75 -40h18v-39zM295 1939q31 0 56 -19q26 -20 26 -60q0 -41 -26 -61q-25 -19 -56 -19t-56 19q-26 20 -26 61
q0 40 26 60q25 19 56 19z" />
    <glyph glyph-name="dotlessi" unicode="&#x131;" horiz-adv-x="595" 
d="M479 0h-368v39q59 0 91 35q31 34 31 112v1266q0 68 -27 108q-26 39 -75 39h-20v39h368v-39q-60 0 -90 -34q-31 -36 -31 -113v-1266q0 -65 28 -107q27 -40 75 -40h18v-39z" />
    <glyph glyph-name="uni0136" unicode="&#x136;" horiz-adv-x="1626" 
d="M360 186q0 -67 28 -109q27 -40 75 -40h20v-37h-368v37q60 0 90 36q31 37 31 113v1266q0 66 -28 108q-26 39 -75 39h-18v39h368v-39q-60 0 -91 -34q-32 -35 -32 -113v-573v-693zM360 879l711 610q78 73 78 100q0 4 -5 7t-22 3v39h246v-39q-120 0 -293 -147h-2l-596 -516
l447 -438q152 -151 237 -229q100 -92 172 -151q71 -58 119 -84q47 -26 80 -26v-24h-51q-59 0 -119 23q-65 25 -141 76q-78 53 -174 135t-218 200zM807 -53q52 0 73 -40q21 -41 21 -93q0 -79 -40 -144q-40 -66 -105 -98l-11 16q40 21 65 66q26 46 26 100q0 12 -1 17
q0 1 -1.5 7.5t-2.5 10.5q-5 -4 -13 -4h-13q-35 0 -57 24q-23 25 -23 58q0 34 23 57t59 23z" />
    <glyph glyph-name="uni0137" unicode="&#x137;" horiz-adv-x="1626" 
d="M360 186q0 -67 28 -109q27 -40 75 -40h20v-37h-368v37q60 0 90 36q31 37 31 113v1266q0 66 -28 108q-26 39 -75 39h-18v39h368v-39q-60 0 -91 -34q-32 -35 -32 -113v-573v-693zM360 879l711 610q78 73 78 100q0 4 -5 7t-22 3v39h246v-39q-120 0 -293 -147h-2l-596 -516
l447 -438q152 -151 237 -229q100 -92 172 -151q71 -58 119 -84q47 -26 80 -26v-24h-51q-59 0 -119 23q-65 25 -141 76q-78 53 -174 135t-218 200zM807 -53q52 0 73 -40q21 -41 21 -93q0 -79 -40 -144q-40 -66 -105 -98l-11 16q40 21 65 66q26 46 26 100q0 12 -1 17
q0 1 -1.5 7.5t-2.5 10.5q-5 -4 -13 -4h-13q-35 0 -57 24q-23 25 -23 58q0 34 23 57t59 23z" />
    <glyph glyph-name="Lacute" unicode="&#x139;" horiz-adv-x="1427" 
d="M477 1599q-60 0 -90 -34q-31 -36 -31 -113v-1421h619q24 0 65 7q44 8 93 33t97 73t81 130l20 -4l17 -4l16 -4q-11 -46 -25 -115q-11 -46 -18 -88q-7 -41 -12 -59h-1200v37q59 0 91 36q31 35 31 113v1266q0 68 -27 108q-26 39 -75 39h-20v39h368v-39zM182 1733l-18 18l4 2
q116 141 173 212q54 67 91 110q31 35 42 41q12 6 22 6h2q28 0 43 -20q14 -18 14 -36q0 -13 -6 -25t-42 -42q-66 -55 -111 -91q-60 -48 -210 -173z" />
    <glyph glyph-name="lacute" unicode="&#x13a;" horiz-adv-x="1427" 
d="M477 1599q-60 0 -90 -34q-31 -36 -31 -113v-1421h619q24 0 65 7q44 8 93 33t97 73t81 130l20 -4l17 -4l16 -4q-11 -46 -25 -115q-11 -46 -18 -88q-7 -41 -12 -59h-1200v37q59 0 91 36q31 35 31 113v1266q0 68 -27 108q-26 39 -75 39h-20v39h368v-39zM182 1733l-18 18l4 2
q116 141 173 212q54 67 91 110q31 35 42 41q12 6 22 6h2q28 0 43 -20q14 -18 14 -36q0 -13 -6 -25t-42 -42q-66 -55 -111 -91q-60 -48 -210 -173z" />
    <glyph glyph-name="uni013B" unicode="&#x13b;" horiz-adv-x="1427" 
d="M477 1599q-60 0 -90 -34q-31 -36 -31 -113v-1421h619q24 0 65 7q44 8 93 33t97 73t81 130l20 -4l17 -4l16 -4q-11 -46 -25 -115q-11 -46 -18 -88q-7 -41 -12 -59h-1200v37q59 0 91 36q31 35 31 113v1266q0 68 -27 108q-26 39 -75 39h-20v39h368v-39zM707 -68q51 0 72 -40
q22 -42 22 -93q0 -78 -40 -143t-106 -98l-10 16q40 21 65 66q25 44 25 100q0 11 -1 16t-3 19q-5 -4 -13 -4h-13q-36 0 -58 23t-22 59q0 35 22 57t60 22z" />
    <glyph glyph-name="uni013C" unicode="&#x13c;" horiz-adv-x="1427" 
d="M477 1599q-60 0 -90 -34q-31 -36 -31 -113v-1421h619q24 0 65 7q44 8 93 33t97 73t81 130l20 -4l17 -4l16 -4q-11 -46 -25 -115q-11 -46 -18 -88q-7 -41 -12 -59h-1200v37q59 0 91 36q31 35 31 113v1266q0 68 -27 108q-26 39 -75 39h-20v39h368v-39zM707 -68q51 0 72 -40
q22 -42 22 -93q0 -78 -40 -143t-106 -98l-10 16q40 21 65 66q25 44 25 100q0 11 -1 16t-3 19q-5 -4 -13 -4h-13q-36 0 -58 23t-22 59q0 35 22 57t60 22z" />
    <glyph glyph-name="Lcaron" unicode="&#x13d;" horiz-adv-x="1427" 
d="M477 1599q-60 0 -90 -34q-31 -36 -31 -113v-1421h619q24 0 65 7q44 8 93 33t97 73t81 130l20 -4l17 -4l16 -4q-11 -46 -25 -115q-11 -46 -18 -88q-7 -41 -12 -59h-1200v37q59 0 91 36q31 35 31 113v1266q0 68 -27 108q-26 39 -75 39h-20v39h368v-39zM707 1638
q51 0 72 -40q22 -42 22 -93q0 -78 -40 -143t-106 -98l-10 16q40 21 65 66q25 44 25 100q0 11 -1 16t-3 19q-5 -4 -13 -4h-13q-36 0 -58 23t-22 59q0 35 22 57t60 22z" />
    <glyph glyph-name="lcaron" unicode="&#x13e;" horiz-adv-x="1427" 
d="M477 1599q-60 0 -90 -34q-31 -36 -31 -113v-1421h619q24 0 65 7q44 8 93 33t97 73t81 130l20 -4l17 -4l16 -4q-11 -46 -25 -115q-11 -46 -18 -88q-7 -41 -12 -59h-1200v37q59 0 91 36q31 35 31 113v1266q0 68 -27 108q-26 39 -75 39h-20v39h368v-39zM707 1638
q51 0 72 -40q22 -42 22 -93q0 -78 -40 -143t-106 -98l-10 16q40 21 65 66q25 44 25 100q0 11 -1 16t-3 19q-5 -4 -13 -4h-13q-36 0 -58 23t-22 59q0 35 22 57t60 22z" />
    <glyph glyph-name="Ldot" unicode="&#x13f;" horiz-adv-x="1427" 
d="M477 1599q-60 0 -90 -34q-31 -36 -31 -113v-1421h619q24 0 65 7q44 8 93 33t97 73t81 130l20 -4l17 -4l16 -4q-11 -46 -25 -115q-11 -46 -18 -88q-7 -41 -12 -59h-1200v37q59 0 91 36q31 35 31 113v1266q0 68 -27 108q-26 39 -75 39h-20v39h368v-39zM713 903q31 0 56 -19
q26 -20 26 -61q0 -40 -26 -60t-56 -20q-31 0 -57 20q-25 19 -25 60q0 42 25 61t57 19z" />
    <glyph glyph-name="ldot" unicode="&#x140;" horiz-adv-x="1427" 
d="M477 1599q-60 0 -90 -34q-31 -36 -31 -113v-1421h619q24 0 65 7q44 8 93 33t97 73t81 130l20 -4l17 -4l16 -4q-11 -46 -25 -115q-11 -46 -18 -88q-7 -41 -12 -59h-1200v37q59 0 91 36q31 35 31 113v1266q0 68 -27 108q-26 39 -75 39h-20v39h368v-39zM713 903q31 0 56 -19
q26 -20 26 -61q0 -40 -26 -60t-56 -20q-31 0 -57 20q-25 19 -25 60q0 42 25 61t57 19z" />
    <glyph glyph-name="Lslash" unicode="&#x141;" horiz-adv-x="1427" 
d="M477 1599q-60 0 -90 -34q-31 -36 -31 -113v-584l381 133v-38l-381 -136v-796h619q24 0 65 7q44 8 93 33t97 73t81 130l20 -4l17 -4l16 -4q-11 -46 -25 -115q-11 -46 -18 -88q-7 -41 -12 -59h-1200v37q59 0 91 36q31 35 31 113v598l-180 -63v43l180 61v627q0 68 -27 108
q-26 39 -75 39h-20v39h368v-39z" />
    <glyph glyph-name="lslash" unicode="&#x142;" horiz-adv-x="1427" 
d="M477 1599q-60 0 -90 -34q-31 -36 -31 -113v-584l381 133v-38l-381 -136v-796h619q24 0 65 7q44 8 93 33t97 73t81 130l20 -4l17 -4l16 -4q-11 -46 -25 -115q-11 -46 -18 -88q-7 -41 -12 -59h-1200v37q59 0 91 36q31 35 31 113v598l-180 -63v43l180 61v627q0 68 -27 108
q-26 39 -75 39h-20v39h368v-39z" />
    <glyph glyph-name="Nacute" unicode="&#x143;" horiz-adv-x="1751" 
d="M272 186q0 -65 28 -107q27 -40 75 -40h20v-39h-282v39q59 0 91 35t32 112v1266q0 69 -29 110q-28 40 -76 40h-18v36h235l1133 -1456v1270q0 68 -28 110q-27 40 -75 40h-18v36h280v-36q-60 0 -90 -36t-30 -114v-1475h-41l-56 74l-1151 1477v-1342zM698 1733l-18 18l4 2
q116 141 173 212q54 67 91 110q31 35 42 41q12 6 22 6h2q28 0 43 -20q14 -18 14 -36q0 -13 -6 -25t-42 -42q-66 -55 -111 -91q-60 -48 -210 -173z" />
    <glyph glyph-name="nacute" unicode="&#x144;" horiz-adv-x="1751" 
d="M272 186q0 -65 28 -107q27 -40 75 -40h20v-39h-282v39q59 0 91 35t32 112v1266q0 69 -29 110q-28 40 -76 40h-18v36h235l1133 -1456v1270q0 68 -28 110q-27 40 -75 40h-18v36h280v-36q-60 0 -90 -36t-30 -114v-1475h-41l-56 74l-1151 1477v-1342zM698 1733l-18 18l4 2
q116 141 173 212q54 67 91 110q31 35 42 41q12 6 22 6h2q28 0 43 -20q14 -18 14 -36q0 -13 -6 -25t-42 -42q-66 -55 -111 -91q-60 -48 -210 -173z" />
    <glyph glyph-name="uni0145" unicode="&#x145;" horiz-adv-x="1751" 
d="M272 186q0 -65 28 -107q27 -40 75 -40h20v-39h-282v39q59 0 91 35t32 112v1266q0 69 -29 110q-28 40 -76 40h-18v36h235l1133 -1456v1270q0 68 -28 110q-27 40 -75 40h-18v36h280v-36q-60 0 -90 -36t-30 -114v-1475h-41l-56 74l-1151 1477v-1342zM868 -53q52 0 73 -40
q22 -42 22 -93q0 -79 -40 -144t-106 -98l-10 16q38 21 64 66q26 46 26 100q0 12 -1 17q-2 7 -3 18q-5 -4 -13 -4h-14q-34 0 -57 24q-23 25 -23 58q0 34 23 57t59 23z" />
    <glyph glyph-name="uni0146" unicode="&#x146;" horiz-adv-x="1751" 
d="M272 186q0 -65 28 -107q27 -40 75 -40h20v-39h-282v39q59 0 91 35t32 112v1266q0 69 -29 110q-28 40 -76 40h-18v36h235l1133 -1456v1270q0 68 -28 110q-27 40 -75 40h-18v36h280v-36q-60 0 -90 -36t-30 -114v-1475h-41l-56 74l-1151 1477v-1342zM868 -53q52 0 73 -40
q22 -42 22 -93q0 -79 -40 -144t-106 -98l-10 16q38 21 64 66q26 46 26 100q0 12 -1 17q-2 7 -3 18q-5 -4 -13 -4h-14q-34 0 -57 24q-23 25 -23 58q0 34 23 57t59 23z" />
    <glyph glyph-name="Ncaron" unicode="&#x147;" horiz-adv-x="1751" 
d="M272 186q0 -65 28 -107q27 -40 75 -40h20v-39h-282v39q59 0 91 35t32 112v1266q0 69 -29 110q-28 40 -76 40h-18v36h235l1133 -1456v1270q0 68 -28 110q-27 40 -75 40h-18v36h280v-36q-60 0 -90 -36t-30 -114v-1475h-41l-56 74l-1151 1477v-1342zM1194 2122l16 -19l-2 -2
q-163 -198 -172 -209q-22 -27 -52.5 -63t-39.5 -46q-29 -35 -42 -43q-11 -7 -19 -7h-6h-3h-4q-10 0 -20 7q-12 8 -41 42q-46 53 -92 109q-7 8 -67.5 82.5t-104.5 127.5l-4 2l18 19l2 -2q7 -7 42 -35q10 -8 87 -71q91 -74 101 -83q15 -13 30.5 -26t32 -26t23.5 -19
q16 14 85 71q35 29 101 83q14 11 43 35.5t43 35.5q30 24 41 35z" />
    <glyph glyph-name="ncaron" unicode="&#x148;" horiz-adv-x="1751" 
d="M272 186q0 -65 28 -107q27 -40 75 -40h20v-39h-282v39q59 0 91 35t32 112v1266q0 69 -29 110q-28 40 -76 40h-18v36h235l1133 -1456v1270q0 68 -28 110q-27 40 -75 40h-18v36h280v-36q-60 0 -90 -36t-30 -114v-1475h-41l-56 74l-1151 1477v-1342zM1194 2122l16 -19l-2 -2
q-163 -198 -172 -209q-22 -27 -52.5 -63t-39.5 -46q-29 -35 -42 -43q-11 -7 -19 -7h-6h-3h-4q-10 0 -20 7q-12 8 -41 42q-46 53 -92 109q-7 8 -67.5 82.5t-104.5 127.5l-4 2l18 19l2 -2q7 -7 42 -35q10 -8 87 -71q91 -74 101 -83q15 -13 30.5 -26t32 -26t23.5 -19
q16 14 85 71q35 29 101 83q14 11 43 35.5t43 35.5q30 24 41 35z" />
    <glyph glyph-name="Omacron" unicode="&#x14c;" horiz-adv-x="1783" 
d="M1712 825q0 -169 -52 -319t-155 -265q-103 -116 -255 -181q-153 -66 -353 -66q-202 0 -355 66q-152 65 -255 181q-103 115 -155 265t-52 319q0 170 52 319t155 264q102 114 255 180q155 67 355 67q198 0 353 -67q153 -66 255 -180q103 -115 155 -264t52 -319zM897 25
q169 0 294 64t211 174q84 107 128 255q43 144 43 307q0 165 -43 307q-44 145 -128 253q-87 112 -211 175q-125 64 -294 64q-168 0 -295 -64q-126 -64 -213 -175q-86 -110 -129 -253q-43 -142 -43 -307q0 -163 43 -307q44 -146 129 -255t213 -174q127 -64 295 -64zM657 1823
v32h504v-32h-504z" />
    <glyph glyph-name="omacron" unicode="&#x14d;" horiz-adv-x="1783" 
d="M1712 825q0 -169 -52 -319t-155 -265q-103 -116 -255 -181q-153 -66 -353 -66q-202 0 -355 66q-152 65 -255 181q-103 115 -155 265t-52 319q0 170 52 319t155 264q102 114 255 180q155 67 355 67q198 0 353 -67q153 -66 255 -180q103 -115 155 -264t52 -319zM897 25
q169 0 294 64t211 174q84 107 128 255q43 144 43 307q0 165 -43 307q-44 145 -128 253q-87 112 -211 175q-125 64 -294 64q-168 0 -295 -64q-126 -64 -213 -175q-86 -110 -129 -253q-43 -142 -43 -307q0 -163 43 -307q44 -146 129 -255t213 -174q127 -64 295 -64zM657 1823
v32h504v-32h-504z" />
    <glyph glyph-name="Obreve" unicode="&#x14e;" horiz-adv-x="1783" 
d="M1712 825q0 -169 -52 -319t-155 -265q-103 -116 -255 -181q-153 -66 -353 -66q-202 0 -355 66q-152 65 -255 181q-103 115 -155 265t-52 319q0 170 52 319t155 264q102 114 255 180q155 67 355 67q198 0 353 -67q153 -66 255 -180q103 -115 155 -264t52 -319zM897 25
q169 0 294 64t211 174q84 107 128 255q43 144 43 307q0 165 -43 307q-44 145 -128 253q-87 112 -211 175q-125 64 -294 64q-168 0 -295 -64q-126 -64 -213 -175q-86 -110 -129 -253q-43 -142 -43 -307q0 -163 43 -307q44 -146 129 -255t213 -174q127 -64 295 -64zM1161 1954
q-17 -96 -90 -156q-72 -59 -180 -59t-180 59q-73 60 -90 156l18 2q10 -65 80 -103q66 -36 172 -36q108 0 174 36q70 38 80 103z" />
    <glyph glyph-name="obreve" unicode="&#x14f;" horiz-adv-x="1783" 
d="M1712 825q0 -169 -52 -319t-155 -265q-103 -116 -255 -181q-153 -66 -353 -66q-202 0 -355 66q-152 65 -255 181q-103 115 -155 265t-52 319q0 170 52 319t155 264q102 114 255 180q155 67 355 67q198 0 353 -67q153 -66 255 -180q103 -115 155 -264t52 -319zM897 25
q169 0 294 64t211 174q84 107 128 255q43 144 43 307q0 165 -43 307q-44 145 -128 253q-87 112 -211 175q-125 64 -294 64q-168 0 -295 -64q-126 -64 -213 -175q-86 -110 -129 -253q-43 -142 -43 -307q0 -163 43 -307q44 -146 129 -255t213 -174q127 -64 295 -64zM1161 1954
q-17 -96 -90 -156q-72 -59 -180 -59t-180 59q-73 60 -90 156l18 2q10 -65 80 -103q66 -36 172 -36q108 0 174 36q70 38 80 103z" />
    <glyph glyph-name="Ohungarumlaut" unicode="&#x150;" horiz-adv-x="1783" 
d="M1712 825q0 -169 -52 -319t-155 -265q-103 -116 -255 -181q-153 -66 -353 -66q-202 0 -355 66q-152 65 -255 181q-103 115 -155 265t-52 319q0 170 52 319t155 264q102 114 255 180q155 67 355 67q198 0 353 -67q153 -66 255 -180q103 -115 155 -264t52 -319zM897 25
q169 0 294 64t211 174q84 107 128 255q43 144 43 307q0 165 -43 307q-44 145 -128 253q-87 112 -211 175q-125 64 -294 64q-168 0 -295 -64q-126 -64 -213 -175q-86 -110 -129 -253q-43 -142 -43 -307q0 -163 43 -307q44 -146 129 -255t213 -174q127 -64 295 -64zM600 1733
l-18 18l4 2q116 141 173 212q54 67 91 110q31 35 42 41q12 6 21 6h2q28 0 43 -20t15 -36q0 -13 -6 -25t-42 -42q-66 -55 -111 -91q-60 -48 -210 -173zM965 1733l-19 18l4 2q116 141 173 212q53 67 91 110q31 35 42 41q12 6 22 6h2q28 0 43 -20q14 -18 14 -36q0 -13 -6 -25
t-42 -42q-90 -75 -110 -91q-60 -48 -210 -173z" />
    <glyph glyph-name="ohungarumlaut" unicode="&#x151;" horiz-adv-x="1783" 
d="M1712 825q0 -169 -52 -319t-155 -265q-103 -116 -255 -181q-153 -66 -353 -66q-202 0 -355 66q-152 65 -255 181q-103 115 -155 265t-52 319q0 170 52 319t155 264q102 114 255 180q155 67 355 67q198 0 353 -67q153 -66 255 -180q103 -115 155 -264t52 -319zM897 25
q169 0 294 64t211 174q84 107 128 255q43 144 43 307q0 165 -43 307q-44 145 -128 253q-87 112 -211 175q-125 64 -294 64q-168 0 -295 -64q-126 -64 -213 -175q-86 -110 -129 -253q-43 -142 -43 -307q0 -163 43 -307q44 -146 129 -255t213 -174q127 -64 295 -64zM600 1733
l-18 18l4 2q116 141 173 212q54 67 91 110q31 35 42 41q12 6 21 6h2q28 0 43 -20t15 -36q0 -13 -6 -25t-42 -42q-66 -55 -111 -91q-60 -48 -210 -173zM965 1733l-19 18l4 2q116 141 173 212q53 67 91 110q31 35 42 41q12 6 22 6h2q28 0 43 -20q14 -18 14 -36q0 -13 -6 -25
t-42 -42q-90 -75 -110 -91q-60 -48 -210 -173z" />
    <glyph glyph-name="OE" unicode="&#x152;" horiz-adv-x="2283" 
d="M2157 246q-5 -25 -17 -84t-18 -85q-15 -69 -15 -77h-1183h-2q-199 0 -349 66q-148 65 -249 177t-152 261q-51 150 -51 317q0 27 6 99q6 68 32 161q25 88 77 189q49 95 140 180q88 82 224 135t330 53h1163q0 -59 3 -125q4 -79 7 -122h-32l-17 34q-41 80 -126 131
q-87 52 -189 52h-574v-635h506q88 0 154 27t84 73l6 19h35v-287h-35l-6 20q-22 54 -86 85q-67 32 -152 32h-506v-911h590q106 0 198 49q94 50 150 131l23 35h31zM1044 1454q0 66 -30 110t-90 44q-165 0 -291 -64q-125 -63 -209 -171q-84 -109 -126 -251q-42 -144 -42 -301
q0 -161 42 -305q42 -142 126 -251q84 -108 209 -171t289 -63q60 0 91 34t31 111v1278z" />
    <glyph glyph-name="oe" unicode="&#x153;" horiz-adv-x="2254" 
d="M2157 246q-5 -25 -17 -84t-18 -85q-15 -69 -15 -77h-1183h-2q-199 0 -349 66q-148 65 -249 177t-152 261q-51 150 -51 317q0 27 6 99q6 68 32 161q25 88 77 189q49 95 140 180q88 82 224 135t330 53h1163q0 -59 3 -125q4 -79 7 -122h-32l-17 34q-41 80 -126 131
q-87 52 -189 52h-574v-635h506q88 0 154 27t84 73l6 19h35v-287h-35l-6 20q-22 54 -86 85q-67 32 -152 32h-506v-911h590q106 0 198 49q94 50 150 131l23 35h31zM1044 1454q0 66 -30 110t-90 44q-165 0 -291 -64q-125 -63 -209 -171q-84 -109 -126 -251q-42 -144 -42 -301
q0 -161 42 -305q42 -142 126 -251q84 -108 209 -171t289 -63q60 0 91 34t31 111v1278z" />
    <glyph glyph-name="Racute" unicode="&#x154;" horiz-adv-x="1572" 
d="M1483 23v-25h-72q-36 0 -66 6q-29 6 -61 25q-27 16 -67 53q-37 34 -90 93q-74 83 -125 143q-27 32 -175 204q-20 -2 -29 -2h-32h-399v-334q0 -66 28 -106q29 -41 76 -41h21v-39h-379v39h18q49 0 78 41t29 106v1266q0 68 -29 109t-78 41h-18v36h751q117 0 217 -41
q99 -41 168 -114q71 -75 109 -177q39 -104 39 -229q0 -99 -31 -189q-29 -85 -88 -156q-57 -68 -137 -117q-79 -48 -180 -72q174 -207 248 -291q90 -102 146 -156q50 -48 77 -62q22 -11 45 -11h6zM766 551q109 0 202 38q88 36 156 107q66 69 102 167q36 97 36 214t-29 216
q-29 98 -81 167q-54 71 -126 109q-74 39 -162 39h-497v-1057h399zM608 1733l-18 18l4 2q116 141 173 212q53 67 91 110q31 35 42 41q12 6 22 6h2q28 0 43 -20q14 -18 14 -36q0 -13 -6 -25t-42 -42q-66 -55 -111 -91q-60 -48 -210 -173z" />
    <glyph glyph-name="racute" unicode="&#x155;" horiz-adv-x="1572" 
d="M1483 23v-25h-72q-36 0 -66 6q-29 6 -61 25q-27 16 -67 53q-37 34 -90 93q-74 83 -125 143q-27 32 -175 204q-20 -2 -29 -2h-32h-399v-334q0 -66 28 -106q29 -41 76 -41h21v-39h-379v39h18q49 0 78 41t29 106v1266q0 68 -29 109t-78 41h-18v36h751q117 0 217 -41
q99 -41 168 -114q71 -75 109 -177q39 -104 39 -229q0 -99 -31 -189q-29 -85 -88 -156q-57 -68 -137 -117q-79 -48 -180 -72q174 -207 248 -291q90 -102 146 -156q50 -48 77 -62q22 -11 45 -11h6zM766 551q109 0 202 38q88 36 156 107q66 69 102 167q36 97 36 214t-29 216
q-29 98 -81 167q-54 71 -126 109q-74 39 -162 39h-497v-1057h399zM608 1733l-18 18l4 2q116 141 173 212q53 67 91 110q31 35 42 41q12 6 22 6h2q28 0 43 -20q14 -18 14 -36q0 -13 -6 -25t-42 -42q-66 -55 -111 -91q-60 -48 -210 -173z" />
    <glyph glyph-name="uni0156" unicode="&#x156;" horiz-adv-x="1572" 
d="M780 -53q52 0 73 -40q21 -41 21 -93q0 -80 -39 -144q-40 -65 -106 -98l-10 16q38 21 64 66q26 46 26 100q0 12 -1 17q-2 7 -3 18q-5 -4 -13 -4h-14q-34 0 -57 24q-23 25 -23 58q0 34 23 57t59 23zM1483 23v-25h-72q-36 0 -66 6q-29 6 -61 25q-27 16 -67 53q-37 34 -90 93
q-74 83 -125 143q-27 32 -175 204q-20 -2 -29 -2h-32h-399v-334q0 -66 28 -106q29 -41 76 -41h21v-39h-379v39h18q49 0 78 41t29 106v1266q0 68 -29 109t-78 41h-18v36h751q117 0 217 -41q99 -41 168 -114q71 -75 109 -177q39 -104 39 -229q0 -99 -31 -189q-29 -85 -88 -156
q-57 -68 -137 -117q-79 -48 -180 -72q174 -207 248 -291q90 -102 146 -156q50 -48 77 -62q22 -11 45 -11h6zM766 551q109 0 202 38q88 36 156 107q66 69 102 167q36 97 36 214t-29 216q-29 98 -81 167q-54 71 -126 109q-74 39 -162 39h-497v-1057h399z" />
    <glyph glyph-name="uni0157" unicode="&#x157;" horiz-adv-x="1572" 
d="M780 -53q52 0 73 -40q21 -41 21 -93q0 -80 -39 -144q-40 -65 -106 -98l-10 16q38 21 64 66q26 46 26 100q0 12 -1 17q-2 7 -3 18q-5 -4 -13 -4h-14q-34 0 -57 24q-23 25 -23 58q0 34 23 57t59 23zM1483 23v-25h-72q-36 0 -66 6q-29 6 -61 25q-27 16 -67 53q-37 34 -90 93
q-74 83 -125 143q-27 32 -175 204q-20 -2 -29 -2h-32h-399v-334q0 -66 28 -106q29 -41 76 -41h21v-39h-379v39h18q49 0 78 41t29 106v1266q0 68 -29 109t-78 41h-18v36h751q117 0 217 -41q99 -41 168 -114q71 -75 109 -177q39 -104 39 -229q0 -99 -31 -189q-29 -85 -88 -156
q-57 -68 -137 -117q-79 -48 -180 -72q174 -207 248 -291q90 -102 146 -156q50 -48 77 -62q22 -11 45 -11h6zM766 551q109 0 202 38q88 36 156 107q66 69 102 167q36 97 36 214t-29 216q-29 98 -81 167q-54 71 -126 109q-74 39 -162 39h-497v-1057h399z" />
    <glyph glyph-name="Rcaron" unicode="&#x158;" horiz-adv-x="1572" 
d="M1483 23v-25h-72q-36 0 -66 6q-29 6 -61 25q-27 16 -67 53q-37 34 -90 93q-74 83 -125 143q-27 32 -175 204q-20 -2 -29 -2h-32h-399v-334q0 -66 28 -106q29 -41 76 -41h21v-39h-379v39h18q49 0 78 41t29 106v1266q0 68 -29 109t-78 41h-18v36h751q117 0 217 -41
q99 -41 168 -114q71 -75 109 -177q39 -104 39 -229q0 -99 -31 -189q-29 -85 -88 -156q-57 -68 -137 -117q-79 -48 -180 -72q174 -207 248 -291q90 -102 146 -156q50 -48 77 -62q22 -11 45 -11h6zM766 551q109 0 202 38q88 36 156 107q66 69 102 167q36 97 36 214t-29 216
q-29 98 -81 167q-54 71 -126 109q-74 39 -162 39h-497v-1057h399zM1081 2122l17 -19l-2 -2q-163 -198 -172 -209q-23 -27 -54 -63t-39 -46q-30 -36 -41 -43t-20 -7h-6h-2h-4q-11 0 -21 7q-12 8 -41 42q-46 53 -92 109q-7 8 -67.5 82.5t-104.5 127.5l-4 2l18 19l3 -2
q11 -11 41 -35q55 -44 88 -71q66 -54 100 -83q15 -13 30.5 -26t32 -26t23.5 -19q16 14 85 71q35 29 101 83q14 11 43 35.5t43 35.5q30 24 41 35z" />
    <glyph glyph-name="rcaron" unicode="&#x159;" horiz-adv-x="1572" 
d="M1483 23v-25h-72q-36 0 -66 6q-29 6 -61 25q-27 16 -67 53q-37 34 -90 93q-74 83 -125 143q-27 32 -175 204q-20 -2 -29 -2h-32h-399v-334q0 -66 28 -106q29 -41 76 -41h21v-39h-379v39h18q49 0 78 41t29 106v1266q0 68 -29 109t-78 41h-18v36h751q117 0 217 -41
q99 -41 168 -114q71 -75 109 -177q39 -104 39 -229q0 -99 -31 -189q-29 -85 -88 -156q-57 -68 -137 -117q-79 -48 -180 -72q174 -207 248 -291q90 -102 146 -156q50 -48 77 -62q22 -11 45 -11h6zM766 551q109 0 202 38q88 36 156 107q66 69 102 167q36 97 36 214t-29 216
q-29 98 -81 167q-54 71 -126 109q-74 39 -162 39h-497v-1057h399zM1081 2122l17 -19l-2 -2q-163 -198 -172 -209q-23 -27 -54 -63t-39 -46q-30 -36 -41 -43t-20 -7h-6h-2h-4q-11 0 -21 7q-12 8 -41 42q-46 53 -92 109q-7 8 -67.5 82.5t-104.5 127.5l-4 2l18 19l3 -2
q11 -11 41 -35q55 -44 88 -71q66 -54 100 -83q15 -13 30.5 -26t32 -26t23.5 -19q16 14 85 71q35 29 101 83q14 11 43 35.5t43 35.5q30 24 41 35z" />
    <glyph glyph-name="Sacute" unicode="&#x15a;" horiz-adv-x="1421" 
d="M233 1348q0 -61 48 -106q46 -43 125 -81q72 -35 177 -68q90 -29 203 -69q114 -41 204 -83q98 -46 177 -110t125 -148q47 -86 47 -202q0 -91 -45 -180t-123 -158q-79 -70 -182 -111q-105 -42 -223 -42q-98 0 -204 8q-82 6 -187 24q-91 15 -160 37q-68 21 -123 52l-8 239
h41l31 -61q47 -96 134 -161t191 -87q71 -10 142 -15q92 -6 143 -6q97 0 187 35t157 93t107 133q38 72 38 153q0 100 -47 174q-46 73 -126 130q-78 56 -178 100q-71 31 -203 79q-153 55 -202 74q-103 39 -178 80q-81 44 -126 98q-48 57 -48 129q0 98 44 166t117 109t164 59
q97 19 185 19q66 0 149 -10q79 -10 144 -25q72 -17 130 -39q60 -23 106 -47q-10 -16 -10 -21l10 19l8 -242h-41q-16 28 -30 65q-16 42 -29 66q-16 35 -51 75q-31 36 -82 64q-53 30 -127 47q-72 17 -181 17q-77 0 -153 -12q-71 -11 -135 -43q-58 -29 -96 -84
q-36 -53 -36 -133zM532 1733l-18 18l4 2q116 141 173 212q53 67 91 110q31 35 42 41q12 6 22 6h2q28 0 43 -20q14 -18 14 -36q0 -13 -6 -25t-42 -42q-66 -55 -111 -91q-35 -28 -209 -173z" />
    <glyph glyph-name="sacute" unicode="&#x15b;" horiz-adv-x="1421" 
d="M233 1348q0 -61 48 -106q46 -43 125 -81q72 -35 177 -68q90 -29 203 -69q114 -41 204 -83q98 -46 177 -110t125 -148q47 -86 47 -202q0 -91 -45 -180t-123 -158q-79 -70 -182 -111q-105 -42 -223 -42q-98 0 -204 8q-82 6 -187 24q-91 15 -160 37q-68 21 -123 52l-8 239
h41l31 -61q47 -96 134 -161t191 -87q71 -10 142 -15q92 -6 143 -6q97 0 187 35t157 93t107 133q38 72 38 153q0 100 -47 174q-46 73 -126 130q-78 56 -178 100q-71 31 -203 79q-153 55 -202 74q-103 39 -178 80q-81 44 -126 98q-48 57 -48 129q0 98 44 166t117 109t164 59
q97 19 185 19q66 0 149 -10q79 -10 144 -25q72 -17 130 -39q60 -23 106 -47q-10 -16 -10 -21l10 19l8 -242h-41q-16 28 -30 65q-16 42 -29 66q-16 35 -51 75q-31 36 -82 64q-53 30 -127 47q-72 17 -181 17q-77 0 -153 -12q-71 -11 -135 -43q-58 -29 -96 -84
q-36 -53 -36 -133zM532 1733l-18 18l4 2q116 141 173 212q53 67 91 110q31 35 42 41q12 6 22 6h2q28 0 43 -20q14 -18 14 -36q0 -13 -6 -25t-42 -42q-66 -55 -111 -91q-35 -28 -209 -173z" />
    <glyph glyph-name="Scircumflex" unicode="&#x15c;" horiz-adv-x="1421" 
d="M233 1348q0 -61 48 -106q46 -43 125 -81q72 -35 177 -68q90 -29 203 -69q114 -41 204 -83q98 -46 177 -110t125 -148q47 -86 47 -202q0 -91 -45 -180t-123 -158q-79 -70 -182 -111q-105 -42 -223 -42q-98 0 -204 8q-82 6 -187 24q-91 15 -160 37q-68 21 -123 52l-8 239
h41l31 -61q47 -96 134 -161t191 -87q71 -10 142 -15q92 -6 143 -6q97 0 187 35t157 93t107 133q38 72 38 153q0 100 -47 174q-46 73 -126 130q-78 56 -178 100q-71 31 -203 79q-153 55 -202 74q-103 39 -178 80q-81 44 -126 98q-48 57 -48 129q0 98 44 166t117 109t164 59
q97 19 185 19q66 0 149 -10q79 -10 144 -25q72 -17 130 -39q60 -23 106 -47q-10 -16 -10 -21l10 19l8 -242h-41q-16 28 -30 65q-16 42 -29 66q-16 35 -51 75q-31 36 -82 64q-53 30 -127 47q-72 17 -181 17q-77 0 -153 -12q-71 -11 -135 -43q-58 -29 -96 -84
q-36 -53 -36 -133zM1024 1735q-6 6 -41 34q-14 11 -43 35.5t-43 35.5q-66 54 -101 83q-40 33 -85 72q-50 -42 -86 -72q-10 -9 -101 -83q-77 -63 -87 -71q-40 -32 -42 -34l-2 -2l-18 18l4 2q44 53 104.5 127.5t67.5 82.5q60 74 92 110q29 34 41 42q10 7 21 7h4h2h6q8 0 19 -7
q13 -8 42 -43q10 -12 92 -110q9 -11 172 -209l2 -2l-16 -18z" />
    <glyph glyph-name="scircumflex" unicode="&#x15d;" horiz-adv-x="1421" 
d="M233 1348q0 -61 48 -106q46 -43 125 -81q72 -35 177 -68q90 -29 203 -69q114 -41 204 -83q98 -46 177 -110t125 -148q47 -86 47 -202q0 -91 -45 -180t-123 -158q-79 -70 -182 -111q-105 -42 -223 -42q-98 0 -204 8q-82 6 -187 24q-91 15 -160 37q-68 21 -123 52l-8 239
h41l31 -61q47 -96 134 -161t191 -87q71 -10 142 -15q92 -6 143 -6q97 0 187 35t157 93t107 133q38 72 38 153q0 100 -47 174q-46 73 -126 130q-78 56 -178 100q-71 31 -203 79q-153 55 -202 74q-103 39 -178 80q-81 44 -126 98q-48 57 -48 129q0 98 44 166t117 109t164 59
q97 19 185 19q66 0 149 -10q79 -10 144 -25q72 -17 130 -39q60 -23 106 -47q-10 -16 -10 -21l10 19l8 -242h-41q-16 28 -30 65q-16 42 -29 66q-16 35 -51 75q-31 36 -82 64q-53 30 -127 47q-72 17 -181 17q-77 0 -153 -12q-71 -11 -135 -43q-58 -29 -96 -84
q-36 -53 -36 -133zM1024 1735q-6 6 -41 34q-14 11 -43 35.5t-43 35.5q-66 54 -101 83q-40 33 -85 72q-50 -42 -86 -72q-10 -9 -101 -83q-77 -63 -87 -71q-40 -32 -42 -34l-2 -2l-18 18l4 2q44 53 104.5 127.5t67.5 82.5q60 74 92 110q29 34 41 42q10 7 21 7h4h2h6q8 0 19 -7
q13 -8 42 -43q10 -12 92 -110q9 -11 172 -209l2 -2l-16 -18z" />
    <glyph glyph-name="Scedilla" unicode="&#x15e;" horiz-adv-x="1421" 
d="M698 -127q22 0 62 -8q34 -7 73 -33q36 -24 60 -66q25 -44 25 -110q0 -47 -20 -85q-21 -39 -50 -66q-31 -28 -72 -43q-40 -15 -84 -15q-58 0 -108 27q-51 28 -80 73l31 21q22 -31 45 -47q24 -16 47 -24q22 -7 38 -9q3 0 6.5 -0.5t5.5 -1t4 -0.5h3q76 0 106 50
q29 48 29 124q0 63 -15 99t-35 53q-18 15 -38 20q-16 4 -24 4q-21 0 -43 -3q-26 -3 -52 -13l-2 -2l-20 28l106 146q-187 4 -351 35q-158 30 -253 84l-8 239h41l31 -61q47 -96 134 -161t191 -87q71 -10 142 -15q92 -6 143 -6q97 0 187 35t157 93t107 133q38 72 38 153
q0 100 -47 174q-46 73 -126 130q-78 56 -178 100q-84 37 -203 80q-10 4 -86.5 31t-115.5 42q-103 39 -178 80q-81 44 -126 98q-48 57 -48 129q0 98 44 166t117 109t164 59q97 19 185 19q66 0 149 -10q79 -10 144 -25q72 -17 130 -39q60 -23 106 -47q-10 -16 -10 -21l10 19
l8 -242h-41q-16 28 -30 65q-16 42 -29 66q-16 35 -51 75q-31 36 -82 64q-53 30 -127 47q-72 17 -181 17q-77 0 -153 -12q-71 -11 -135 -43q-58 -29 -96 -84q-36 -53 -36 -133q0 -61 48 -106q46 -43 125 -81q72 -35 177 -68q90 -29 203 -69q114 -41 204 -83q98 -46 177 -110
t125 -148q47 -86 47 -202q0 -91 -45 -180t-123 -158q-79 -70 -182 -111q-105 -42 -223 -42h-23l-90 -121q7 1 23 3q8 1 22 1z" />
    <glyph glyph-name="scedilla" unicode="&#x15f;" horiz-adv-x="1421" 
d="M700 -92q52 0 73 -40q22 -42 22 -93q0 -79 -40 -144t-106 -98l-10 16q38 21 64 66q26 46 26 100q0 12 -1 17q-2 8 -3 18q-5 -4 -13 -4h-14q-34 0 -57 24q-23 25 -23 58q0 34 23 57t59 23zM233 1348q0 -61 48 -106q46 -43 125 -81q72 -35 177 -68q90 -29 203 -69
q114 -41 204 -83q98 -46 177 -110t125 -148q47 -86 47 -202q0 -91 -45 -180t-123 -158q-79 -70 -182 -111q-105 -42 -223 -42q-98 0 -204 8q-93 7 -187 23q-84 14 -160 38q-68 21 -123 52l-8 239h41l31 -61q47 -96 134 -161t191 -87q71 -10 142 -15q92 -6 143 -6
q97 0 187 35t157 93q66 57 106 133q39 73 39 153q0 100 -47 174q-46 73 -126 130q-78 56 -178 100q-71 31 -203 79q-153 55 -202 74q-107 40 -179 80q-79 43 -125 98q-48 57 -48 129q0 98 44 166t117 109t164 59q97 19 185 19q66 0 149 -10q79 -10 144 -25q72 -17 130 -39
q60 -23 106 -47q-10 -16 -10 -21l10 19l8 -242h-41q-16 28 -30 65q-16 42 -29 66q-16 35 -51 75q-31 36 -82 64q-53 30 -127 47q-72 17 -181 17q-77 0 -153 -12q-71 -11 -135 -43q-58 -29 -96 -84q-36 -53 -36 -133z" />
    <glyph glyph-name="Scaron" unicode="&#x160;" horiz-adv-x="1421" 
d="M233 1348q0 -61 48 -106q46 -43 125 -81q72 -35 177 -68q90 -29 203 -69q114 -41 204 -83q98 -46 177 -110t125 -148q47 -86 47 -202q0 -91 -45 -180t-123 -158q-79 -70 -182 -111q-105 -42 -223 -42q-98 0 -204 8q-82 6 -187 24q-91 15 -160 37q-68 21 -123 52l-8 239
h41l31 -61q47 -96 134 -161t191 -87q71 -10 142 -15q92 -6 143 -6q97 0 187 35t157 93t107 133q38 72 38 153q0 100 -47 174q-46 73 -126 130q-78 56 -178 100q-71 31 -203 79q-153 55 -202 74q-103 39 -178 80q-81 44 -126 98q-48 57 -48 129q0 98 44 166t117 109t164 59
q97 19 185 19q66 0 149 -10q79 -10 144 -25q72 -17 130 -39q60 -23 106 -47q-10 -16 -10 -21l10 19l8 -242h-41q-16 28 -30 65q-16 42 -29 66q-16 35 -51 75q-31 36 -82 64q-53 30 -127 47q-72 17 -181 17q-77 0 -153 -12q-71 -11 -135 -43q-58 -29 -96 -84
q-36 -53 -36 -133zM1028 2122l16 -19l-2 -2q-163 -198 -172 -209q-22 -27 -52.5 -63t-39.5 -46q-29 -35 -42 -43q-11 -7 -19 -7h-6h-2h-4q-11 0 -21 7q-12 8 -41 42q-46 53 -92 109q-7 8 -67.5 82.5t-104.5 127.5l-4 2l18 19l2 -2q7 -7 42 -35q10 -8 87 -71q91 -74 101 -83
q15 -13 30.5 -26t32 -26t23.5 -19q16 14 85 71q35 29 101 83q14 11 43 35.5t43 35.5q30 24 41 35z" />
    <glyph glyph-name="scaron" unicode="&#x161;" horiz-adv-x="1421" 
d="M233 1348q0 -61 48 -106q46 -43 125 -81q72 -35 177 -68q90 -29 203 -69q114 -41 204 -83q98 -46 177 -110t125 -148q47 -86 47 -202q0 -91 -45 -180t-123 -158q-79 -70 -182 -111q-105 -42 -223 -42q-98 0 -204 8q-82 6 -187 24q-91 15 -160 37q-68 21 -123 52l-8 239
h41l31 -61q47 -96 134 -161t191 -87q71 -10 142 -15q92 -6 143 -6q97 0 187 35t157 93t107 133q38 72 38 153q0 100 -47 174q-46 73 -126 130q-78 56 -178 100q-71 31 -203 79q-153 55 -202 74q-103 39 -178 80q-81 44 -126 98q-48 57 -48 129q0 98 44 166t117 109t164 59
q97 19 185 19q66 0 149 -10q79 -10 144 -25q72 -17 130 -39q60 -23 106 -47q-10 -16 -10 -21l10 19l8 -242h-41q-16 28 -30 65q-16 42 -29 66q-16 35 -51 75q-31 36 -82 64q-53 30 -127 47q-72 17 -181 17q-77 0 -153 -12q-71 -11 -135 -43q-58 -29 -96 -84
q-36 -53 -36 -133zM1028 2122l16 -19l-2 -2q-163 -198 -172 -209q-22 -27 -52.5 -63t-39.5 -46q-29 -35 -42 -43q-11 -7 -19 -7h-6h-2h-4q-11 0 -21 7q-12 8 -41 42q-46 53 -92 109q-7 8 -67.5 82.5t-104.5 127.5l-4 2l18 19l2 -2q7 -7 42 -35q10 -8 87 -71q91 -74 101 -83
q15 -13 30.5 -26t32 -26t23.5 -19q16 14 85 71q35 29 101 83q14 11 43 35.5t43 35.5q30 24 41 35z" />
    <glyph glyph-name="uni0162" unicode="&#x162;" horiz-adv-x="1665" 
d="M1559 1624q2 0 7 -38q1 -11 3 -24.5t4.5 -31.5t3.5 -29q9 -67 11 -89q5 -47 5 -48h-39l-30 59q-47 85 -127 135t-162 50h-338v-1422q0 -65 28 -107q27 -40 74 -40h19v-39h-371v39q59 0 91 35t32 112v1422h-338q-82 0 -162 -50t-127 -135l-30 -59h-39q0 4 5 49q2 20 11 88
q1 5 5 37.5t6 47.5q5 38 8 38l2 14h1445zM825 -68q52 0 73 -40q22 -42 22 -93q0 -78 -40 -143t-106 -98l-10 16q38 21 64 66q26 46 26 100q0 11 -1 16t-3 19q-5 -4 -13 -4h-14q-35 0 -57 23q-23 25 -23 59t23 57q22 22 59 22z" />
    <glyph glyph-name="uni0163" unicode="&#x163;" horiz-adv-x="1665" 
d="M1559 1624q2 0 7 -38q1 -11 3 -24.5t4.5 -31.5t3.5 -29q9 -67 11 -89q5 -47 5 -48h-39l-30 59q-47 85 -127 135t-162 50h-338v-1422q0 -65 28 -107q27 -40 74 -40h19v-39h-371v39q59 0 91 35t32 112v1422h-338q-82 0 -162 -50t-127 -135l-30 -59h-39q0 4 5 49q2 20 11 88
q1 5 5 37.5t6 47.5q5 38 8 38l2 14h1445zM825 -68q52 0 73 -40q22 -42 22 -93q0 -78 -40 -143t-106 -98l-10 16q38 21 64 66q26 46 26 100q0 11 -1 16t-3 19q-5 -4 -13 -4h-14q-35 0 -57 23q-23 25 -23 59t23 57q22 22 59 22z" />
    <glyph glyph-name="Tcaron" unicode="&#x164;" horiz-adv-x="1665" 
d="M1559 1624q2 0 7 -38q1 -11 3 -24.5t4.5 -31.5t3.5 -29q9 -67 11 -89q5 -47 5 -48h-39l-30 59q-47 85 -127 135t-162 50h-338v-1422q0 -65 28 -107q27 -40 74 -40h19v-39h-371v39q59 0 91 35t32 112v1422h-338q-82 0 -162 -50t-127 -135l-30 -59h-39q0 4 5 49q2 20 11 88
q1 5 5 37.5t6 47.5q5 38 8 38l2 14h1445zM1151 2122l16 -19l-2 -2q-163 -198 -172 -209q-22 -27 -52.5 -63t-39.5 -46q-29 -35 -42 -43q-11 -7 -19 -7h-6h-3h-4q-10 0 -20 7q-12 8 -41 42q-46 53 -92 109q-7 8 -67.5 82.5t-104.5 127.5l-4 2l18 19l2 -2q7 -7 42 -35
q10 -8 87 -71q91 -74 101 -83q15 -13 30.5 -26t32 -26t23.5 -19q16 14 85 71q35 29 101 83q14 11 43 35.5t43 35.5q30 24 41 35z" />
    <glyph glyph-name="tcaron" unicode="&#x165;" horiz-adv-x="1665" 
d="M1559 1624q2 0 7 -38q1 -11 3 -24.5t4.5 -31.5t3.5 -29q9 -67 11 -89q5 -47 5 -48h-39l-30 59q-47 85 -127 135t-162 50h-338v-1422q0 -65 28 -107q27 -40 74 -40h19v-39h-371v39q59 0 91 35t32 112v1422h-338q-82 0 -162 -50t-127 -135l-30 -59h-39q0 4 5 49q2 20 11 88
q1 5 5 37.5t6 47.5q5 38 8 38l2 14h1445zM1151 2122l16 -19l-2 -2q-163 -198 -172 -209q-22 -27 -52.5 -63t-39.5 -46q-29 -35 -42 -43q-11 -7 -19 -7h-6h-3h-4q-10 0 -20 7q-12 8 -41 42q-46 53 -92 109q-7 8 -67.5 82.5t-104.5 127.5l-4 2l18 19l2 -2q7 -7 42 -35
q10 -8 87 -71q91 -74 101 -83q15 -13 30.5 -26t32 -26t23.5 -19q16 14 85 71q35 29 101 83q14 11 43 35.5t43 35.5q30 24 41 35z" />
    <glyph glyph-name="Utilde" unicode="&#x168;" horiz-adv-x="1810" 
d="M1395 1638h321v-39h-22q-23 0 -43 -14q-21 -15 -37 -38q-16 -24 -27 -54q-10 -29 -10 -63v-904q0 -104 -45 -200q-45 -97 -129 -170q-84 -74 -207 -117q-122 -43 -276 -43q-160 0 -288 48q-127 48 -216 131q-88 82 -135 193q-48 113 -48 232v850q0 60 -31 104
q-32 45 -73 45h-18v39h368v-39h-18q-39 0 -69 -40q-29 -40 -34 -97l2 -889q0 -107 40 -202q41 -97 114 -170q74 -73 180 -117q105 -43 242 -43q141 0 253 41t189 109q79 70 119 159q41 91 41 189l2 903q-5 64 -40 110q-36 47 -83 47h-22v39zM1186 1931h22v-6
q-7 -89 -53 -127q-44 -37 -92 -37q-41 0 -82 18q-77 34 -83 37q-16 7 -45 19.5t-37 16.5q-41 18 -77 18h-2q-1 0 -3.5 -0.5t-6 -1t-7.5 -0.5q-13 -1 -29 -11q-13 -8 -29 -30t-17 -58v-4h-24v4q2 30 11 62q10 33 26 56q19 27 43 41q27 16 61 16q38 0 81 -17q47 -18 84 -37
q34 -17 83 -37q39 -16 80 -16q52 0 72 31q19 30 24 59v4z" />
    <glyph glyph-name="utilde" unicode="&#x169;" horiz-adv-x="1810" 
d="M1395 1638h321v-39h-22q-23 0 -43 -14q-21 -15 -37 -38q-16 -24 -27 -54q-10 -29 -10 -63v-904q0 -104 -45 -200q-45 -97 -129 -170q-84 -74 -207 -117q-122 -43 -276 -43q-160 0 -288 48q-127 48 -216 131q-88 82 -135 193q-48 113 -48 232v850q0 60 -31 104
q-32 45 -73 45h-18v39h368v-39h-18q-39 0 -69 -40q-29 -40 -34 -97l2 -889q0 -107 40 -202q41 -97 114 -170q74 -73 180 -117q105 -43 242 -43q141 0 253 41t189 109q79 70 119 159q41 91 41 189l2 903q-5 64 -40 110q-36 47 -83 47h-22v39zM1186 1931h22v-6
q-7 -89 -53 -127q-44 -37 -92 -37q-41 0 -82 18q-77 34 -83 37q-16 7 -45 19.5t-37 16.5q-41 18 -77 18h-2q-1 0 -3.5 -0.5t-6 -1t-7.5 -0.5q-13 -1 -29 -11q-13 -8 -29 -30t-17 -58v-4h-24v4q2 30 11 62q10 33 26 56q19 27 43 41q27 16 61 16q38 0 81 -17q47 -18 84 -37
q34 -17 83 -37q39 -16 80 -16q52 0 72 31q19 30 24 59v4z" />
    <glyph glyph-name="Umacron" unicode="&#x16a;" horiz-adv-x="1810" 
d="M1395 1638h321v-39h-22q-23 0 -43 -14q-21 -15 -37 -38q-16 -24 -27 -54q-10 -29 -10 -63v-904q0 -104 -45 -200q-45 -97 -129 -170q-84 -74 -207 -117q-122 -43 -276 -43q-160 0 -288 48q-127 48 -216 131q-88 82 -135 193q-48 113 -48 232v850q0 60 -31 104
q-32 45 -73 45h-18v39h368v-39h-18q-39 0 -69 -40q-29 -40 -34 -97l2 -889q0 -107 40 -202q41 -97 114 -170q74 -73 180 -117q105 -43 242 -43q141 0 253 41t189 109q79 70 119 159q41 91 41 189l2 903q-5 64 -40 110q-36 47 -83 47h-22v39zM664 1823v32h503v-32h-503z" />
    <glyph glyph-name="umacron" unicode="&#x16b;" horiz-adv-x="1810" 
d="M1395 1638h321v-39h-22q-23 0 -43 -14q-21 -15 -37 -38q-16 -24 -27 -54q-10 -29 -10 -63v-904q0 -104 -45 -200q-45 -97 -129 -170q-84 -74 -207 -117q-122 -43 -276 -43q-160 0 -288 48q-127 48 -216 131q-88 82 -135 193q-48 113 -48 232v850q0 60 -31 104
q-32 45 -73 45h-18v39h368v-39h-18q-39 0 -69 -40q-29 -40 -34 -97l2 -889q0 -107 40 -202q41 -97 114 -170q74 -73 180 -117q105 -43 242 -43q141 0 253 41t189 109q79 70 119 159q41 91 41 189l2 903q-5 64 -40 110q-36 47 -83 47h-22v39zM664 1823v32h503v-32h-503z" />
    <glyph glyph-name="Ubreve" unicode="&#x16c;" horiz-adv-x="1810" 
d="M1395 1638h321v-39h-22q-23 0 -43 -14q-21 -15 -37 -38q-16 -24 -27 -54q-10 -29 -10 -63v-904q0 -104 -45 -200q-45 -97 -129 -170q-84 -74 -207 -117q-122 -43 -276 -43q-160 0 -288 48q-127 48 -216 131q-88 82 -135 193q-48 113 -48 232v850q0 60 -31 104
q-32 45 -73 45h-18v39h368v-39h-18q-39 0 -69 -40q-29 -40 -34 -97l2 -889q0 -107 40 -202q41 -97 114 -170q74 -73 180 -117q105 -43 242 -43q141 0 253 41t189 109q79 70 119 159q41 91 41 189l2 903q-5 64 -40 110q-36 47 -83 47h-22v39zM1176 1954q-16 -95 -91 -156
q-72 -59 -180 -59t-180 59q-73 60 -90 156l18 2q10 -65 80 -103q66 -36 172 -36q108 0 174 36q70 38 80 103z" />
    <glyph glyph-name="ubreve" unicode="&#x16d;" horiz-adv-x="1810" 
d="M1395 1638h321v-39h-22q-23 0 -43 -14q-21 -15 -37 -38q-16 -24 -27 -54q-10 -29 -10 -63v-904q0 -104 -45 -200q-45 -97 -129 -170q-84 -74 -207 -117q-122 -43 -276 -43q-160 0 -288 48q-127 48 -216 131q-88 82 -135 193q-48 113 -48 232v850q0 60 -31 104
q-32 45 -73 45h-18v39h368v-39h-18q-39 0 -69 -40q-29 -40 -34 -97l2 -889q0 -107 40 -202q41 -97 114 -170q74 -73 180 -117q105 -43 242 -43q141 0 253 41t189 109q79 70 119 159q41 91 41 189l2 903q-5 64 -40 110q-36 47 -83 47h-22v39zM1176 1954q-16 -95 -91 -156
q-72 -59 -180 -59t-180 59q-73 60 -90 156l18 2q10 -65 80 -103q66 -36 172 -36q108 0 174 36q70 38 80 103z" />
    <glyph glyph-name="Uring" unicode="&#x16e;" horiz-adv-x="1810" 
d="M1395 1638h321v-39h-22q-23 0 -43 -14q-21 -15 -37 -38q-16 -24 -27 -54q-10 -29 -10 -63v-904q0 -104 -45 -200q-45 -97 -129 -170q-84 -74 -207 -117q-122 -43 -276 -43q-160 0 -288 48q-127 48 -216 131q-88 82 -135 193q-48 113 -48 232v850q0 60 -31 104
q-32 45 -73 45h-18v39h368v-39h-18q-39 0 -69 -40q-29 -40 -34 -97l2 -889q0 -107 40 -202q41 -97 114 -170q74 -73 180 -117q105 -43 242 -43q141 0 253 41t189 109q79 70 119 159q41 91 41 189l2 903q-5 64 -40 110q-36 47 -83 47h-22v39zM905 1731q-49 0 -89 17
q-43 18 -74 48q-32 30 -50 71t-18 85q0 46 18 86q17 39 50 70q31 30 74 48q40 17 89 17q51 0 91 -17q44 -19 73 -48q32 -32 49 -70q19 -43 19 -86q0 -42 -19 -85q-18 -40 -49 -71q-29 -29 -73 -48q-40 -17 -91 -17zM905 2146q-28 0 -55 -15q-26 -15 -46 -42q-19 -27 -31 -62
q-11 -33 -11 -75q0 -79 42 -136t101 -57q60 0 102 57t42 136q0 80 -42 137t-102 57z" />
    <glyph glyph-name="uring" unicode="&#x16f;" horiz-adv-x="1810" 
d="M1395 1638h321v-39h-22q-23 0 -43 -14q-21 -15 -37 -38q-16 -24 -27 -54q-10 -29 -10 -63v-904q0 -104 -45 -200q-45 -97 -129 -170q-84 -74 -207 -117q-122 -43 -276 -43q-160 0 -288 48q-127 48 -216 131q-88 82 -135 193q-48 113 -48 232v850q0 60 -31 104
q-32 45 -73 45h-18v39h368v-39h-18q-39 0 -69 -40q-29 -40 -34 -97l2 -889q0 -107 40 -202q41 -97 114 -170q74 -73 180 -117q105 -43 242 -43q141 0 253 41t189 109q79 70 119 159q41 91 41 189l2 903q-5 64 -40 110q-36 47 -83 47h-22v39zM905 1731q-49 0 -89 17
q-43 18 -74 48q-32 30 -50 71t-18 85q0 46 18 86q17 39 50 70q31 30 74 48q40 17 89 17q51 0 91 -17q44 -19 73 -48q32 -32 49 -70q19 -43 19 -86q0 -42 -19 -85q-18 -40 -49 -71q-29 -29 -73 -48q-40 -17 -91 -17zM905 2146q-28 0 -55 -15q-26 -15 -46 -42q-19 -27 -31 -62
q-11 -33 -11 -75q0 -79 42 -136t101 -57q60 0 102 57t42 136q0 80 -42 137t-102 57z" />
    <glyph glyph-name="Uhungarumlaut" unicode="&#x170;" horiz-adv-x="1810" 
d="M1395 1638h321v-39h-22q-23 0 -43 -14q-21 -15 -37 -38q-16 -24 -27 -54q-10 -29 -10 -63v-904q0 -104 -45 -200q-45 -97 -129 -170q-84 -74 -207 -117q-122 -43 -276 -43q-160 0 -288 48q-127 48 -216 131q-88 82 -135 193q-48 113 -48 232v850q0 60 -31 104
q-32 45 -73 45h-18v39h368v-39h-18q-39 0 -69 -40q-29 -40 -34 -97l2 -889q0 -107 40 -202q41 -97 114 -170q74 -73 180 -117q105 -43 242 -43q141 0 253 41t189 109q79 70 119 159q41 91 41 189l2 903q-5 64 -40 110q-36 47 -83 47h-22v39zM627 1733l-19 18l4 2
q116 141 173 212q42 53 92 110q31 35 42 41q12 6 21 6h2q28 0 43 -20q14 -18 14 -36q0 -13 -6 -25t-42 -42q-90 -75 -110 -91q-60 -48 -210 -173zM991 1733l-18 18l4 2q116 141 173 212q54 67 91 110q31 35 42 41q12 6 22 6h2q28 0 43 -20q14 -18 14 -36q0 -13 -6 -25
t-42 -42q-66 -55 -111 -91q-60 -48 -210 -173z" />
    <glyph glyph-name="uhungarumlaut" unicode="&#x171;" horiz-adv-x="1810" 
d="M1395 1638h321v-39h-22q-23 0 -43 -14q-21 -15 -37 -38q-16 -24 -27 -54q-10 -29 -10 -63v-904q0 -104 -45 -200q-45 -97 -129 -170q-84 -74 -207 -117q-122 -43 -276 -43q-160 0 -288 48q-127 48 -216 131q-88 82 -135 193q-48 113 -48 232v850q0 60 -31 104
q-32 45 -73 45h-18v39h368v-39h-18q-39 0 -69 -40q-29 -40 -34 -97l2 -889q0 -107 40 -202q41 -97 114 -170q74 -73 180 -117q105 -43 242 -43q141 0 253 41t189 109q79 70 119 159q41 91 41 189l2 903q-5 64 -40 110q-36 47 -83 47h-22v39zM627 1733l-19 18l4 2
q116 141 173 212q42 53 92 110q31 35 42 41q12 6 21 6h2q28 0 43 -20q14 -18 14 -36q0 -13 -6 -25t-42 -42q-90 -75 -110 -91q-60 -48 -210 -173zM991 1733l-18 18l4 2q116 141 173 212q54 67 91 110q31 35 42 41q12 6 22 6h2q28 0 43 -20q14 -18 14 -36q0 -13 -6 -25
t-42 -42q-66 -55 -111 -91q-60 -48 -210 -173z" />
    <glyph glyph-name="Uogonek" unicode="&#x172;" horiz-adv-x="1810" 
d="M879 -471q-77 0 -129 41t-52 113q0 79 63 150q67 75 181 163h-22q-160 0 -288 48q-127 48 -216 131q-88 82 -135 193q-48 113 -48 232v850q0 60 -31 104q-32 45 -73 45h-18v39h368v-39h-18q-39 0 -69 -40q-29 -40 -34 -97l2 -889q0 -107 40 -202q41 -97 114 -170
q74 -73 180 -117q105 -43 242 -43q141 0 253 41t189 109q79 70 119 159q41 91 41 189l2 903q-5 64 -40 110q-36 47 -83 47h-22v39h321v-39h-22q-23 0 -43 -14q-21 -15 -37 -38q-16 -24 -27 -54q-10 -29 -10 -63v-904q0 -98 -39 -188t-114 -162q-77 -74 -182 -119
q-108 -47 -243 -57q-67 -52 -105 -101q-37 -47 -55 -88q-17 -38 -22 -68q-4 -24 -4 -40v-1q0 -1 0.5 -3t0.5 -4.5t0.5 -6t0.5 -7.5q2 -22 12 -46q11 -26 31 -44q20 -19 60 -19q23 0 50 8q24 7 45 20q5 3 16.5 10t16.5 10l13 9l20 -24q-32 -28 -64 -43t-60 -23q-27 -7 -47 -9
q-13 -1 -25 -1h-4z" />
    <glyph glyph-name="uogonek" unicode="&#x173;" horiz-adv-x="1810" 
d="M879 -471q-77 0 -129 41t-52 113q0 79 63 150q67 75 181 163h-22q-160 0 -288 48q-127 48 -216 131q-88 82 -135 193q-48 113 -48 232v850q0 60 -31 104q-32 45 -73 45h-18v39h368v-39h-18q-39 0 -69 -40q-29 -40 -34 -97l2 -889q0 -107 40 -202q41 -97 114 -170
q74 -73 180 -117q105 -43 242 -43q141 0 253 41t189 109q79 70 119 159q41 91 41 189l2 903q-5 64 -40 110q-36 47 -83 47h-22v39h321v-39h-22q-23 0 -43 -14q-21 -15 -37 -38q-16 -24 -27 -54q-10 -29 -10 -63v-904q0 -98 -39 -188t-114 -162q-77 -74 -182 -119
q-108 -47 -243 -57q-67 -52 -105 -101q-37 -47 -55 -88q-17 -38 -22 -68q-4 -24 -4 -40v-1q0 -1 0.5 -3t0.5 -4.5t0.5 -6t0.5 -7.5q2 -22 12 -46q11 -26 31 -44q20 -19 60 -19q23 0 50 8q24 7 45 20q5 3 16.5 10t16.5 10l13 9l20 -24q-32 -28 -64 -43t-60 -23q-27 -7 -47 -9
q-13 -1 -25 -1h-4z" />
    <glyph glyph-name="Ydieresis" unicode="&#x178;" horiz-adv-x="1640" 
d="M1264 1638h299v-39q-105 0 -199 -147q-16 -24 -27 -42q-1 -2 -10 -18t-16 -27q-9 -15 -44 -75q-6 -10 -32 -54.5t-45 -77.5q-65 -112 -127 -216q-110 -185 -193 -326v-430q0 -65 29 -106t76 -41h18v-39h-368v39h18q47 0 76 41t29 106v383l-498 883q-47 73 -90 110t-90 37
v39h364v-39h-20q-49 0 -49 -45q0 -41 32 -92l461 -798l449 759q43 73 43 119q0 57 -62 57h-16q-8 0 -8 21v18zM735 1866q0 -38 -22 -56q-23 -18 -51 -18q-29 0 -53 18q-23 17 -23 56q0 38 23 55q24 18 53 18q28 0 51 -18q22 -18 22 -55zM1053 1866q0 -38 -24 -56t-52 -18
q-29 0 -51 18q-23 18 -23 56q0 37 23 55q22 18 51 18q28 0 52 -18t24 -55z" />
    <glyph glyph-name="Zacute" unicode="&#x179;" horiz-adv-x="1478" 
d="M1366 276l20 -4l17 -4q10 -2 16 -2l-55 -266h-1319l1184 1608h-709q-37 0 -86 -13q-44 -12 -88 -33q-33 -16 -83 -53q-40 -30 -70 -67l-23 -29h-39l66 211l4 14h1194l-1184 -1605h821q92 0 180 57q87 56 138 150zM641 1733l-18 18l4 2q116 141 173 212q54 67 91 110
q31 35 42 41q12 6 21 6h2q28 0 43 -20t15 -36q0 -13 -6 -25t-42 -42q-66 -55 -111 -91q-60 -48 -210 -173z" />
    <glyph glyph-name="zacute" unicode="&#x17a;" horiz-adv-x="1478" 
d="M1366 276l20 -4l17 -4q10 -2 16 -2l-55 -266h-1319l1184 1608h-709q-37 0 -86 -13q-44 -12 -88 -33q-33 -16 -83 -53q-40 -30 -70 -67l-23 -29h-39l66 211l4 14h1194l-1184 -1605h821q92 0 180 57q87 56 138 150zM641 1733l-18 18l4 2q116 141 173 212q54 67 91 110
q31 35 42 41q12 6 21 6h2q28 0 43 -20t15 -36q0 -13 -6 -25t-42 -42q-66 -55 -111 -91q-60 -48 -210 -173z" />
    <glyph glyph-name="Zdotaccent" unicode="&#x17b;" horiz-adv-x="1478" 
d="M1366 276l20 -4l17 -4q10 -2 16 -2l-55 -266h-1319l1184 1608h-709q-37 0 -86 -13q-44 -12 -88 -33q-33 -16 -83 -53q-40 -30 -70 -67l-23 -29h-39l66 211l4 14h1194l-1184 -1605h821q92 0 180 57q87 56 138 150zM768 1939q31 0 56 -19q26 -20 26 -60q0 -41 -26 -61
q-25 -19 -56 -19t-56 19q-26 20 -26 61q0 40 26 60q25 19 56 19z" />
    <glyph glyph-name="zdotaccent" unicode="&#x17c;" horiz-adv-x="1478" 
d="M1366 276l20 -4l17 -4q10 -2 16 -2l-55 -266h-1319l1184 1608h-709q-37 0 -86 -13q-44 -12 -88 -33q-33 -16 -83 -53q-40 -30 -70 -67l-23 -29h-39l66 211l4 14h1194l-1184 -1605h821q92 0 180 57q87 56 138 150zM768 1939q31 0 56 -19q26 -20 26 -60q0 -41 -26 -61
q-25 -19 -56 -19t-56 19q-26 20 -26 61q0 40 26 60q25 19 56 19z" />
    <glyph glyph-name="Zcaron" unicode="&#x17d;" horiz-adv-x="1478" 
d="M1366 276l20 -4l17 -4q10 -2 16 -2l-55 -266h-1319l1184 1608h-709q-37 0 -86 -13q-44 -12 -88 -33q-33 -16 -83 -53q-40 -30 -70 -67l-23 -29h-39l66 211l4 14h1194l-1184 -1605h821q92 0 180 57q87 56 138 150zM1057 2122l16 -19l-2 -2q-163 -198 -172 -209
q-22 -27 -52.5 -63t-39.5 -46q-29 -35 -42 -43q-11 -7 -20 -7h-6h-2h-4q-10 0 -20 7q-12 8 -41 42q-46 53 -92 109q-7 8 -67.5 82.5t-104.5 127.5l-5 2l19 19l2 -2q7 -7 42 -35q10 -8 87 -71q66 -54 100 -83q15 -13 30.5 -26t32 -26t23.5 -19q16 14 85 71q20 17 55.5 45.5
t46.5 37.5q14 11 43 35.5t43 35.5q30 24 41 35z" />
    <glyph glyph-name="zcaron" unicode="&#x17e;" horiz-adv-x="1478" 
d="M1366 276l20 -4l17 -4q10 -2 16 -2l-55 -266h-1319l1184 1608h-709q-37 0 -86 -13q-44 -12 -88 -33q-33 -16 -83 -53q-40 -30 -70 -67l-23 -29h-39l66 211l4 14h1194l-1184 -1605h821q92 0 180 57q87 56 138 150zM1057 2122l16 -19l-2 -2q-163 -198 -172 -209
q-22 -27 -52.5 -63t-39.5 -46q-29 -35 -42 -43q-11 -7 -20 -7h-6h-2h-4q-10 0 -20 7q-12 8 -41 42q-46 53 -92 109q-7 8 -67.5 82.5t-104.5 127.5l-5 2l19 19l2 -2q7 -7 42 -35q10 -8 87 -71q66 -54 100 -83q15 -13 30.5 -26t32 -26t23.5 -19q16 14 85 71q20 17 55.5 45.5
t46.5 37.5q14 11 43 35.5t43 35.5q30 24 41 35z" />
    <glyph glyph-name="uni0218" unicode="&#x218;" horiz-adv-x="1421" 
d="M700 -92q52 0 73 -40q22 -42 22 -93q0 -79 -40 -144t-106 -98l-10 16q38 21 64 66q26 46 26 100q0 12 -1 17q-2 8 -3 18q-5 -4 -13 -4h-14q-34 0 -57 24q-23 25 -23 58q0 34 23 57t59 23zM233 1348q0 -61 48 -106q46 -43 125 -81q72 -35 177 -68q90 -29 203 -69
q114 -41 204 -83q98 -46 177 -110t125 -148q47 -86 47 -202q0 -91 -45 -180t-123 -158q-79 -70 -182 -111q-105 -42 -223 -42q-98 0 -204 8q-93 7 -187 23q-84 14 -160 38q-68 21 -123 52l-8 239h41l31 -61q47 -96 134 -161t191 -87q71 -10 142 -15q92 -6 143 -6
q97 0 187 35t157 93q66 57 106 133q39 73 39 153q0 100 -47 174q-46 73 -126 130q-78 56 -178 100q-71 31 -203 79q-153 55 -202 74q-107 40 -179 80q-79 43 -125 98q-48 57 -48 129q0 98 44 166t117 109t164 59q97 19 185 19q66 0 149 -10q79 -10 144 -25q72 -17 130 -39
q60 -23 106 -47q-10 -16 -10 -21l10 19l8 -242h-41q-16 28 -30 65q-16 42 -29 66q-16 35 -51 75q-31 36 -82 64q-53 30 -127 47q-72 17 -181 17q-77 0 -153 -12q-71 -11 -135 -43q-58 -29 -96 -84q-36 -53 -36 -133z" />
    <glyph glyph-name="circumflex" unicode="&#x2c6;" horiz-adv-x="823" 
d="M719 1735q-6 6 -41 34q-14 11 -43 35.5t-43 35.5q-11 9 -46.5 37.5t-55.5 45.5q-16 13 -84 72q-82 -68 -87 -72q-34 -29 -100 -83q-77 -63 -87 -71q-40 -32 -42 -34l-2 -2l-18 18l4 2q44 53 104.5 127.5t67.5 82.5q60 74 92 110q29 34 41 42q10 7 20 7h4h3h6q8 0 19 -7
q13 -8 42 -43q10 -12 92 -110q9 -11 172 -209l2 -2l-16 -18z" />
    <glyph glyph-name="caron" unicode="&#x2c7;" horiz-adv-x="811" 
d="M723 2122l16 -19l-2 -2q-163 -198 -172 -209q-22 -27 -52.5 -63t-39.5 -46q-29 -35 -42 -43q-11 -7 -19 -7h-6h-3h-4q-10 0 -20 7q-12 8 -41 42q-46 53 -92 109q-7 8 -67.5 82.5t-104.5 127.5l-4 2l18 19l2 -2q7 -7 42 -35q10 -8 87 -71q66 -54 100 -83q20 -17 51 -42
t36 -29q40 34 84 71q20 17 55.5 45.5t46.5 37.5q14 11 43 35.5t43 35.5q30 24 41 35z" />
    <glyph glyph-name="breve" unicode="&#x2d8;" horiz-adv-x="710" 
d="M629 1954q-17 -96 -90 -156q-72 -59 -181 -59q-108 0 -180 59q-74 60 -90 156l18 2q10 -65 80 -103q66 -36 172 -36q108 0 174 36q70 38 80 103z" />
    <glyph glyph-name="dotaccent" unicode="&#x2d9;" horiz-adv-x="311" 
d="M160 1939q31 0 56 -19q26 -20 26 -60q0 -41 -26 -61q-25 -19 -56 -19q-32 0 -57 19t-25 61q0 41 25 60t57 19z" />
    <glyph glyph-name="ring" unicode="&#x2da;" horiz-adv-x="565" 
d="M281 1731q-50 0 -90 17q-41 18 -73 48t-50 71q-19 43 -19 85q0 43 19 86q17 39 50 70q32 30 73 48q40 17 90 17q51 0 91 -17q42 -18 72 -48q34 -34 50 -70q18 -40 18 -86q0 -44 -18 -85q-17 -38 -50 -71q-30 -30 -72 -48q-40 -17 -91 -17zM281 2146q-29 0 -56 -15
q-26 -15 -46 -42q-19 -26 -31 -63q-11 -33 -11 -74q0 -79 42 -136t102 -57q59 0 101 57t42 136q0 80 -42 137t-101 57z" />
    <glyph glyph-name="ogonek" unicode="&#x2db;" horiz-adv-x="501" 
d="M250 -520q-77 0 -129 41q-51 41 -51 112q0 80 63 152q62 70 186 166h54q-67 -52 -106 -102t-56 -88q-19 -43 -23 -67t-4 -40v-3q1 -3 1.5 -8.5t0.5 -11.5q1 -18 13 -45t30 -44q20 -19 60 -19q23 0 50 8t45 19q20 12 33 21l13 9l21 -24q-31 -27 -65 -43q-33 -16 -59 -23
q-27 -7 -47 -9q-13 -1 -26 -1h-4z" />
    <glyph glyph-name="tilde" unicode="&#x2dc;" horiz-adv-x="737" 
d="M637 1931h22v-6q-7 -89 -53 -127q-44 -37 -92 -37q-42 0 -82 18q-77 34 -83 37q-16 7 -45 19.5t-37 16.5q-40 18 -77 18h-2q-1 0 -3.5 -0.5t-6 -1t-7.5 -0.5q-13 -1 -29 -11q-13 -8 -29 -30t-17 -58v-4h-24v4q2 30 11 62q9 31 27 56q19 27 43 41q27 16 60 16q38 0 81 -17
q47 -18 84 -37q34 -17 83 -37q39 -16 80 -16q52 0 72 31q19 30 24 59v4z" />
    <glyph glyph-name="hungarumlaut" unicode="&#x2dd;" horiz-adv-x="897" 
d="M86 1733l-18 18l4 2q116 141 173 212q53 67 91 110q31 35 42 41q12 6 21 6h2q28 0 43 -20t15 -36q0 -13 -6 -25t-42 -42q-66 -55 -111 -91q-60 -48 -210 -173zM451 1733l-19 18l4 2q116 141 173 212q54 67 91 110q31 35 42 41q12 6 22 6h2q28 0 43 -20q14 -18 14 -36
q0 -13 -6 -25t-42 -42q-90 -75 -110 -91q-60 -48 -210 -173z" />
    <glyph glyph-name="endash" unicode="&#x2013;" horiz-adv-x="1167" 
d="M125 795v53h905v-53h-905z" />
    <glyph glyph-name="emdash" unicode="&#x2014;" horiz-adv-x="1361" 
d="M125 795v53h1110v-53h-1110z" />
    <glyph glyph-name="quoteleft" unicode="&#x2018;" horiz-adv-x="397" 
d="M207 1638q37 0 59 -22q23 -23 23 -57t-23 -59q-22 -23 -57 -23h-13q-9 0 -14 4q-2 -14 -3 -19t-1 -16q0 -54 26 -100q26 -45 64 -66l-10 -16q-65 32 -105 98q-40 65 -40 143q0 53 21 93t73 40z" />
    <glyph glyph-name="quoteright" unicode="&#x2019;" horiz-adv-x="397" 
d="M195 1638q51 0 72 -40q22 -42 22 -93q0 -78 -40 -143t-106 -98l-10 16q40 21 65 66q25 44 25 100q0 11 -1 16t-3 19q-5 -4 -13 -4h-13q-36 0 -58 23t-22 59q0 35 22 57t60 22z" />
    <glyph glyph-name="quotesinglbase" unicode="&#x201a;" horiz-adv-x="372" 
d="M180 164q52 0 73 -40t21 -93q0 -79 -40 -144q-40 -66 -105 -98l-10 16q38 21 64 66q26 46 26 100q0 12 -1 17q-2 8 -3 18q-5 -4 -14 -4h-13q-34 0 -57 24q-23 25 -23 58q0 34 23 57t59 23z" />
    <glyph glyph-name="quotedblleft" unicode="&#x201c;" horiz-adv-x="608" 
d="M268 1559q0 -36 -22 -59t-58 -23q-19 0 -28 4q-2 -14 -2 -19v-16q0 -58 24 -103q24 -44 64 -63l-8 -16q-68 33 -108 98t-40 143q0 52 23 93q22 40 73 40q36 0 59 -22t23 -57zM485 1280l-10 -16q-65 32 -105 98q-40 65 -40 143q0 53 22 93t74 40q35 0 57 -22
q23 -23 23 -57t-22 -59q-20 -23 -56 -23q-20 0 -29 4q-2 -14 -2 -19v-16q0 -56 25 -103q24 -45 63 -63z" />
    <glyph glyph-name="quotedblright" unicode="&#x201d;" horiz-adv-x="608" 
d="M328 1559q0 35 23 57t59 22q51 0 73 -40q23 -41 23 -93q0 -78 -40 -143t-108 -98l-8 16q40 19 64 63q24 45 24 103v16q0 5 -2 19q-9 -4 -28 -4q-36 0 -58 23t-22 59zM111 1280q39 18 63 63q25 47 25 103v16q0 5 -2 19q-9 -4 -29 -4q-36 0 -56 23q-22 25 -22 59t23 57
q22 22 57 22q52 0 74 -40t22 -93q0 -78 -40 -143q-40 -66 -105 -98z" />
    <glyph glyph-name="quotedblbase" unicode="&#x201e;" horiz-adv-x="614" 
d="M180 164q52 0 73 -40t21 -93q0 -79 -40 -144q-40 -66 -105 -98l-10 16q38 21 64 66q26 46 26 100q0 12 -1 17q-2 8 -3 18q-5 -4 -14 -4h-13q-34 0 -57 24q-23 25 -23 58q0 34 23 57t59 23zM428 164q52 0 73 -40t21 -93q0 -79 -40 -144q-40 -66 -105 -98l-10 16
q38 21 64 66q26 46 26 100q0 12 -1 17q-2 8 -3 18q-5 -4 -14 -4h-13q-34 0 -57 24q-23 25 -23 58q0 34 23 57t59 23z" />
    <glyph glyph-name="bullet" unicode="&#x2022;" horiz-adv-x="534" 
d="M260 934q42 0 79 -28q36 -27 36 -85q0 -56 -36 -83t-79 -27t-79 27t-36 83q0 58 36 85q37 28 79 28z" />
    <glyph glyph-name="guilsinglleft" unicode="&#x2039;" horiz-adv-x="1216" 
d="M80 784l-12 4v56q4 0 6 2t6 2l1075 536v-57l-1040 -510l1040 -512v-57z" />
    <glyph glyph-name="guilsinglright" unicode="&#x203a;" horiz-adv-x="1214" 
d="M68 305l1040 512l-1040 510v57l1075 -536q4 0 6 -2t6 -2v-56l-12 -4l-1075 -536v57z" />
    <glyph glyph-name="Euro" unicode="&#x20ac;" horiz-adv-x="2011" 
d="M1817 1339q-50 101 -146 173q-98 74 -211 90q0 1 -35 6q-26 3 -78 7q-59 4 -83 5q-11 0 -21.5 0.5t-16 1t-7.5 0.5q-142 0 -262 -45q-117 -44 -210 -129q-92 -84 -152 -203t-81 -264h780l-12 -39h-772q-6 -60 -6 -119v-31q0 -10 2 -32h729l-10 -39h-717q15 -163 71 -289
q57 -130 149 -220q93 -92 217 -141q128 -51 274 -51q26 0 80 4t81 7q77 8 142 31q69 24 125 60q59 37 101 82q46 50 69 99q5 11 15 35q8 18 15 33h41l-10 -232q-63 -34 -135 -60q-81 -28 -162 -47q-80 -18 -179 -31q-85 -11 -183 -11q-180 0 -327 52q-148 52 -259 147
q-109 93 -178 231q-68 135 -84 301h-279l10 39h267q0 22 -1 32t-1 31q0 59 6 119h-221l10 39h217q24 151 95 277q70 123 179 211q110 89 252 136q144 48 314 48q86 0 183 -11q103 -12 179 -29q81 -19 162 -47q67 -24 135 -61l10 -233h-41q-5 11 -15 35q-5 12 -15 32z
M1878 1503l-6 -12q0 1 2 5l2 2q1 3 2 5z" />
    <glyph glyph-name="trademark" unicode="&#x2122;" horiz-adv-x="2093" 
d="M123 1636h792l3 -12q1 -6 3.5 -29t4.5 -34q4 -23 6 -48q1 -15 4 -30v-8h-33l-18 36q-23 42 -67 70q-42 27 -85 27h-172v-758q0 -35 13 -54q14 -20 36 -20h17v-35h-4h-211v33v2h10q22 0 29 4q26 14 26 68v760h-176q-29 0 -63 -17q-30 -15 -47 -31q-18 -17 -35 -49
q-16 -29 -18 -30l-3 -6h-33v6q0 5 3 28q2 15 8 49q3 17 7 49q3 24 3 29zM1905 856l-29 688q0 40 25 53q9 7 26 7h8v32h-137v-2q0 -1 -8 -20q-10 -24 -26 -64l-20 -49q-19 -49 -33 -84q-39 -95 -91 -228q-59 -149 -139 -347l-336 790l-2 4h-131v-2v-30h16q22 0 34 -20
q11 -18 11 -50v-4v-6l-24 -684q-1 -43 -31 -60q-7 -4 -27 -4h-10v-2v-33h197v35h-21q-67 0 -72 78l23 655q30 -69 88 -203t81 -188q25 -57 167 -383h26v2l330 807l12 -348l13 -348q0 -20 -5 -42q-5 -20 -22 -28q-8 -2 -16 -2h-19v-2v-33h211v2v33h-6q-23 0 -35 9t-18 23
q-7 15 -8 27q-2 18 -2 21z" />
    <glyph glyph-name="minus" unicode="&#x2212;" horiz-adv-x="1019" 
d="M125 795v53h782v-53h-782z" />
    <glyph glyph-name="uniF6C3" unicode="&#xf6c3;" horiz-adv-x="741" 
d="M365 -53q51 0 72 -40q22 -42 22 -93q0 -79 -40 -144t-106 -98l-10 16q40 21 65 66q25 44 25 100q0 12 -1 17q-2 7 -3 18q-5 -4 -13 -4h-14q-34 0 -57 24q-22 23 -22 58t22 57q23 23 60 23z" />
    <glyph glyph-name="A.salt" horiz-adv-x="1392" 
d="M676 8l-90 90l90 90l90 -90zM1194 508q23 -53 54 -83q32 -30 75 -30v-30h-301v30h18q47 0 61 31q14 30 -3 76l-39 90q-99 5 -183 31q-93 29 -163 59q-70 24 -101 36q-45 17 -94 30q-100 18 -176 -9l-86 -211q-18 -50 -12 -84q6 -22 20 -33q15 -12 29 -15q16 -3 26 -2
q8 1 15 1v-30h-254v30q42 0 73 26q27 23 56 79l467 1140h31zM662 1520l-304 -740q89 21 180 -4t181 -63q102 -38 155 -56q74 -25 170 -30z" />
    <glyph glyph-name="E.salt" horiz-adv-x="1208" 
d="M1073 375h-981v31q98 0 98 120v953q0 56 -22 88t-59 32h-17v31h971q0 -47 3 -101q4 -73 5 -102h-18q-9 0 -9 3l-10 24q-35 69 -104 109q-70 41 -154 41h-469v-482h412q70 0 125 22q52 21 67 60l7 17h26v-236h-26l-7 16q-17 42 -68 68q-53 27 -124 27h-412v-695h481
q85 0 162 41q75 40 121 109l19 24q0 3 8 3h18q-9 -36 -19 -96q-7 -42 -20 -95zM514 96l90 92l90 -92l-90 -88z" />
    <glyph glyph-name="O.salt" horiz-adv-x="1488" 
d="M750 186l90 -90l-90 -90l-91 90zM641 367q-131 17 -229 73q-98 57 -165 143q-68 88 -101 192q-33 103 -33 226q0 131 40 244q41 117 119 203q79 88 198 139q118 51 273 51q61 0 111 -8q133 -17 229 -72q99 -57 165 -141q67 -86 101 -191q33 -103 33 -227q0 -129 -40 -245
q-41 -119 -119 -204q-79 -87 -198 -138q-121 -52 -273 -52q-46 0 -111 7zM752 1614q-130 0 -228 -49q-100 -50 -165 -133q-66 -83 -99 -196q-33 -111 -33 -237q0 -113 29 -218q28 -102 84 -185q54 -81 138 -137q81 -55 192 -70q6 -1 18.5 -2t18.5 -1q12 -1 36 -1
q130 0 228 49q99 49 164 134q64 83 98 197q33 111 33 236q0 109 -28 218q-26 102 -83 185q-55 81 -138 135q-83 55 -194 71q-11 1 -35 3q-12 1 -36 1z" />
    <glyph glyph-name="U.salt" horiz-adv-x="1492" 
d="M418 1604h-23h-12q-22 -10 -40 -39q-17 -28 -19 -64l2 -686q0 -83 30 -160q29 -73 89 -132q57 -55 141 -89q82 -33 184 -33q114 0 198 34t143 87q57 51 88 122q30 69 30 140l2 701q-4 46 -32 83q-27 36 -62 36h-19v34h6h250v-32h-4v-2h-18q-9 0 -15 -2q-27 -10 -49 -47
q-20 -34 -20 -78v-699q0 -90 -39 -166q-38 -75 -108 -131q-69 -56 -163 -87q-96 -32 -206 -32q-133 0 -231 40q-101 41 -167 106q-68 67 -102 150q-35 87 -35 176v657q0 46 -23 79q-24 34 -55 34h-16v34h295v-34zM764 190l90 -88l-90 -90l-90 90z" />
    <glyph glyph-name="C.salt" horiz-adv-x="1386" 
d="M750 360q-146 0 -269 47q-122 47 -207 130q-88 87 -133 201q-47 120 -47 263q0 142 47 262q45 114 133 201q85 83 207 130q120 46 269 46h6h4q141 0 279 -30t231 -82l6 -180h-10h-21h-10q-9 21 -11 25q-6 12 -14 26q-38 78 -111 134t-163 71q0 2 -24 4q-5 0 -24 1.5
t-31 2.5q-11 1 -31.5 2.5t-30.5 1.5q-40 2 -41 2q-122 -1 -224 -47q-100 -45 -172 -126q-70 -79 -110 -194q-39 -113 -39 -250q0 -139 39 -251t111 -195q71 -81 173 -127q100 -45 224 -45q19 0 59 2q31 2 59 6q113 12 206 70q91 57 130 141q8 14 14 26q2 4 11 25h10h21h10
l-6 -180q-93 -52 -231 -82q-143 -31 -279 -31h-4h-6zM1268 1526q-4 -7 -4 -10zM858 88l-92 -90l-90 90l90 90z" />
    <glyph glyph-name="glyph308" horiz-adv-x="935" 
d="M741 627q43 -46 66 -113q22 -65 22 -139q0 -86 -27 -155q-26 -68 -79 -117q-49 -46 -123 -71q-72 -24 -158 -18q-79 5 -139 34q-61 30 -103 78q-43 49 -64 112t-21 137q0 79 23 142q25 69 70 114q50 50 111 75q66 27 150 27q80 0 148 -23q73 -25 124 -83zM190 375
q0 -64 17 -124t49 -105t81 -74t114 -35q72 -4 130 20q56 23 94 71q36 45 58 110q21 63 21 137q0 67 -19 130q-18 59 -53 105q-52 67 -136 90q-82 22 -162 -5q-79 -27 -136 -106q-58 -81 -58 -214zM492 907q-88 0 -160 28q-69 27 -118 76t-74 113q-25 65 -25 144
q0 163 102 262q101 98 266 98q62 0 108 -7q60 -9 88 -18q44 -14 63 -23q35 -17 36 -17v-20q0 -8 2 -36q0 -13 2 -51h-32l-23 46q-12 26 -39 48q-28 24 -73 38q-50 16 -123 16q-137 0 -218 -93q-84 -90 -84 -243q0 -64 19 -127q18 -60 53 -104t86 -71q53 -28 117 -34
q28 -2 44 -1t44 3q54 6 94 28q37 21 59 46q20 23 31 45l13 26h32l-4 -104q0 -1 -21 -13q-19 -11 -60 -24q-44 -14 -90 -22q-53 -9 -115 -9z" />
    <glyph glyph-name="glyph329" horiz-adv-x="1406" 
d="M870 479q25 11 28 22q3 12 3 19h23v-108h-23v12q0 10 -5 13t-11 2q-10 -3 -13 -4q-6 -3 -8 -3l-55 -24v-205l57 -25q18 -6 29 0q6 4 6 11v16h23v-94h-23v16q0 12 -29 27l-368 149v19zM788 399l-225 -96l225 -92v188zM930 989v-20q-37 -29 -88.5 -68.5t-84 -64.5
t-55.5 -43q-96 -75 -108 -84q-29 -21 -35 -27l-2 -2h315q12 0 20 4q9 4 9 14v13h23v-84h-23v6q0 15 -9 20q-8 4 -20 4h-315q-11 0 -20 -4q-11 -5 -11 -14v-12h-22v67l350 273h-297q-11 0 -20 -4q-11 -5 -11 -15v-12h-22v84h22v-6q0 -16 11 -21q9 -4 20 -4h373zM526 1143h-22
v168q0 97 57 156t154 59q93 0 151 -50t58 -137v-196h-23v6q0 16 -9 19t-20 3h-315q-11 0 -20 -4q-11 -5 -11 -14v-10zM524 1217h379v122q0 57 -38 92q-37 34 -90 46t-107 2q-56 -11 -90 -43q-54 -48 -54 -125v-94z" />
    <glyph glyph-name="L.salt" horiz-adv-x="2183" 
d="M106 2v39q60 0 92 35q31 34 31 112v1266q0 68 -28 108t-76 40h-19v38h369v-38q-59 0 -91 -35t-32 -113v-1415q167 27 311 12q148 -15 277 -43q156 -33 261 -58q127 -30 263 -36q133 -6 282 26q143 31 318 128l13 -21q-164 -111 -310 -158q-149 -48 -280 -52
q-133 -4 -267 20q-124 23 -269 56q-149 34 -283 59q-156 29 -316 30h-246z" />
    <glyph glyph-name="K.salt" horiz-adv-x="2816" 
d="M2718 47q-282 -165 -525 -217q-245 -53 -468 -4q-225 49 -437 199q-212 149 -430 393q-68 76 -115 132q-59 71 -118 126q-62 58 -128 95t-141 42v-625q0 -68 28 -108q27 -39 75 -39h20v-39h-368v39q59 0 91 35q31 34 31 112v1266q0 68 -28 108t-76 40h-18v38h368v-38
q-59 0 -91 -35t-32 -113v-571l711 610q53 51 71 80t-10 29h-10v38h246v-38q-119 0 -293 -148h-2l-711 -614q63 -1 124 -23q63 -22 118 -51q60 -31 111 -71q70 -54 104 -81q105 -91 201 -193q113 -120 203 -206q104 -99 221 -185q115 -84 258 -131q138 -46 311 -44t383 77
q81 29 158 66q74 36 151 78z" />
    <glyph glyph-name="R.salt" horiz-adv-x="3057" 
d="M1817 0q146 -85 289 -113q147 -29 291 -12t288 75q146 59 285 148l18 -28q-155 -103 -299 -163q-143 -59 -271 -80q-134 -22 -251 -10q-128 13 -238 48q-137 41 -250 102q-119 64 -212 130q-90 63 -180 139q-28 23 -80 67t-77 64q-71 59 -120 89q-48 30 -92 46
q-39 14 -77 16q-48 2 -77 2h-399v-334q0 -66 28 -106q29 -41 76 -41h20v-39h-378v39h20q47 0 76 41t29 106v1266q0 68 -29 109t-76 41h-20v36h751q117 0 217 -41q99 -41 168 -114q71 -75 109 -177q39 -104 39 -229q0 -102 -32 -192t-91 -158q-62 -71 -144 -118
q-83 -48 -188 -70q118 -24 230 -89q114 -66 221 -145q92 -68 215 -163q105 -82 211 -142zM764 551q109 0 202 38q88 36 156 107q66 69 102 167q36 97 36 214t-29 216q-29 98 -81 167q-54 71 -126 109q-74 39 -162 39h-497v-1057h399z" />
    </font>
</defs>
</svg>
